G04 #@! TF.FileFunction,Copper,L2,Bot,Mixed*
%FSLAX46Y46*%
G04 Gerber Fmt 4.6, Leading zero omitted, Abs format (unit mm)*
G04 Created by KiCad (PCBNEW 4.0.3-stable) date 10/08/16 12:11:26*
%MOMM*%
%LPD*%
G01*
G04 APERTURE LIST*
%ADD10C,0.100000*%
%ADD11R,2.032000X2.032000*%
%ADD12R,1.727200X1.727200*%
%ADD13O,1.727200X1.727200*%
%ADD14R,1.727200X2.032000*%
%ADD15O,1.727200X2.032000*%
%ADD16O,2.032000X2.032000*%
%ADD17R,2.032000X1.727200*%
%ADD18O,2.032000X1.727200*%
%ADD19C,5.400000*%
%ADD20C,0.600000*%
%ADD21C,0.635000*%
%ADD22C,0.635000*%
%ADD23C,0.203200*%
%ADD24C,0.254000*%
%ADD25C,0.025400*%
G04 APERTURE END LIST*
D10*
D11*
X100965000Y-53340000D03*
D12*
X58420000Y-77470000D03*
D13*
X58420000Y-74930000D03*
D14*
X83185000Y-49530000D03*
D15*
X85725000Y-49530000D03*
X88265000Y-49530000D03*
X90805000Y-49530000D03*
X93345000Y-49530000D03*
X95885000Y-49530000D03*
X98425000Y-49530000D03*
X100965000Y-49530000D03*
D14*
X83185000Y-53340000D03*
D15*
X85725000Y-53340000D03*
X88265000Y-53340000D03*
X90805000Y-53340000D03*
X93345000Y-53340000D03*
X95885000Y-53340000D03*
X98425000Y-53340000D03*
D14*
X83185000Y-45720000D03*
D15*
X85725000Y-45720000D03*
X88265000Y-45720000D03*
X90805000Y-45720000D03*
X93345000Y-45720000D03*
X95885000Y-45720000D03*
X98425000Y-45720000D03*
X100965000Y-45720000D03*
D12*
X73660000Y-52070000D03*
D13*
X76200000Y-52070000D03*
X73660000Y-54610000D03*
X76200000Y-54610000D03*
D12*
X73660000Y-45720000D03*
D13*
X76200000Y-45720000D03*
X73660000Y-48260000D03*
X76200000Y-48260000D03*
D11*
X106045000Y-69850000D03*
D16*
X103505000Y-69850000D03*
D12*
X58420000Y-45720000D03*
D13*
X60960000Y-45720000D03*
X58420000Y-48260000D03*
X60960000Y-48260000D03*
X58420000Y-50800000D03*
X60960000Y-50800000D03*
D12*
X106680000Y-60960000D03*
D13*
X106680000Y-63500000D03*
D17*
X58420000Y-60960000D03*
D18*
X58420000Y-63500000D03*
X58420000Y-66040000D03*
D19*
X58420000Y-40640000D03*
D20*
X60445000Y-40640000D03*
X59851891Y-42071891D03*
X58420000Y-42665000D03*
X56988109Y-42071891D03*
X56395000Y-40640000D03*
X56988109Y-39208109D03*
X58420000Y-38615000D03*
X59851891Y-39208109D03*
D19*
X105410000Y-40640000D03*
D20*
X107435000Y-40640000D03*
X106841891Y-42071891D03*
X105410000Y-42665000D03*
X103978109Y-42071891D03*
X103385000Y-40640000D03*
X103978109Y-39208109D03*
X105410000Y-38615000D03*
X106841891Y-39208109D03*
D19*
X58420000Y-83185000D03*
D20*
X60445000Y-83185000D03*
X59851891Y-84616891D03*
X58420000Y-85210000D03*
X56988109Y-84616891D03*
X56395000Y-83185000D03*
X56988109Y-81753109D03*
X58420000Y-81160000D03*
X59851891Y-81753109D03*
D19*
X105410000Y-83185000D03*
D20*
X107435000Y-83185000D03*
X106841891Y-84616891D03*
X105410000Y-85210000D03*
X103978109Y-84616891D03*
X103385000Y-83185000D03*
X103978109Y-81753109D03*
X105410000Y-81160000D03*
X106841891Y-81753109D03*
D21*
X74561804Y-57975510D03*
X92075000Y-73533000D03*
X93472000Y-76835000D03*
X94869000Y-72898000D03*
X95885000Y-73914000D03*
X65278000Y-52705000D03*
X55499000Y-72517000D03*
X54864000Y-61849000D03*
X54864000Y-55245000D03*
X55118000Y-49276000D03*
X55626000Y-45085000D03*
X94996000Y-80772000D03*
X104648000Y-55372000D03*
X104648000Y-51308000D03*
X104648000Y-47752000D03*
X91440000Y-67310000D03*
X90805000Y-76200000D03*
X86360000Y-76200000D03*
X84455000Y-74295000D03*
X75565000Y-69850000D03*
X78105000Y-71755000D03*
X88900000Y-71755000D03*
X86995000Y-62230000D03*
X89535000Y-60960000D03*
X92075000Y-60960000D03*
X94615000Y-60960000D03*
X97155000Y-60960000D03*
X99695000Y-60960000D03*
X100330000Y-85090000D03*
X109220000Y-73660000D03*
X109220000Y-78740000D03*
X106680000Y-78740000D03*
X102870000Y-78740000D03*
X88900000Y-82550000D03*
X85090000Y-80010000D03*
X81280000Y-80010000D03*
X77470000Y-80010000D03*
X73660000Y-80010000D03*
X69850000Y-80010000D03*
X66040000Y-80010000D03*
X62230000Y-80010000D03*
X57150000Y-69850000D03*
X66040000Y-73660000D03*
X62230000Y-74930000D03*
X82550000Y-66040000D03*
X85090000Y-64770000D03*
X91440000Y-64770000D03*
X95250000Y-64770000D03*
X99060000Y-64770000D03*
X102870000Y-64770000D03*
X102870000Y-60960000D03*
X104140000Y-57150000D03*
X107950000Y-53340000D03*
X107950000Y-49530000D03*
X107950000Y-45720000D03*
X64770000Y-38100000D03*
X68580000Y-38100000D03*
X72390000Y-38100000D03*
X76200000Y-38100000D03*
X80010000Y-38100000D03*
X83820000Y-38100000D03*
X87630000Y-38100000D03*
X91440000Y-38100000D03*
X95250000Y-38100000D03*
X99060000Y-38100000D03*
X91440000Y-43180000D03*
X95250000Y-43180000D03*
X99060000Y-43180000D03*
X99060000Y-55880000D03*
X72644000Y-57975510D03*
X70874928Y-57975510D03*
X99568000Y-76327000D03*
X98425000Y-77851000D03*
X95250000Y-67437000D03*
X96393000Y-68326000D03*
X68961000Y-45593000D03*
X65786000Y-45593000D03*
X73690098Y-58293000D03*
X69850000Y-58293000D03*
X74549000Y-76962000D03*
X73533000Y-78105000D03*
X73279000Y-73025000D03*
X72136000Y-74295000D03*
X81280000Y-77851000D03*
X80010000Y-78994000D03*
X83153881Y-71532119D03*
X81915000Y-72644000D03*
X84455000Y-70866000D03*
X85852000Y-69596000D03*
X86643544Y-58662213D03*
X77851000Y-66211510D03*
X85217000Y-55245000D03*
X86614000Y-56388000D03*
X73533000Y-66294000D03*
X87429129Y-58608599D03*
X87401413Y-56388000D03*
X86995000Y-52578000D03*
X73914000Y-68453000D03*
X77216000Y-66802000D03*
X83003126Y-58301636D03*
X78867000Y-59499510D03*
X84872136Y-52073326D03*
X68961000Y-59944000D03*
X79629000Y-58356490D03*
X80391000Y-56134000D03*
X76297031Y-58324371D03*
X77606227Y-58356490D03*
X68072000Y-59563000D03*
X79374989Y-53785289D03*
X75724862Y-60007512D03*
X79502000Y-56134000D03*
X68326000Y-63246000D03*
X81583315Y-51817012D03*
X81808184Y-55452649D03*
X76540455Y-60040931D03*
X69342000Y-63373000D03*
X63307763Y-63880889D03*
X78486000Y-54864000D03*
X78613000Y-56134000D03*
X63246000Y-62611000D03*
X61733287Y-63859521D03*
X61658510Y-62611000D03*
X73660000Y-64262000D03*
X71628000Y-64262000D03*
X80884516Y-60263762D03*
X77216000Y-60833000D03*
X88265000Y-58674000D03*
X88265000Y-56388000D03*
X76836108Y-58898317D03*
X74019137Y-60520088D03*
X75614978Y-61150523D03*
X69723000Y-60515510D03*
X82614547Y-57170162D03*
X77714390Y-57213479D03*
X62520354Y-63882815D03*
X62445923Y-62611000D03*
X77558349Y-54917535D03*
X77640227Y-56060546D03*
X65405000Y-68834000D03*
X63881000Y-67310000D03*
X60833000Y-63881000D03*
X60833000Y-57785000D03*
X61771106Y-55732187D03*
X61849000Y-54229000D03*
X61976000Y-52705000D03*
X64262000Y-48768000D03*
X64262000Y-46482000D03*
X80772000Y-44196000D03*
X88011000Y-43053000D03*
X60261490Y-62613482D03*
X60706000Y-71628000D03*
X75342047Y-53226380D03*
X73522866Y-43624510D03*
X73533000Y-65405000D03*
X67437000Y-62230000D03*
X67437000Y-58801000D03*
X65659000Y-56388000D03*
X84231362Y-60425459D03*
X83181322Y-60490121D03*
X81641535Y-61160803D03*
X71462879Y-50108846D03*
X73182794Y-49545444D03*
X71159716Y-49382134D03*
X82044064Y-58035878D03*
X76900031Y-57719969D03*
D22*
X74244305Y-57658011D02*
X74561804Y-57975510D01*
X65278000Y-52705000D02*
X69291294Y-52705000D01*
X69291294Y-52705000D02*
X74244305Y-57658011D01*
X92329000Y-73787000D02*
X92075000Y-73533000D01*
X92837000Y-74295000D02*
X92329000Y-73787000D01*
X92837000Y-74422000D02*
X92837000Y-74295000D01*
X92837000Y-75057000D02*
X92837000Y-74422000D01*
X93472000Y-75692000D02*
X92837000Y-75057000D01*
X93472000Y-76835000D02*
X93472000Y-75692000D01*
D23*
X94996000Y-73025000D02*
X94869000Y-72898000D01*
X95885000Y-73914000D02*
X94996000Y-73025000D01*
D22*
X63373000Y-48133000D02*
X63373000Y-50800000D01*
X63373000Y-50800000D02*
X65278000Y-52705000D01*
X60960000Y-45720000D02*
X63373000Y-48133000D01*
D23*
X54864000Y-55245000D02*
X54864000Y-61849000D01*
X55626000Y-45085000D02*
X55118000Y-45593000D01*
X55118000Y-45593000D02*
X55118000Y-49276000D01*
X104648000Y-47752000D02*
X104648000Y-51308000D01*
X90805000Y-76200000D02*
X90805000Y-67945000D01*
X90805000Y-67945000D02*
X91440000Y-67310000D01*
X84455000Y-74295000D02*
X86360000Y-76200000D01*
X78105000Y-71755000D02*
X76200000Y-69850000D01*
X76200000Y-69850000D02*
X75565000Y-69850000D01*
X89535000Y-60960000D02*
X88265000Y-60960000D01*
X88265000Y-60960000D02*
X86995000Y-62230000D01*
X94615000Y-60960000D02*
X92075000Y-60960000D01*
X99695000Y-60960000D02*
X97155000Y-60960000D01*
X104855999Y-82630999D02*
X102789001Y-82630999D01*
X102789001Y-82630999D02*
X100330000Y-85090000D01*
X106680000Y-78740000D02*
X109220000Y-78740000D01*
X105410000Y-83185000D02*
X104855999Y-82630999D01*
X104855999Y-82630999D02*
X104855999Y-80725999D01*
X104855999Y-80725999D02*
X102870000Y-78740000D01*
X87630000Y-82550000D02*
X88900000Y-82550000D01*
X85090000Y-80010000D02*
X87630000Y-82550000D01*
X77470000Y-80010000D02*
X81280000Y-80010000D01*
X69850000Y-80010000D02*
X73660000Y-80010000D01*
X62230000Y-80010000D02*
X66040000Y-80010000D01*
X57150000Y-80010000D02*
X62230000Y-80010000D01*
X55880000Y-78740000D02*
X57150000Y-80010000D01*
X55880000Y-74930000D02*
X55880000Y-78740000D01*
X58420000Y-74930000D02*
X55880000Y-74930000D01*
X62230000Y-74930000D02*
X64770000Y-74930000D01*
X64770000Y-74930000D02*
X66040000Y-73660000D01*
X85090000Y-64770000D02*
X83820000Y-66040000D01*
X83820000Y-66040000D02*
X82550000Y-66040000D01*
X95250000Y-64770000D02*
X91440000Y-64770000D01*
X102870000Y-64770000D02*
X99060000Y-64770000D01*
X104140000Y-57150000D02*
X102870000Y-58420000D01*
X102870000Y-58420000D02*
X102870000Y-60960000D01*
X107950000Y-49530000D02*
X107950000Y-53340000D01*
X105410000Y-40640000D02*
X105964001Y-41194001D01*
X105964001Y-41194001D02*
X105964001Y-43734001D01*
X105964001Y-43734001D02*
X107950000Y-45720000D01*
X64770000Y-38100000D02*
X63107890Y-39762110D01*
X63107890Y-39762110D02*
X59297890Y-39762110D01*
X59297890Y-39762110D02*
X58420000Y-40640000D01*
X72390000Y-38100000D02*
X68580000Y-38100000D01*
X80010000Y-38100000D02*
X76200000Y-38100000D01*
X87630000Y-38100000D02*
X83820000Y-38100000D01*
X95250000Y-38100000D02*
X91440000Y-38100000D01*
X105410000Y-40640000D02*
X104855999Y-40085999D01*
X104855999Y-40085999D02*
X101045999Y-40085999D01*
X101045999Y-40085999D02*
X99060000Y-38100000D01*
X99060000Y-43180000D02*
X95250000Y-43180000D01*
X86614000Y-58632669D02*
X86643544Y-58662213D01*
X86614000Y-56388000D02*
X86614000Y-58632669D01*
X84302601Y-52120799D02*
X83185000Y-51003198D01*
X84302601Y-54330601D02*
X84302601Y-52120799D01*
X83185000Y-50749200D02*
X83185000Y-49530000D01*
X85217000Y-55245000D02*
X84302601Y-54330601D01*
X83185000Y-51003198D02*
X83185000Y-50749200D01*
X77615991Y-65976501D02*
X77851000Y-66211510D01*
X73533000Y-66294000D02*
X73850499Y-65976501D01*
X73850499Y-65976501D02*
X77615991Y-65976501D01*
X87401413Y-58580883D02*
X87429129Y-58608599D01*
X87401413Y-56388000D02*
X87401413Y-58580883D01*
X86995000Y-52578000D02*
X86995000Y-50952400D01*
X86995000Y-50952400D02*
X85725000Y-49682400D01*
X85725000Y-49682400D02*
X85725000Y-49530000D01*
X73914000Y-68453000D02*
X73914000Y-66802000D01*
X73914000Y-66802000D02*
X74168000Y-66548000D01*
X76962000Y-66548000D02*
X77216000Y-66802000D01*
X74168000Y-66548000D02*
X76962000Y-66548000D01*
X83320625Y-57984137D02*
X83003126Y-58301636D01*
X86161373Y-55143389D02*
X83320625Y-57984137D01*
X88265000Y-50749200D02*
X89382610Y-51866810D01*
X89382610Y-51866810D02*
X89382610Y-53955329D01*
X89382610Y-53955329D02*
X88194550Y-55143389D01*
X88194550Y-55143389D02*
X86161373Y-55143389D01*
X88265000Y-49530000D02*
X88265000Y-50749200D01*
X87147390Y-48914671D02*
X87802071Y-48259990D01*
X87147390Y-49219451D02*
X87147390Y-48914671D01*
X85262071Y-48259990D02*
X86187929Y-48259990D01*
X87802071Y-48259990D02*
X89687390Y-48259990D01*
X84872136Y-52073326D02*
X84607390Y-51808580D01*
X84607390Y-51808580D02*
X84607390Y-48914671D01*
X86187929Y-48259990D02*
X87147390Y-49219451D01*
X84607390Y-48914671D02*
X85262071Y-48259990D01*
X90805000Y-49377600D02*
X90805000Y-49530000D01*
X89687390Y-48259990D02*
X90805000Y-49377600D01*
X78417988Y-59499510D02*
X78867000Y-59499510D01*
X76497178Y-59436000D02*
X76530607Y-59469429D01*
X68961000Y-59944000D02*
X74422000Y-59944000D01*
X76814777Y-59469429D02*
X76844858Y-59499510D01*
X76530607Y-59469429D02*
X76814777Y-59469429D01*
X74930000Y-59436000D02*
X76497178Y-59436000D01*
X74422000Y-59944000D02*
X74930000Y-59436000D01*
X76844858Y-59499510D02*
X78417988Y-59499510D01*
X79629000Y-58356490D02*
X77606227Y-58356490D01*
X82626198Y-47752000D02*
X80391000Y-49987198D01*
X91719400Y-47752000D02*
X82626198Y-47752000D01*
X80391000Y-49987198D02*
X80391000Y-56134000D01*
X93345000Y-49530000D02*
X93345000Y-49377600D01*
X93345000Y-49377600D02*
X91719400Y-47752000D01*
X73977499Y-59563000D02*
X75216128Y-58324371D01*
X68389499Y-59245501D02*
X69108323Y-59245501D01*
X69108323Y-59245501D02*
X69425822Y-59563000D01*
X75216128Y-58324371D02*
X75848019Y-58324371D01*
X69425822Y-59563000D02*
X73977499Y-59563000D01*
X75848019Y-58324371D02*
X76297031Y-58324371D01*
X68072000Y-59563000D02*
X68389499Y-59245501D01*
X79502000Y-53912300D02*
X79374989Y-53785289D01*
X79502000Y-56134000D02*
X79502000Y-53912300D01*
X68326000Y-63246000D02*
X70480411Y-61091589D01*
X74293360Y-61091589D02*
X75377437Y-60007512D01*
X75377437Y-60007512D02*
X75724862Y-60007512D01*
X70480411Y-61091589D02*
X74293360Y-61091589D01*
X81583315Y-51817012D02*
X81583315Y-55227780D01*
X81583315Y-55227780D02*
X81808184Y-55452649D01*
X75308844Y-60579013D02*
X76002373Y-60579013D01*
X74440659Y-61447198D02*
X75308844Y-60579013D01*
X69342000Y-63373000D02*
X71267802Y-61447198D01*
X71267802Y-61447198D02*
X74440659Y-61447198D01*
X76222956Y-60358430D02*
X76540455Y-60040931D01*
X76002373Y-60579013D02*
X76222956Y-60358430D01*
X63246000Y-62611000D02*
X63246000Y-63819126D01*
X63246000Y-63819126D02*
X63307763Y-63880889D01*
X78613000Y-56134000D02*
X78613000Y-54991000D01*
X78613000Y-54991000D02*
X78486000Y-54864000D01*
X61658510Y-63784744D02*
X61733287Y-63859521D01*
X61658510Y-62611000D02*
X61658510Y-63784744D01*
X71628000Y-64262000D02*
X73660000Y-64262000D01*
X80435504Y-60263762D02*
X80884516Y-60263762D01*
X77785238Y-60263762D02*
X80435504Y-60263762D01*
X77216000Y-60833000D02*
X77785238Y-60263762D01*
X88265000Y-56388000D02*
X88265000Y-58674000D01*
X86614000Y-55499000D02*
X83820000Y-58293000D01*
X90805000Y-53492400D02*
X88798400Y-55499000D01*
X83820000Y-59563000D02*
X80645000Y-59563000D01*
X83820000Y-58293000D02*
X83820000Y-59563000D01*
X80645000Y-59563000D02*
X80010000Y-58928000D01*
X76865791Y-58928000D02*
X76836108Y-58898317D01*
X90805000Y-53340000D02*
X90805000Y-53492400D01*
X80010000Y-58928000D02*
X76865791Y-58928000D01*
X88798400Y-55499000D02*
X86614000Y-55499000D01*
X88836502Y-58000898D02*
X88836502Y-58948322D01*
X93345000Y-53492400D02*
X88836502Y-58000898D01*
X82075489Y-59918611D02*
X80526078Y-61468022D01*
X83967298Y-59918611D02*
X82075489Y-59918611D01*
X84526129Y-59359779D02*
X83967298Y-59918611D01*
X88836502Y-58948322D02*
X88425045Y-59359779D01*
X93345000Y-53340000D02*
X93345000Y-53492400D01*
X75932477Y-61468022D02*
X75614978Y-61150523D01*
X88425045Y-59359779D02*
X84526129Y-59359779D01*
X80526078Y-61468022D02*
X75932477Y-61468022D01*
X69723000Y-60515510D02*
X73787000Y-60515510D01*
X73791578Y-60520088D02*
X74019137Y-60520088D01*
X73787000Y-60515510D02*
X73791578Y-60520088D01*
X77714390Y-57213479D02*
X82571230Y-57213479D01*
X82571230Y-57213479D02*
X82614547Y-57170162D01*
X62445923Y-63808384D02*
X62520354Y-63882815D01*
X62445923Y-62611000D02*
X62445923Y-63808384D01*
X77640227Y-54999413D02*
X77558349Y-54917535D01*
X77640227Y-56060546D02*
X77640227Y-54999413D01*
X63881000Y-67310000D02*
X65405000Y-68834000D01*
X60833000Y-57785000D02*
X60833000Y-58234012D01*
X60833000Y-58234012D02*
X60833000Y-63881000D01*
X61771106Y-55732187D02*
X60833000Y-56670293D01*
X60833000Y-56670293D02*
X60833000Y-57785000D01*
X61849000Y-54102000D02*
X61849000Y-54229000D01*
X61849000Y-53281012D02*
X61849000Y-54102000D01*
X61976000Y-52705000D02*
X61976000Y-53154012D01*
X61976000Y-53154012D02*
X61849000Y-53281012D01*
X64262000Y-46482000D02*
X64262000Y-48768000D01*
X85725000Y-45567600D02*
X84353400Y-44196000D01*
X84353400Y-44196000D02*
X80772000Y-44196000D01*
X85725000Y-45720000D02*
X85725000Y-45567600D01*
X88011000Y-43053000D02*
X88011000Y-45466000D01*
X88011000Y-45466000D02*
X88265000Y-45720000D01*
X60706000Y-71628000D02*
X60261490Y-71183490D01*
X60261490Y-63062494D02*
X60261490Y-62613482D01*
X60261490Y-71183490D02*
X60261490Y-63062494D01*
D22*
X73660000Y-52070000D02*
X73660000Y-53086000D01*
X73660000Y-53086000D02*
X73660000Y-54610000D01*
D23*
X75342047Y-53226380D02*
X73800380Y-53226380D01*
X73800380Y-53226380D02*
X73660000Y-53086000D01*
X73660000Y-43761644D02*
X73522866Y-43624510D01*
X73660000Y-45720000D02*
X73660000Y-43761644D01*
X67437000Y-63627000D02*
X69215000Y-65405000D01*
X69215000Y-65405000D02*
X73533000Y-65405000D01*
X67437000Y-62230000D02*
X67437000Y-63627000D01*
X65659000Y-56388000D02*
X67437000Y-58166000D01*
X67437000Y-58166000D02*
X67437000Y-58801000D01*
D22*
X73660000Y-45720000D02*
X73660000Y-48260000D01*
D23*
X84548861Y-60107960D02*
X84231362Y-60425459D01*
X84941431Y-59715390D02*
X84548861Y-60107960D01*
X88927970Y-59715390D02*
X84941431Y-59715390D01*
X89542631Y-59677277D02*
X88966083Y-59677277D01*
X95885000Y-46939200D02*
X94767390Y-48056810D01*
X94767390Y-48056810D02*
X94767390Y-54452518D01*
X95885000Y-45720000D02*
X95885000Y-46939200D01*
X94767390Y-54452518D02*
X89542631Y-59677277D01*
X88966083Y-59677277D02*
X88927970Y-59715390D01*
X98425000Y-46939200D02*
X98425000Y-45720000D01*
X97002610Y-48361590D02*
X98425000Y-46939200D01*
X97002610Y-53955329D02*
X97002610Y-48361590D01*
X89113381Y-60032888D02*
X90925051Y-60032888D01*
X90925051Y-60032888D02*
X97002610Y-53955329D01*
X89075269Y-60071000D02*
X89113381Y-60032888D01*
X88011000Y-60071000D02*
X89075269Y-60071000D01*
X84505683Y-60996960D02*
X83688161Y-60996960D01*
X87376860Y-60705140D02*
X84797503Y-60705140D01*
X84797503Y-60705140D02*
X84505683Y-60996960D01*
X88011000Y-60071000D02*
X87376860Y-60705140D01*
X83688161Y-60996960D02*
X83498821Y-60807620D01*
X83498821Y-60807620D02*
X83181322Y-60490121D01*
X88011000Y-60071000D02*
X88138000Y-60071000D01*
X99593399Y-48310801D02*
X100965000Y-46939200D01*
X100965000Y-46939200D02*
X100965000Y-45720000D01*
X93109441Y-60388498D02*
X99593399Y-53904540D01*
X89260680Y-60388498D02*
X93109441Y-60388498D01*
X99593399Y-53904540D02*
X99593399Y-48310801D01*
X88112611Y-60604389D02*
X89044789Y-60604389D01*
X87947501Y-60769499D02*
X88112611Y-60604389D01*
X89044789Y-60604389D02*
X89260680Y-60388498D01*
X87625884Y-61091116D02*
X84914435Y-61091116D01*
X87947501Y-60769499D02*
X87625884Y-61091116D01*
X84527249Y-61478302D02*
X81959034Y-61478302D01*
X81959034Y-61478302D02*
X81641535Y-61160803D01*
X84914435Y-61091116D02*
X84527249Y-61478302D01*
X87947501Y-60769499D02*
X88011000Y-60706000D01*
X71911891Y-50108846D02*
X71462879Y-50108846D01*
X76200000Y-52070000D02*
X74246945Y-50116945D01*
X71919990Y-50116945D02*
X71911891Y-50108846D01*
X74246945Y-50116945D02*
X71919990Y-50116945D01*
X73019484Y-49382134D02*
X73182794Y-49545444D01*
X71159716Y-49382134D02*
X73019484Y-49382134D01*
X81595052Y-58035878D02*
X82044064Y-58035878D01*
X77349043Y-57719969D02*
X77414063Y-57784989D01*
X77414063Y-57784989D02*
X81344163Y-57784989D01*
X81344163Y-57784989D02*
X81595052Y-58035878D01*
X76900031Y-57719969D02*
X77349043Y-57719969D01*
D24*
G36*
X110363000Y-86233000D02*
X109347000Y-86233000D01*
X109347000Y-79375000D01*
X109338315Y-79328841D01*
X109311035Y-79286447D01*
X109269410Y-79258006D01*
X109220000Y-79248000D01*
X101600000Y-79248000D01*
X101553841Y-79256685D01*
X101511447Y-79283965D01*
X101483006Y-79325590D01*
X101473000Y-79375000D01*
X101473000Y-86233000D01*
X62357000Y-86233000D01*
X62357000Y-79375000D01*
X62348315Y-79328841D01*
X62321035Y-79286447D01*
X62279410Y-79258006D01*
X62230000Y-79248000D01*
X54737000Y-79248000D01*
X54737000Y-75289027D01*
X56965032Y-75289027D01*
X57213179Y-75818490D01*
X57517050Y-76095852D01*
X57368147Y-76123870D01*
X57195247Y-76235128D01*
X57079255Y-76404888D01*
X57038448Y-76606400D01*
X57038448Y-78333600D01*
X57073870Y-78521853D01*
X57185128Y-78694753D01*
X57354888Y-78810745D01*
X57556400Y-78851552D01*
X59283600Y-78851552D01*
X59471853Y-78816130D01*
X59644753Y-78704872D01*
X59760745Y-78535112D01*
X59801552Y-78333600D01*
X59801552Y-76606400D01*
X59766130Y-76418147D01*
X59654872Y-76245247D01*
X59485112Y-76129255D01*
X59322444Y-76096314D01*
X59626821Y-75818490D01*
X59874968Y-75289027D01*
X59754469Y-75057000D01*
X58547000Y-75057000D01*
X58547000Y-75077000D01*
X58293000Y-75077000D01*
X58293000Y-75057000D01*
X57085531Y-75057000D01*
X56965032Y-75289027D01*
X54737000Y-75289027D01*
X54737000Y-74570973D01*
X56965032Y-74570973D01*
X57085531Y-74803000D01*
X58293000Y-74803000D01*
X58293000Y-73596183D01*
X58547000Y-73596183D01*
X58547000Y-74803000D01*
X59754469Y-74803000D01*
X59874968Y-74570973D01*
X59626821Y-74041510D01*
X59248817Y-73696482D01*
X91249357Y-73696482D01*
X91374767Y-73999998D01*
X91606781Y-74232417D01*
X91607127Y-74232561D01*
X91745281Y-74370714D01*
X91745283Y-74370717D01*
X92011500Y-74636933D01*
X92011500Y-75057000D01*
X92074337Y-75372906D01*
X92253283Y-75640717D01*
X92646500Y-76033933D01*
X92646500Y-76834280D01*
X92646357Y-76998482D01*
X92771767Y-77301998D01*
X93003781Y-77534417D01*
X93307077Y-77660357D01*
X93635482Y-77660643D01*
X93938998Y-77535233D01*
X94171417Y-77303219D01*
X94297357Y-76999923D01*
X94297643Y-76671518D01*
X94297500Y-76671172D01*
X94297500Y-75692005D01*
X94297501Y-75692000D01*
X94234663Y-75376095D01*
X94176486Y-75289027D01*
X94055717Y-75108283D01*
X94055714Y-75108281D01*
X93662500Y-74715066D01*
X93662500Y-74295000D01*
X93599663Y-73979095D01*
X93420717Y-73711283D01*
X93420714Y-73711281D01*
X92912717Y-73203283D01*
X92912714Y-73203281D01*
X92770916Y-73061482D01*
X94043357Y-73061482D01*
X94168767Y-73364998D01*
X94400781Y-73597417D01*
X94704077Y-73723357D01*
X94832365Y-73723469D01*
X95059468Y-73950572D01*
X95059357Y-74077482D01*
X95184767Y-74380998D01*
X95416781Y-74613417D01*
X95720077Y-74739357D01*
X96048482Y-74739643D01*
X96351998Y-74614233D01*
X96584417Y-74382219D01*
X96710357Y-74078923D01*
X96710643Y-73750518D01*
X96585233Y-73447002D01*
X96353219Y-73214583D01*
X96049923Y-73088643D01*
X95921635Y-73088531D01*
X95694532Y-72861428D01*
X95694643Y-72734518D01*
X95569233Y-72431002D01*
X95337219Y-72198583D01*
X95033923Y-72072643D01*
X94705518Y-72072357D01*
X94402002Y-72197767D01*
X94169583Y-72429781D01*
X94043643Y-72733077D01*
X94043357Y-73061482D01*
X92770916Y-73061482D01*
X92658717Y-72949283D01*
X92543219Y-72833583D01*
X92239923Y-72707643D01*
X91911518Y-72707357D01*
X91608002Y-72832767D01*
X91375583Y-73064781D01*
X91249643Y-73368077D01*
X91249357Y-73696482D01*
X59248817Y-73696482D01*
X59194947Y-73647312D01*
X58779026Y-73475042D01*
X58547000Y-73596183D01*
X58293000Y-73596183D01*
X58060974Y-73475042D01*
X57645053Y-73647312D01*
X57213179Y-74041510D01*
X56965032Y-74570973D01*
X54737000Y-74570973D01*
X54737000Y-66399026D01*
X56812642Y-66399026D01*
X56815291Y-66414791D01*
X57069268Y-66942036D01*
X57505680Y-67331954D01*
X58058087Y-67525184D01*
X58293000Y-67380924D01*
X58293000Y-66167000D01*
X56933783Y-66167000D01*
X56812642Y-66399026D01*
X54737000Y-66399026D01*
X54737000Y-65680974D01*
X56812642Y-65680974D01*
X56933783Y-65913000D01*
X58293000Y-65913000D01*
X58293000Y-65893000D01*
X58547000Y-65893000D01*
X58547000Y-65913000D01*
X58567000Y-65913000D01*
X58567000Y-66167000D01*
X58547000Y-66167000D01*
X58547000Y-67380924D01*
X58781913Y-67525184D01*
X59334320Y-67331954D01*
X59651890Y-67048217D01*
X59651890Y-71183490D01*
X59698293Y-71416774D01*
X59830438Y-71614542D01*
X59880468Y-71664572D01*
X59880357Y-71791482D01*
X60005767Y-72094998D01*
X60237781Y-72327417D01*
X60541077Y-72453357D01*
X60869482Y-72453643D01*
X61172998Y-72328233D01*
X61405417Y-72096219D01*
X61531357Y-71792923D01*
X61531643Y-71464518D01*
X61406233Y-71161002D01*
X61174219Y-70928583D01*
X60871090Y-70802712D01*
X60871090Y-69820143D01*
X101981000Y-69820143D01*
X101981000Y-69879857D01*
X102097008Y-70463067D01*
X102427369Y-70957488D01*
X102921790Y-71287849D01*
X103505000Y-71403857D01*
X104088210Y-71287849D01*
X104534335Y-70989759D01*
X104546470Y-71054253D01*
X104657728Y-71227153D01*
X104827488Y-71343145D01*
X105029000Y-71383952D01*
X107061000Y-71383952D01*
X107249253Y-71348530D01*
X107422153Y-71237272D01*
X107538145Y-71067512D01*
X107578952Y-70866000D01*
X107578952Y-68834000D01*
X107543530Y-68645747D01*
X107432272Y-68472847D01*
X107262512Y-68356855D01*
X107061000Y-68316048D01*
X105029000Y-68316048D01*
X104840747Y-68351470D01*
X104667847Y-68462728D01*
X104551855Y-68632488D01*
X104535898Y-68711286D01*
X104088210Y-68412151D01*
X103505000Y-68296143D01*
X102921790Y-68412151D01*
X102427369Y-68742512D01*
X102097008Y-69236933D01*
X101981000Y-69820143D01*
X60871090Y-69820143D01*
X60871090Y-67473482D01*
X63055357Y-67473482D01*
X63180767Y-67776998D01*
X63412781Y-68009417D01*
X63716077Y-68135357D01*
X63844364Y-68135469D01*
X64579468Y-68870572D01*
X64579357Y-68997482D01*
X64704767Y-69300998D01*
X64936781Y-69533417D01*
X65240077Y-69659357D01*
X65568482Y-69659643D01*
X65871998Y-69534233D01*
X66104417Y-69302219D01*
X66230357Y-68998923D01*
X66230643Y-68670518D01*
X66105233Y-68367002D01*
X65873219Y-68134583D01*
X65569923Y-68008643D01*
X65441636Y-68008531D01*
X64706532Y-67273428D01*
X64706643Y-67146518D01*
X64581233Y-66843002D01*
X64349219Y-66610583D01*
X64045923Y-66484643D01*
X63717518Y-66484357D01*
X63414002Y-66609767D01*
X63181583Y-66841781D01*
X63055643Y-67145077D01*
X63055357Y-67473482D01*
X60871090Y-67473482D01*
X60871090Y-64706534D01*
X60996482Y-64706643D01*
X61299998Y-64581233D01*
X61305510Y-64575731D01*
X61568364Y-64684878D01*
X61896769Y-64685164D01*
X62098894Y-64601648D01*
X62355431Y-64708172D01*
X62683836Y-64708458D01*
X62916575Y-64612292D01*
X63142840Y-64706246D01*
X63471245Y-64706532D01*
X63774761Y-64581122D01*
X64007180Y-64349108D01*
X64133120Y-64045812D01*
X64133406Y-63717407D01*
X64007996Y-63413891D01*
X63855600Y-63261229D01*
X63855600Y-63168879D01*
X63945417Y-63079219D01*
X64071357Y-62775923D01*
X64071643Y-62447518D01*
X63946233Y-62144002D01*
X63714219Y-61911583D01*
X63410923Y-61785643D01*
X63082518Y-61785357D01*
X62845754Y-61883186D01*
X62610846Y-61785643D01*
X62282441Y-61785357D01*
X62052025Y-61880563D01*
X61823433Y-61785643D01*
X61495028Y-61785357D01*
X61442600Y-61807020D01*
X61442600Y-58342879D01*
X61532417Y-58253219D01*
X61658357Y-57949923D01*
X61658643Y-57621518D01*
X61533233Y-57318002D01*
X61442600Y-57227211D01*
X61442600Y-56922797D01*
X61807678Y-56557719D01*
X61934588Y-56557830D01*
X62238104Y-56432420D01*
X62470523Y-56200406D01*
X62596463Y-55897110D01*
X62596749Y-55568705D01*
X62471339Y-55265189D01*
X62239325Y-55032770D01*
X62152587Y-54996753D01*
X62315998Y-54929233D01*
X62548417Y-54697219D01*
X62674357Y-54393923D01*
X62674643Y-54065518D01*
X62549233Y-53762002D01*
X62458600Y-53671211D01*
X62458600Y-53507917D01*
X62539197Y-53387296D01*
X62548046Y-53342807D01*
X62558580Y-53289853D01*
X62675417Y-53173219D01*
X62801357Y-52869923D01*
X62801643Y-52541518D01*
X62676233Y-52238002D01*
X62444219Y-52005583D01*
X62140923Y-51879643D01*
X61964713Y-51879490D01*
X62242688Y-51574947D01*
X62414958Y-51159026D01*
X62293817Y-50927000D01*
X61087000Y-50927000D01*
X61087000Y-52134469D01*
X61279124Y-52234245D01*
X61276583Y-52236781D01*
X61150643Y-52540077D01*
X61150357Y-52868482D01*
X61265856Y-53148011D01*
X61239400Y-53281012D01*
X61239400Y-53671121D01*
X61149583Y-53760781D01*
X61023643Y-54064077D01*
X61023357Y-54392482D01*
X61148767Y-54695998D01*
X61380781Y-54928417D01*
X61467519Y-54964434D01*
X61304108Y-55031954D01*
X61071689Y-55263968D01*
X60945749Y-55567264D01*
X60945637Y-55695552D01*
X60401948Y-56239241D01*
X60269803Y-56437009D01*
X60223400Y-56670293D01*
X60223400Y-57227121D01*
X60133583Y-57316781D01*
X60007643Y-57620077D01*
X60007357Y-57948482D01*
X60132767Y-58251998D01*
X60223400Y-58342789D01*
X60223400Y-61787948D01*
X60098008Y-61787839D01*
X59948701Y-61849531D01*
X59953952Y-61823600D01*
X59953952Y-60096400D01*
X59918530Y-59908147D01*
X59807272Y-59735247D01*
X59637512Y-59619255D01*
X59436000Y-59578448D01*
X57404000Y-59578448D01*
X57215747Y-59613870D01*
X57042847Y-59725128D01*
X56926855Y-59894888D01*
X56886048Y-60096400D01*
X56886048Y-61823600D01*
X56921470Y-62011853D01*
X57032728Y-62184753D01*
X57202488Y-62300745D01*
X57404000Y-62341552D01*
X57550105Y-62341552D01*
X57267875Y-62530132D01*
X56970550Y-62975111D01*
X56866143Y-63500000D01*
X56970550Y-64024889D01*
X57267875Y-64469868D01*
X57622856Y-64707058D01*
X57505680Y-64748046D01*
X57069268Y-65137964D01*
X56815291Y-65665209D01*
X56812642Y-65680974D01*
X54737000Y-65680974D01*
X54737000Y-44577000D01*
X57132474Y-44577000D01*
X57079255Y-44654888D01*
X57038448Y-44856400D01*
X57038448Y-46583600D01*
X57073870Y-46771853D01*
X57185128Y-46944753D01*
X57354888Y-47060745D01*
X57556400Y-47101552D01*
X57705491Y-47101552D01*
X57423261Y-47290132D01*
X57125936Y-47735111D01*
X57021529Y-48260000D01*
X57125936Y-48784889D01*
X57423261Y-49229868D01*
X57868240Y-49527193D01*
X57882352Y-49530000D01*
X57868240Y-49532807D01*
X57423261Y-49830132D01*
X57125936Y-50275111D01*
X57021529Y-50800000D01*
X57125936Y-51324889D01*
X57423261Y-51769868D01*
X57868240Y-52067193D01*
X58393129Y-52171600D01*
X58446871Y-52171600D01*
X58971760Y-52067193D01*
X59416739Y-51769868D01*
X59627438Y-51454534D01*
X59677312Y-51574947D01*
X60071510Y-52006821D01*
X60600973Y-52254968D01*
X60833000Y-52134469D01*
X60833000Y-50927000D01*
X60813000Y-50927000D01*
X60813000Y-50673000D01*
X60833000Y-50673000D01*
X60833000Y-50653000D01*
X61087000Y-50653000D01*
X61087000Y-50673000D01*
X62293817Y-50673000D01*
X62414958Y-50440974D01*
X62242688Y-50025053D01*
X61848490Y-49593179D01*
X61592537Y-49473220D01*
X61956739Y-49229868D01*
X62254064Y-48784889D01*
X62354173Y-48281606D01*
X62547500Y-48474933D01*
X62547500Y-50800000D01*
X62610337Y-51115906D01*
X62789283Y-51383717D01*
X64694060Y-53288494D01*
X64809781Y-53404417D01*
X65113077Y-53530357D01*
X65277998Y-53530501D01*
X65278002Y-53530501D01*
X65441482Y-53530643D01*
X65441828Y-53530500D01*
X68949360Y-53530500D01*
X73660586Y-58241725D01*
X73660588Y-58241728D01*
X73977293Y-58558432D01*
X74048566Y-58629829D01*
X73724995Y-58953400D01*
X69678326Y-58953400D01*
X69539375Y-58814449D01*
X69341607Y-58682304D01*
X69108323Y-58635901D01*
X68389499Y-58635901D01*
X68262622Y-58661138D01*
X68262643Y-58637518D01*
X68137233Y-58334002D01*
X68046600Y-58243211D01*
X68046600Y-58166000D01*
X68000197Y-57932716D01*
X67868052Y-57734948D01*
X66484532Y-56351428D01*
X66484643Y-56224518D01*
X66359233Y-55921002D01*
X66127219Y-55688583D01*
X65823923Y-55562643D01*
X65495518Y-55562357D01*
X65192002Y-55687767D01*
X64959583Y-55919781D01*
X64833643Y-56223077D01*
X64833357Y-56551482D01*
X64958767Y-56854998D01*
X65190781Y-57087417D01*
X65494077Y-57213357D01*
X65622365Y-57213469D01*
X66739632Y-58330736D01*
X66737583Y-58332781D01*
X66611643Y-58636077D01*
X66611357Y-58964482D01*
X66736767Y-59267998D01*
X66968781Y-59500417D01*
X67246453Y-59615717D01*
X67246357Y-59726482D01*
X67371767Y-60029998D01*
X67603781Y-60262417D01*
X67907077Y-60388357D01*
X68235482Y-60388643D01*
X68249190Y-60382979D01*
X68260767Y-60410998D01*
X68492781Y-60643417D01*
X68796077Y-60769357D01*
X68934745Y-60769478D01*
X69022767Y-60982508D01*
X69254781Y-61214927D01*
X69424497Y-61285399D01*
X68289428Y-62420468D01*
X68251764Y-62420435D01*
X68262357Y-62394923D01*
X68262643Y-62066518D01*
X68137233Y-61763002D01*
X67905219Y-61530583D01*
X67601923Y-61404643D01*
X67273518Y-61404357D01*
X66970002Y-61529767D01*
X66737583Y-61761781D01*
X66611643Y-62065077D01*
X66611357Y-62393482D01*
X66736767Y-62696998D01*
X66827400Y-62787789D01*
X66827400Y-63627000D01*
X66873803Y-63860284D01*
X67005948Y-64058052D01*
X68783948Y-65836052D01*
X68981716Y-65968197D01*
X69215000Y-66014600D01*
X72755178Y-66014600D01*
X72707643Y-66129077D01*
X72707357Y-66457482D01*
X72832767Y-66760998D01*
X73064781Y-66993417D01*
X73304400Y-67092916D01*
X73304400Y-67895121D01*
X73214583Y-67984781D01*
X73088643Y-68288077D01*
X73088357Y-68616482D01*
X73213767Y-68919998D01*
X73445781Y-69152417D01*
X73749077Y-69278357D01*
X74077482Y-69278643D01*
X74380998Y-69153233D01*
X74613417Y-68921219D01*
X74739357Y-68617923D01*
X74739643Y-68289518D01*
X74614233Y-67986002D01*
X74523600Y-67895211D01*
X74523600Y-67157600D01*
X76469738Y-67157600D01*
X76515767Y-67268998D01*
X76747781Y-67501417D01*
X77051077Y-67627357D01*
X77379482Y-67627643D01*
X77682998Y-67502233D01*
X77915417Y-67270219D01*
X78012196Y-67037151D01*
X78014482Y-67037153D01*
X78317998Y-66911743D01*
X78550417Y-66679729D01*
X78676357Y-66376433D01*
X78676643Y-66048028D01*
X78551233Y-65744512D01*
X78319219Y-65512093D01*
X78015923Y-65386153D01*
X77711444Y-65385888D01*
X77615991Y-65366901D01*
X74358534Y-65366901D01*
X74358643Y-65241518D01*
X74233233Y-64938002D01*
X74192324Y-64897021D01*
X74359417Y-64730219D01*
X74485357Y-64426923D01*
X74485643Y-64098518D01*
X74360233Y-63795002D01*
X74128219Y-63562583D01*
X73824923Y-63436643D01*
X73496518Y-63436357D01*
X73193002Y-63561767D01*
X73102211Y-63652400D01*
X72185879Y-63652400D01*
X72096219Y-63562583D01*
X71792923Y-63436643D01*
X71464518Y-63436357D01*
X71161002Y-63561767D01*
X70928583Y-63793781D01*
X70802643Y-64097077D01*
X70802357Y-64425482D01*
X70927767Y-64728998D01*
X70994053Y-64795400D01*
X69467504Y-64795400D01*
X68669405Y-63997301D01*
X68761011Y-63959450D01*
X68873781Y-64072417D01*
X69177077Y-64198357D01*
X69505482Y-64198643D01*
X69808998Y-64073233D01*
X70041417Y-63841219D01*
X70167357Y-63537923D01*
X70167469Y-63409635D01*
X71520307Y-62056798D01*
X74440659Y-62056798D01*
X74673943Y-62010395D01*
X74871711Y-61878250D01*
X75023498Y-61726463D01*
X75146759Y-61849940D01*
X75450055Y-61975880D01*
X75616589Y-61976025D01*
X75647556Y-61996716D01*
X75699193Y-62031219D01*
X75932477Y-62077622D01*
X80526078Y-62077622D01*
X80759362Y-62031219D01*
X80957130Y-61899074D01*
X81084727Y-61771477D01*
X81173316Y-61860220D01*
X81476612Y-61986160D01*
X81643146Y-61986305D01*
X81665738Y-62001400D01*
X81725750Y-62041499D01*
X81959034Y-62087902D01*
X84527249Y-62087902D01*
X84760533Y-62041499D01*
X84958301Y-61909354D01*
X85166940Y-61700716D01*
X87625884Y-61700716D01*
X87859168Y-61654313D01*
X88056936Y-61522168D01*
X88365115Y-61213989D01*
X89044789Y-61213989D01*
X89278073Y-61167586D01*
X89475841Y-61035441D01*
X89513184Y-60998098D01*
X93109441Y-60998098D01*
X93342725Y-60951695D01*
X93540493Y-60819550D01*
X94263643Y-60096400D01*
X105298448Y-60096400D01*
X105298448Y-61823600D01*
X105333870Y-62011853D01*
X105445128Y-62184753D01*
X105614888Y-62300745D01*
X105816400Y-62341552D01*
X105952147Y-62341552D01*
X105710132Y-62503261D01*
X105412807Y-62948240D01*
X105308400Y-63473129D01*
X105308400Y-63526871D01*
X105412807Y-64051760D01*
X105710132Y-64496739D01*
X106155111Y-64794064D01*
X106680000Y-64898471D01*
X107204889Y-64794064D01*
X107649868Y-64496739D01*
X107947193Y-64051760D01*
X108051600Y-63526871D01*
X108051600Y-63473129D01*
X107947193Y-62948240D01*
X107649868Y-62503261D01*
X107407853Y-62341552D01*
X107543600Y-62341552D01*
X107731853Y-62306130D01*
X107904753Y-62194872D01*
X108020745Y-62025112D01*
X108061552Y-61823600D01*
X108061552Y-60096400D01*
X108026130Y-59908147D01*
X107914872Y-59735247D01*
X107745112Y-59619255D01*
X107543600Y-59578448D01*
X105816400Y-59578448D01*
X105628147Y-59613870D01*
X105455247Y-59725128D01*
X105339255Y-59894888D01*
X105298448Y-60096400D01*
X94263643Y-60096400D01*
X99616440Y-54743604D01*
X99747488Y-54833145D01*
X99949000Y-54873952D01*
X101981000Y-54873952D01*
X102169253Y-54838530D01*
X102342153Y-54727272D01*
X102458145Y-54557512D01*
X102498952Y-54356000D01*
X102498952Y-52324000D01*
X102463530Y-52135747D01*
X102352272Y-51962847D01*
X102182512Y-51846855D01*
X101981000Y-51806048D01*
X100202999Y-51806048D01*
X100202999Y-50821017D01*
X100440111Y-50979450D01*
X100965000Y-51083857D01*
X101489889Y-50979450D01*
X101934868Y-50682125D01*
X102232193Y-50237146D01*
X102336600Y-49712257D01*
X102336600Y-49347743D01*
X102232193Y-48822854D01*
X101934868Y-48377875D01*
X101489889Y-48080550D01*
X100965000Y-47976143D01*
X100746748Y-48019556D01*
X101396052Y-47370252D01*
X101528197Y-47172484D01*
X101534765Y-47139465D01*
X101934868Y-46872125D01*
X102232193Y-46427146D01*
X102336600Y-45902257D01*
X102336600Y-45537743D01*
X102232193Y-45012854D01*
X101940965Y-44577000D01*
X109220000Y-44577000D01*
X109266159Y-44568315D01*
X109308553Y-44541035D01*
X109336994Y-44499410D01*
X109347000Y-44450000D01*
X109347000Y-37592000D01*
X110363000Y-37592000D01*
X110363000Y-86233000D01*
X110363000Y-86233000D01*
G37*
X110363000Y-86233000D02*
X109347000Y-86233000D01*
X109347000Y-79375000D01*
X109338315Y-79328841D01*
X109311035Y-79286447D01*
X109269410Y-79258006D01*
X109220000Y-79248000D01*
X101600000Y-79248000D01*
X101553841Y-79256685D01*
X101511447Y-79283965D01*
X101483006Y-79325590D01*
X101473000Y-79375000D01*
X101473000Y-86233000D01*
X62357000Y-86233000D01*
X62357000Y-79375000D01*
X62348315Y-79328841D01*
X62321035Y-79286447D01*
X62279410Y-79258006D01*
X62230000Y-79248000D01*
X54737000Y-79248000D01*
X54737000Y-75289027D01*
X56965032Y-75289027D01*
X57213179Y-75818490D01*
X57517050Y-76095852D01*
X57368147Y-76123870D01*
X57195247Y-76235128D01*
X57079255Y-76404888D01*
X57038448Y-76606400D01*
X57038448Y-78333600D01*
X57073870Y-78521853D01*
X57185128Y-78694753D01*
X57354888Y-78810745D01*
X57556400Y-78851552D01*
X59283600Y-78851552D01*
X59471853Y-78816130D01*
X59644753Y-78704872D01*
X59760745Y-78535112D01*
X59801552Y-78333600D01*
X59801552Y-76606400D01*
X59766130Y-76418147D01*
X59654872Y-76245247D01*
X59485112Y-76129255D01*
X59322444Y-76096314D01*
X59626821Y-75818490D01*
X59874968Y-75289027D01*
X59754469Y-75057000D01*
X58547000Y-75057000D01*
X58547000Y-75077000D01*
X58293000Y-75077000D01*
X58293000Y-75057000D01*
X57085531Y-75057000D01*
X56965032Y-75289027D01*
X54737000Y-75289027D01*
X54737000Y-74570973D01*
X56965032Y-74570973D01*
X57085531Y-74803000D01*
X58293000Y-74803000D01*
X58293000Y-73596183D01*
X58547000Y-73596183D01*
X58547000Y-74803000D01*
X59754469Y-74803000D01*
X59874968Y-74570973D01*
X59626821Y-74041510D01*
X59248817Y-73696482D01*
X91249357Y-73696482D01*
X91374767Y-73999998D01*
X91606781Y-74232417D01*
X91607127Y-74232561D01*
X91745281Y-74370714D01*
X91745283Y-74370717D01*
X92011500Y-74636933D01*
X92011500Y-75057000D01*
X92074337Y-75372906D01*
X92253283Y-75640717D01*
X92646500Y-76033933D01*
X92646500Y-76834280D01*
X92646357Y-76998482D01*
X92771767Y-77301998D01*
X93003781Y-77534417D01*
X93307077Y-77660357D01*
X93635482Y-77660643D01*
X93938998Y-77535233D01*
X94171417Y-77303219D01*
X94297357Y-76999923D01*
X94297643Y-76671518D01*
X94297500Y-76671172D01*
X94297500Y-75692005D01*
X94297501Y-75692000D01*
X94234663Y-75376095D01*
X94176486Y-75289027D01*
X94055717Y-75108283D01*
X94055714Y-75108281D01*
X93662500Y-74715066D01*
X93662500Y-74295000D01*
X93599663Y-73979095D01*
X93420717Y-73711283D01*
X93420714Y-73711281D01*
X92912717Y-73203283D01*
X92912714Y-73203281D01*
X92770916Y-73061482D01*
X94043357Y-73061482D01*
X94168767Y-73364998D01*
X94400781Y-73597417D01*
X94704077Y-73723357D01*
X94832365Y-73723469D01*
X95059468Y-73950572D01*
X95059357Y-74077482D01*
X95184767Y-74380998D01*
X95416781Y-74613417D01*
X95720077Y-74739357D01*
X96048482Y-74739643D01*
X96351998Y-74614233D01*
X96584417Y-74382219D01*
X96710357Y-74078923D01*
X96710643Y-73750518D01*
X96585233Y-73447002D01*
X96353219Y-73214583D01*
X96049923Y-73088643D01*
X95921635Y-73088531D01*
X95694532Y-72861428D01*
X95694643Y-72734518D01*
X95569233Y-72431002D01*
X95337219Y-72198583D01*
X95033923Y-72072643D01*
X94705518Y-72072357D01*
X94402002Y-72197767D01*
X94169583Y-72429781D01*
X94043643Y-72733077D01*
X94043357Y-73061482D01*
X92770916Y-73061482D01*
X92658717Y-72949283D01*
X92543219Y-72833583D01*
X92239923Y-72707643D01*
X91911518Y-72707357D01*
X91608002Y-72832767D01*
X91375583Y-73064781D01*
X91249643Y-73368077D01*
X91249357Y-73696482D01*
X59248817Y-73696482D01*
X59194947Y-73647312D01*
X58779026Y-73475042D01*
X58547000Y-73596183D01*
X58293000Y-73596183D01*
X58060974Y-73475042D01*
X57645053Y-73647312D01*
X57213179Y-74041510D01*
X56965032Y-74570973D01*
X54737000Y-74570973D01*
X54737000Y-66399026D01*
X56812642Y-66399026D01*
X56815291Y-66414791D01*
X57069268Y-66942036D01*
X57505680Y-67331954D01*
X58058087Y-67525184D01*
X58293000Y-67380924D01*
X58293000Y-66167000D01*
X56933783Y-66167000D01*
X56812642Y-66399026D01*
X54737000Y-66399026D01*
X54737000Y-65680974D01*
X56812642Y-65680974D01*
X56933783Y-65913000D01*
X58293000Y-65913000D01*
X58293000Y-65893000D01*
X58547000Y-65893000D01*
X58547000Y-65913000D01*
X58567000Y-65913000D01*
X58567000Y-66167000D01*
X58547000Y-66167000D01*
X58547000Y-67380924D01*
X58781913Y-67525184D01*
X59334320Y-67331954D01*
X59651890Y-67048217D01*
X59651890Y-71183490D01*
X59698293Y-71416774D01*
X59830438Y-71614542D01*
X59880468Y-71664572D01*
X59880357Y-71791482D01*
X60005767Y-72094998D01*
X60237781Y-72327417D01*
X60541077Y-72453357D01*
X60869482Y-72453643D01*
X61172998Y-72328233D01*
X61405417Y-72096219D01*
X61531357Y-71792923D01*
X61531643Y-71464518D01*
X61406233Y-71161002D01*
X61174219Y-70928583D01*
X60871090Y-70802712D01*
X60871090Y-69820143D01*
X101981000Y-69820143D01*
X101981000Y-69879857D01*
X102097008Y-70463067D01*
X102427369Y-70957488D01*
X102921790Y-71287849D01*
X103505000Y-71403857D01*
X104088210Y-71287849D01*
X104534335Y-70989759D01*
X104546470Y-71054253D01*
X104657728Y-71227153D01*
X104827488Y-71343145D01*
X105029000Y-71383952D01*
X107061000Y-71383952D01*
X107249253Y-71348530D01*
X107422153Y-71237272D01*
X107538145Y-71067512D01*
X107578952Y-70866000D01*
X107578952Y-68834000D01*
X107543530Y-68645747D01*
X107432272Y-68472847D01*
X107262512Y-68356855D01*
X107061000Y-68316048D01*
X105029000Y-68316048D01*
X104840747Y-68351470D01*
X104667847Y-68462728D01*
X104551855Y-68632488D01*
X104535898Y-68711286D01*
X104088210Y-68412151D01*
X103505000Y-68296143D01*
X102921790Y-68412151D01*
X102427369Y-68742512D01*
X102097008Y-69236933D01*
X101981000Y-69820143D01*
X60871090Y-69820143D01*
X60871090Y-67473482D01*
X63055357Y-67473482D01*
X63180767Y-67776998D01*
X63412781Y-68009417D01*
X63716077Y-68135357D01*
X63844364Y-68135469D01*
X64579468Y-68870572D01*
X64579357Y-68997482D01*
X64704767Y-69300998D01*
X64936781Y-69533417D01*
X65240077Y-69659357D01*
X65568482Y-69659643D01*
X65871998Y-69534233D01*
X66104417Y-69302219D01*
X66230357Y-68998923D01*
X66230643Y-68670518D01*
X66105233Y-68367002D01*
X65873219Y-68134583D01*
X65569923Y-68008643D01*
X65441636Y-68008531D01*
X64706532Y-67273428D01*
X64706643Y-67146518D01*
X64581233Y-66843002D01*
X64349219Y-66610583D01*
X64045923Y-66484643D01*
X63717518Y-66484357D01*
X63414002Y-66609767D01*
X63181583Y-66841781D01*
X63055643Y-67145077D01*
X63055357Y-67473482D01*
X60871090Y-67473482D01*
X60871090Y-64706534D01*
X60996482Y-64706643D01*
X61299998Y-64581233D01*
X61305510Y-64575731D01*
X61568364Y-64684878D01*
X61896769Y-64685164D01*
X62098894Y-64601648D01*
X62355431Y-64708172D01*
X62683836Y-64708458D01*
X62916575Y-64612292D01*
X63142840Y-64706246D01*
X63471245Y-64706532D01*
X63774761Y-64581122D01*
X64007180Y-64349108D01*
X64133120Y-64045812D01*
X64133406Y-63717407D01*
X64007996Y-63413891D01*
X63855600Y-63261229D01*
X63855600Y-63168879D01*
X63945417Y-63079219D01*
X64071357Y-62775923D01*
X64071643Y-62447518D01*
X63946233Y-62144002D01*
X63714219Y-61911583D01*
X63410923Y-61785643D01*
X63082518Y-61785357D01*
X62845754Y-61883186D01*
X62610846Y-61785643D01*
X62282441Y-61785357D01*
X62052025Y-61880563D01*
X61823433Y-61785643D01*
X61495028Y-61785357D01*
X61442600Y-61807020D01*
X61442600Y-58342879D01*
X61532417Y-58253219D01*
X61658357Y-57949923D01*
X61658643Y-57621518D01*
X61533233Y-57318002D01*
X61442600Y-57227211D01*
X61442600Y-56922797D01*
X61807678Y-56557719D01*
X61934588Y-56557830D01*
X62238104Y-56432420D01*
X62470523Y-56200406D01*
X62596463Y-55897110D01*
X62596749Y-55568705D01*
X62471339Y-55265189D01*
X62239325Y-55032770D01*
X62152587Y-54996753D01*
X62315998Y-54929233D01*
X62548417Y-54697219D01*
X62674357Y-54393923D01*
X62674643Y-54065518D01*
X62549233Y-53762002D01*
X62458600Y-53671211D01*
X62458600Y-53507917D01*
X62539197Y-53387296D01*
X62548046Y-53342807D01*
X62558580Y-53289853D01*
X62675417Y-53173219D01*
X62801357Y-52869923D01*
X62801643Y-52541518D01*
X62676233Y-52238002D01*
X62444219Y-52005583D01*
X62140923Y-51879643D01*
X61964713Y-51879490D01*
X62242688Y-51574947D01*
X62414958Y-51159026D01*
X62293817Y-50927000D01*
X61087000Y-50927000D01*
X61087000Y-52134469D01*
X61279124Y-52234245D01*
X61276583Y-52236781D01*
X61150643Y-52540077D01*
X61150357Y-52868482D01*
X61265856Y-53148011D01*
X61239400Y-53281012D01*
X61239400Y-53671121D01*
X61149583Y-53760781D01*
X61023643Y-54064077D01*
X61023357Y-54392482D01*
X61148767Y-54695998D01*
X61380781Y-54928417D01*
X61467519Y-54964434D01*
X61304108Y-55031954D01*
X61071689Y-55263968D01*
X60945749Y-55567264D01*
X60945637Y-55695552D01*
X60401948Y-56239241D01*
X60269803Y-56437009D01*
X60223400Y-56670293D01*
X60223400Y-57227121D01*
X60133583Y-57316781D01*
X60007643Y-57620077D01*
X60007357Y-57948482D01*
X60132767Y-58251998D01*
X60223400Y-58342789D01*
X60223400Y-61787948D01*
X60098008Y-61787839D01*
X59948701Y-61849531D01*
X59953952Y-61823600D01*
X59953952Y-60096400D01*
X59918530Y-59908147D01*
X59807272Y-59735247D01*
X59637512Y-59619255D01*
X59436000Y-59578448D01*
X57404000Y-59578448D01*
X57215747Y-59613870D01*
X57042847Y-59725128D01*
X56926855Y-59894888D01*
X56886048Y-60096400D01*
X56886048Y-61823600D01*
X56921470Y-62011853D01*
X57032728Y-62184753D01*
X57202488Y-62300745D01*
X57404000Y-62341552D01*
X57550105Y-62341552D01*
X57267875Y-62530132D01*
X56970550Y-62975111D01*
X56866143Y-63500000D01*
X56970550Y-64024889D01*
X57267875Y-64469868D01*
X57622856Y-64707058D01*
X57505680Y-64748046D01*
X57069268Y-65137964D01*
X56815291Y-65665209D01*
X56812642Y-65680974D01*
X54737000Y-65680974D01*
X54737000Y-44577000D01*
X57132474Y-44577000D01*
X57079255Y-44654888D01*
X57038448Y-44856400D01*
X57038448Y-46583600D01*
X57073870Y-46771853D01*
X57185128Y-46944753D01*
X57354888Y-47060745D01*
X57556400Y-47101552D01*
X57705491Y-47101552D01*
X57423261Y-47290132D01*
X57125936Y-47735111D01*
X57021529Y-48260000D01*
X57125936Y-48784889D01*
X57423261Y-49229868D01*
X57868240Y-49527193D01*
X57882352Y-49530000D01*
X57868240Y-49532807D01*
X57423261Y-49830132D01*
X57125936Y-50275111D01*
X57021529Y-50800000D01*
X57125936Y-51324889D01*
X57423261Y-51769868D01*
X57868240Y-52067193D01*
X58393129Y-52171600D01*
X58446871Y-52171600D01*
X58971760Y-52067193D01*
X59416739Y-51769868D01*
X59627438Y-51454534D01*
X59677312Y-51574947D01*
X60071510Y-52006821D01*
X60600973Y-52254968D01*
X60833000Y-52134469D01*
X60833000Y-50927000D01*
X60813000Y-50927000D01*
X60813000Y-50673000D01*
X60833000Y-50673000D01*
X60833000Y-50653000D01*
X61087000Y-50653000D01*
X61087000Y-50673000D01*
X62293817Y-50673000D01*
X62414958Y-50440974D01*
X62242688Y-50025053D01*
X61848490Y-49593179D01*
X61592537Y-49473220D01*
X61956739Y-49229868D01*
X62254064Y-48784889D01*
X62354173Y-48281606D01*
X62547500Y-48474933D01*
X62547500Y-50800000D01*
X62610337Y-51115906D01*
X62789283Y-51383717D01*
X64694060Y-53288494D01*
X64809781Y-53404417D01*
X65113077Y-53530357D01*
X65277998Y-53530501D01*
X65278002Y-53530501D01*
X65441482Y-53530643D01*
X65441828Y-53530500D01*
X68949360Y-53530500D01*
X73660586Y-58241725D01*
X73660588Y-58241728D01*
X73977293Y-58558432D01*
X74048566Y-58629829D01*
X73724995Y-58953400D01*
X69678326Y-58953400D01*
X69539375Y-58814449D01*
X69341607Y-58682304D01*
X69108323Y-58635901D01*
X68389499Y-58635901D01*
X68262622Y-58661138D01*
X68262643Y-58637518D01*
X68137233Y-58334002D01*
X68046600Y-58243211D01*
X68046600Y-58166000D01*
X68000197Y-57932716D01*
X67868052Y-57734948D01*
X66484532Y-56351428D01*
X66484643Y-56224518D01*
X66359233Y-55921002D01*
X66127219Y-55688583D01*
X65823923Y-55562643D01*
X65495518Y-55562357D01*
X65192002Y-55687767D01*
X64959583Y-55919781D01*
X64833643Y-56223077D01*
X64833357Y-56551482D01*
X64958767Y-56854998D01*
X65190781Y-57087417D01*
X65494077Y-57213357D01*
X65622365Y-57213469D01*
X66739632Y-58330736D01*
X66737583Y-58332781D01*
X66611643Y-58636077D01*
X66611357Y-58964482D01*
X66736767Y-59267998D01*
X66968781Y-59500417D01*
X67246453Y-59615717D01*
X67246357Y-59726482D01*
X67371767Y-60029998D01*
X67603781Y-60262417D01*
X67907077Y-60388357D01*
X68235482Y-60388643D01*
X68249190Y-60382979D01*
X68260767Y-60410998D01*
X68492781Y-60643417D01*
X68796077Y-60769357D01*
X68934745Y-60769478D01*
X69022767Y-60982508D01*
X69254781Y-61214927D01*
X69424497Y-61285399D01*
X68289428Y-62420468D01*
X68251764Y-62420435D01*
X68262357Y-62394923D01*
X68262643Y-62066518D01*
X68137233Y-61763002D01*
X67905219Y-61530583D01*
X67601923Y-61404643D01*
X67273518Y-61404357D01*
X66970002Y-61529767D01*
X66737583Y-61761781D01*
X66611643Y-62065077D01*
X66611357Y-62393482D01*
X66736767Y-62696998D01*
X66827400Y-62787789D01*
X66827400Y-63627000D01*
X66873803Y-63860284D01*
X67005948Y-64058052D01*
X68783948Y-65836052D01*
X68981716Y-65968197D01*
X69215000Y-66014600D01*
X72755178Y-66014600D01*
X72707643Y-66129077D01*
X72707357Y-66457482D01*
X72832767Y-66760998D01*
X73064781Y-66993417D01*
X73304400Y-67092916D01*
X73304400Y-67895121D01*
X73214583Y-67984781D01*
X73088643Y-68288077D01*
X73088357Y-68616482D01*
X73213767Y-68919998D01*
X73445781Y-69152417D01*
X73749077Y-69278357D01*
X74077482Y-69278643D01*
X74380998Y-69153233D01*
X74613417Y-68921219D01*
X74739357Y-68617923D01*
X74739643Y-68289518D01*
X74614233Y-67986002D01*
X74523600Y-67895211D01*
X74523600Y-67157600D01*
X76469738Y-67157600D01*
X76515767Y-67268998D01*
X76747781Y-67501417D01*
X77051077Y-67627357D01*
X77379482Y-67627643D01*
X77682998Y-67502233D01*
X77915417Y-67270219D01*
X78012196Y-67037151D01*
X78014482Y-67037153D01*
X78317998Y-66911743D01*
X78550417Y-66679729D01*
X78676357Y-66376433D01*
X78676643Y-66048028D01*
X78551233Y-65744512D01*
X78319219Y-65512093D01*
X78015923Y-65386153D01*
X77711444Y-65385888D01*
X77615991Y-65366901D01*
X74358534Y-65366901D01*
X74358643Y-65241518D01*
X74233233Y-64938002D01*
X74192324Y-64897021D01*
X74359417Y-64730219D01*
X74485357Y-64426923D01*
X74485643Y-64098518D01*
X74360233Y-63795002D01*
X74128219Y-63562583D01*
X73824923Y-63436643D01*
X73496518Y-63436357D01*
X73193002Y-63561767D01*
X73102211Y-63652400D01*
X72185879Y-63652400D01*
X72096219Y-63562583D01*
X71792923Y-63436643D01*
X71464518Y-63436357D01*
X71161002Y-63561767D01*
X70928583Y-63793781D01*
X70802643Y-64097077D01*
X70802357Y-64425482D01*
X70927767Y-64728998D01*
X70994053Y-64795400D01*
X69467504Y-64795400D01*
X68669405Y-63997301D01*
X68761011Y-63959450D01*
X68873781Y-64072417D01*
X69177077Y-64198357D01*
X69505482Y-64198643D01*
X69808998Y-64073233D01*
X70041417Y-63841219D01*
X70167357Y-63537923D01*
X70167469Y-63409635D01*
X71520307Y-62056798D01*
X74440659Y-62056798D01*
X74673943Y-62010395D01*
X74871711Y-61878250D01*
X75023498Y-61726463D01*
X75146759Y-61849940D01*
X75450055Y-61975880D01*
X75616589Y-61976025D01*
X75647556Y-61996716D01*
X75699193Y-62031219D01*
X75932477Y-62077622D01*
X80526078Y-62077622D01*
X80759362Y-62031219D01*
X80957130Y-61899074D01*
X81084727Y-61771477D01*
X81173316Y-61860220D01*
X81476612Y-61986160D01*
X81643146Y-61986305D01*
X81665738Y-62001400D01*
X81725750Y-62041499D01*
X81959034Y-62087902D01*
X84527249Y-62087902D01*
X84760533Y-62041499D01*
X84958301Y-61909354D01*
X85166940Y-61700716D01*
X87625884Y-61700716D01*
X87859168Y-61654313D01*
X88056936Y-61522168D01*
X88365115Y-61213989D01*
X89044789Y-61213989D01*
X89278073Y-61167586D01*
X89475841Y-61035441D01*
X89513184Y-60998098D01*
X93109441Y-60998098D01*
X93342725Y-60951695D01*
X93540493Y-60819550D01*
X94263643Y-60096400D01*
X105298448Y-60096400D01*
X105298448Y-61823600D01*
X105333870Y-62011853D01*
X105445128Y-62184753D01*
X105614888Y-62300745D01*
X105816400Y-62341552D01*
X105952147Y-62341552D01*
X105710132Y-62503261D01*
X105412807Y-62948240D01*
X105308400Y-63473129D01*
X105308400Y-63526871D01*
X105412807Y-64051760D01*
X105710132Y-64496739D01*
X106155111Y-64794064D01*
X106680000Y-64898471D01*
X107204889Y-64794064D01*
X107649868Y-64496739D01*
X107947193Y-64051760D01*
X108051600Y-63526871D01*
X108051600Y-63473129D01*
X107947193Y-62948240D01*
X107649868Y-62503261D01*
X107407853Y-62341552D01*
X107543600Y-62341552D01*
X107731853Y-62306130D01*
X107904753Y-62194872D01*
X108020745Y-62025112D01*
X108061552Y-61823600D01*
X108061552Y-60096400D01*
X108026130Y-59908147D01*
X107914872Y-59735247D01*
X107745112Y-59619255D01*
X107543600Y-59578448D01*
X105816400Y-59578448D01*
X105628147Y-59613870D01*
X105455247Y-59725128D01*
X105339255Y-59894888D01*
X105298448Y-60096400D01*
X94263643Y-60096400D01*
X99616440Y-54743604D01*
X99747488Y-54833145D01*
X99949000Y-54873952D01*
X101981000Y-54873952D01*
X102169253Y-54838530D01*
X102342153Y-54727272D01*
X102458145Y-54557512D01*
X102498952Y-54356000D01*
X102498952Y-52324000D01*
X102463530Y-52135747D01*
X102352272Y-51962847D01*
X102182512Y-51846855D01*
X101981000Y-51806048D01*
X100202999Y-51806048D01*
X100202999Y-50821017D01*
X100440111Y-50979450D01*
X100965000Y-51083857D01*
X101489889Y-50979450D01*
X101934868Y-50682125D01*
X102232193Y-50237146D01*
X102336600Y-49712257D01*
X102336600Y-49347743D01*
X102232193Y-48822854D01*
X101934868Y-48377875D01*
X101489889Y-48080550D01*
X100965000Y-47976143D01*
X100746748Y-48019556D01*
X101396052Y-47370252D01*
X101528197Y-47172484D01*
X101534765Y-47139465D01*
X101934868Y-46872125D01*
X102232193Y-46427146D01*
X102336600Y-45902257D01*
X102336600Y-45537743D01*
X102232193Y-45012854D01*
X101940965Y-44577000D01*
X109220000Y-44577000D01*
X109266159Y-44568315D01*
X109308553Y-44541035D01*
X109336994Y-44499410D01*
X109347000Y-44450000D01*
X109347000Y-37592000D01*
X110363000Y-37592000D01*
X110363000Y-86233000D01*
G36*
X101473000Y-44267191D02*
X100965000Y-44166143D01*
X100440111Y-44270550D01*
X99995132Y-44567875D01*
X99697807Y-45012854D01*
X99695000Y-45026966D01*
X99692193Y-45012854D01*
X99394868Y-44567875D01*
X98949889Y-44270550D01*
X98425000Y-44166143D01*
X97900111Y-44270550D01*
X97455132Y-44567875D01*
X97157807Y-45012854D01*
X97155000Y-45026966D01*
X97152193Y-45012854D01*
X96854868Y-44567875D01*
X96409889Y-44270550D01*
X95885000Y-44166143D01*
X95360111Y-44270550D01*
X94915132Y-44567875D01*
X94617807Y-45012854D01*
X94615000Y-45026966D01*
X94612193Y-45012854D01*
X94314868Y-44567875D01*
X93869889Y-44270550D01*
X93345000Y-44166143D01*
X92820111Y-44270550D01*
X92375132Y-44567875D01*
X92077807Y-45012854D01*
X92075000Y-45026966D01*
X92072193Y-45012854D01*
X91774868Y-44567875D01*
X91329889Y-44270550D01*
X90805000Y-44166143D01*
X90280111Y-44270550D01*
X89835132Y-44567875D01*
X89537807Y-45012854D01*
X89535000Y-45026966D01*
X89532193Y-45012854D01*
X89234868Y-44567875D01*
X88789889Y-44270550D01*
X88620600Y-44236876D01*
X88620600Y-43610879D01*
X88710417Y-43521219D01*
X88836357Y-43217923D01*
X88836643Y-42889518D01*
X88711233Y-42586002D01*
X88479219Y-42353583D01*
X88175923Y-42227643D01*
X87847518Y-42227357D01*
X87544002Y-42352767D01*
X87311583Y-42584781D01*
X87185643Y-42888077D01*
X87185357Y-43216482D01*
X87310767Y-43519998D01*
X87401400Y-43610789D01*
X87401400Y-44496869D01*
X87295132Y-44567875D01*
X86997807Y-45012854D01*
X86995000Y-45026966D01*
X86992193Y-45012854D01*
X86694868Y-44567875D01*
X86249889Y-44270550D01*
X85725000Y-44166143D01*
X85275132Y-44255627D01*
X84784452Y-43764948D01*
X84586684Y-43632803D01*
X84353400Y-43586400D01*
X81329879Y-43586400D01*
X81240219Y-43496583D01*
X80936923Y-43370643D01*
X80608518Y-43370357D01*
X80305002Y-43495767D01*
X80072583Y-43727781D01*
X79946643Y-44031077D01*
X79946357Y-44359482D01*
X80071767Y-44662998D01*
X80303781Y-44895417D01*
X80607077Y-45021357D01*
X80935482Y-45021643D01*
X81238998Y-44896233D01*
X81329789Y-44805600D01*
X81803448Y-44805600D01*
X81803448Y-46736000D01*
X81838870Y-46924253D01*
X81950128Y-47097153D01*
X82119888Y-47213145D01*
X82301456Y-47249913D01*
X82195145Y-47320948D01*
X79959948Y-49556146D01*
X79827803Y-49753914D01*
X79781400Y-49987198D01*
X79781400Y-53060207D01*
X79539912Y-52959932D01*
X79211507Y-52959646D01*
X78907991Y-53085056D01*
X78675572Y-53317070D01*
X78549632Y-53620366D01*
X78549346Y-53948771D01*
X78586457Y-54038587D01*
X78322518Y-54038357D01*
X78019002Y-54163767D01*
X77982773Y-54199933D01*
X77723272Y-54092178D01*
X77495430Y-54091980D01*
X77494064Y-54085111D01*
X77196739Y-53640132D01*
X76751760Y-53342807D01*
X76737648Y-53340000D01*
X76751760Y-53337193D01*
X77196739Y-53039868D01*
X77494064Y-52594889D01*
X77598471Y-52070000D01*
X77494064Y-51545111D01*
X77196739Y-51100132D01*
X76751760Y-50802807D01*
X76226871Y-50698400D01*
X76173129Y-50698400D01*
X75770577Y-50778473D01*
X74677997Y-49685893D01*
X74480229Y-49553748D01*
X74246945Y-49507345D01*
X74241465Y-49507345D01*
X74656739Y-49229868D01*
X74930000Y-48820903D01*
X75203261Y-49229868D01*
X75648240Y-49527193D01*
X76173129Y-49631600D01*
X76226871Y-49631600D01*
X76751760Y-49527193D01*
X77196739Y-49229868D01*
X77494064Y-48784889D01*
X77598471Y-48260000D01*
X77494064Y-47735111D01*
X77196739Y-47290132D01*
X76751760Y-46992807D01*
X76737648Y-46990000D01*
X76751760Y-46987193D01*
X77196739Y-46689868D01*
X77494064Y-46244889D01*
X77598471Y-45720000D01*
X77494064Y-45195111D01*
X77196739Y-44750132D01*
X76751760Y-44452807D01*
X76226871Y-44348400D01*
X76173129Y-44348400D01*
X75648240Y-44452807D01*
X75203261Y-44750132D01*
X75041552Y-44992147D01*
X75041552Y-44856400D01*
X75006130Y-44668147D01*
X74894872Y-44495247D01*
X74725112Y-44379255D01*
X74523600Y-44338448D01*
X74269600Y-44338448D01*
X74269600Y-43978777D01*
X74348223Y-43789433D01*
X74348509Y-43461028D01*
X74223099Y-43157512D01*
X73991085Y-42925093D01*
X73687789Y-42799153D01*
X73359384Y-42798867D01*
X73055868Y-42924277D01*
X72823449Y-43156291D01*
X72697509Y-43459587D01*
X72697223Y-43787992D01*
X72822633Y-44091508D01*
X73050400Y-44319673D01*
X73050400Y-44338448D01*
X72796400Y-44338448D01*
X72608147Y-44373870D01*
X72435247Y-44485128D01*
X72319255Y-44654888D01*
X72278448Y-44856400D01*
X72278448Y-46583600D01*
X72313870Y-46771853D01*
X72425128Y-46944753D01*
X72594888Y-47060745D01*
X72796400Y-47101552D01*
X72834500Y-47101552D01*
X72834500Y-47175714D01*
X72663261Y-47290132D01*
X72365936Y-47735111D01*
X72261529Y-48260000D01*
X72363478Y-48772534D01*
X71717595Y-48772534D01*
X71627935Y-48682717D01*
X71324639Y-48556777D01*
X70996234Y-48556491D01*
X70692718Y-48681901D01*
X70460299Y-48913915D01*
X70334359Y-49217211D01*
X70334073Y-49545616D01*
X70459483Y-49849132D01*
X70637449Y-50027409D01*
X70637236Y-50272328D01*
X70762646Y-50575844D01*
X70994660Y-50808263D01*
X71297956Y-50934203D01*
X71626361Y-50934489D01*
X71929877Y-50809079D01*
X72012555Y-50726545D01*
X72603990Y-50726545D01*
X72435247Y-50835128D01*
X72319255Y-51004888D01*
X72278448Y-51206400D01*
X72278448Y-52933600D01*
X72313870Y-53121853D01*
X72425128Y-53294753D01*
X72594888Y-53410745D01*
X72796400Y-53451552D01*
X72834500Y-53451552D01*
X72834500Y-53525714D01*
X72663261Y-53640132D01*
X72365936Y-54085111D01*
X72278485Y-54524757D01*
X69875011Y-52121283D01*
X69607200Y-51942337D01*
X69291294Y-51879500D01*
X65619934Y-51879500D01*
X64198500Y-50458066D01*
X64198500Y-49593445D01*
X64425482Y-49593643D01*
X64728998Y-49468233D01*
X64961417Y-49236219D01*
X65087357Y-48932923D01*
X65087643Y-48604518D01*
X64962233Y-48301002D01*
X64871600Y-48210211D01*
X64871600Y-47039879D01*
X64961417Y-46950219D01*
X65087357Y-46646923D01*
X65087643Y-46318518D01*
X64962233Y-46015002D01*
X64730219Y-45782583D01*
X64426923Y-45656643D01*
X64098518Y-45656357D01*
X63795002Y-45781767D01*
X63562583Y-46013781D01*
X63436643Y-46317077D01*
X63436357Y-46645482D01*
X63561767Y-46948998D01*
X63652400Y-47039789D01*
X63652400Y-47244967D01*
X62320139Y-45912706D01*
X62358471Y-45720000D01*
X62254064Y-45195111D01*
X61956739Y-44750132D01*
X61697628Y-44577000D01*
X62230000Y-44577000D01*
X62276159Y-44568315D01*
X62318553Y-44541035D01*
X62346994Y-44499410D01*
X62357000Y-44450000D01*
X62357000Y-37592000D01*
X101473000Y-37592000D01*
X101473000Y-44267191D01*
X101473000Y-44267191D01*
G37*
X101473000Y-44267191D02*
X100965000Y-44166143D01*
X100440111Y-44270550D01*
X99995132Y-44567875D01*
X99697807Y-45012854D01*
X99695000Y-45026966D01*
X99692193Y-45012854D01*
X99394868Y-44567875D01*
X98949889Y-44270550D01*
X98425000Y-44166143D01*
X97900111Y-44270550D01*
X97455132Y-44567875D01*
X97157807Y-45012854D01*
X97155000Y-45026966D01*
X97152193Y-45012854D01*
X96854868Y-44567875D01*
X96409889Y-44270550D01*
X95885000Y-44166143D01*
X95360111Y-44270550D01*
X94915132Y-44567875D01*
X94617807Y-45012854D01*
X94615000Y-45026966D01*
X94612193Y-45012854D01*
X94314868Y-44567875D01*
X93869889Y-44270550D01*
X93345000Y-44166143D01*
X92820111Y-44270550D01*
X92375132Y-44567875D01*
X92077807Y-45012854D01*
X92075000Y-45026966D01*
X92072193Y-45012854D01*
X91774868Y-44567875D01*
X91329889Y-44270550D01*
X90805000Y-44166143D01*
X90280111Y-44270550D01*
X89835132Y-44567875D01*
X89537807Y-45012854D01*
X89535000Y-45026966D01*
X89532193Y-45012854D01*
X89234868Y-44567875D01*
X88789889Y-44270550D01*
X88620600Y-44236876D01*
X88620600Y-43610879D01*
X88710417Y-43521219D01*
X88836357Y-43217923D01*
X88836643Y-42889518D01*
X88711233Y-42586002D01*
X88479219Y-42353583D01*
X88175923Y-42227643D01*
X87847518Y-42227357D01*
X87544002Y-42352767D01*
X87311583Y-42584781D01*
X87185643Y-42888077D01*
X87185357Y-43216482D01*
X87310767Y-43519998D01*
X87401400Y-43610789D01*
X87401400Y-44496869D01*
X87295132Y-44567875D01*
X86997807Y-45012854D01*
X86995000Y-45026966D01*
X86992193Y-45012854D01*
X86694868Y-44567875D01*
X86249889Y-44270550D01*
X85725000Y-44166143D01*
X85275132Y-44255627D01*
X84784452Y-43764948D01*
X84586684Y-43632803D01*
X84353400Y-43586400D01*
X81329879Y-43586400D01*
X81240219Y-43496583D01*
X80936923Y-43370643D01*
X80608518Y-43370357D01*
X80305002Y-43495767D01*
X80072583Y-43727781D01*
X79946643Y-44031077D01*
X79946357Y-44359482D01*
X80071767Y-44662998D01*
X80303781Y-44895417D01*
X80607077Y-45021357D01*
X80935482Y-45021643D01*
X81238998Y-44896233D01*
X81329789Y-44805600D01*
X81803448Y-44805600D01*
X81803448Y-46736000D01*
X81838870Y-46924253D01*
X81950128Y-47097153D01*
X82119888Y-47213145D01*
X82301456Y-47249913D01*
X82195145Y-47320948D01*
X79959948Y-49556146D01*
X79827803Y-49753914D01*
X79781400Y-49987198D01*
X79781400Y-53060207D01*
X79539912Y-52959932D01*
X79211507Y-52959646D01*
X78907991Y-53085056D01*
X78675572Y-53317070D01*
X78549632Y-53620366D01*
X78549346Y-53948771D01*
X78586457Y-54038587D01*
X78322518Y-54038357D01*
X78019002Y-54163767D01*
X77982773Y-54199933D01*
X77723272Y-54092178D01*
X77495430Y-54091980D01*
X77494064Y-54085111D01*
X77196739Y-53640132D01*
X76751760Y-53342807D01*
X76737648Y-53340000D01*
X76751760Y-53337193D01*
X77196739Y-53039868D01*
X77494064Y-52594889D01*
X77598471Y-52070000D01*
X77494064Y-51545111D01*
X77196739Y-51100132D01*
X76751760Y-50802807D01*
X76226871Y-50698400D01*
X76173129Y-50698400D01*
X75770577Y-50778473D01*
X74677997Y-49685893D01*
X74480229Y-49553748D01*
X74246945Y-49507345D01*
X74241465Y-49507345D01*
X74656739Y-49229868D01*
X74930000Y-48820903D01*
X75203261Y-49229868D01*
X75648240Y-49527193D01*
X76173129Y-49631600D01*
X76226871Y-49631600D01*
X76751760Y-49527193D01*
X77196739Y-49229868D01*
X77494064Y-48784889D01*
X77598471Y-48260000D01*
X77494064Y-47735111D01*
X77196739Y-47290132D01*
X76751760Y-46992807D01*
X76737648Y-46990000D01*
X76751760Y-46987193D01*
X77196739Y-46689868D01*
X77494064Y-46244889D01*
X77598471Y-45720000D01*
X77494064Y-45195111D01*
X77196739Y-44750132D01*
X76751760Y-44452807D01*
X76226871Y-44348400D01*
X76173129Y-44348400D01*
X75648240Y-44452807D01*
X75203261Y-44750132D01*
X75041552Y-44992147D01*
X75041552Y-44856400D01*
X75006130Y-44668147D01*
X74894872Y-44495247D01*
X74725112Y-44379255D01*
X74523600Y-44338448D01*
X74269600Y-44338448D01*
X74269600Y-43978777D01*
X74348223Y-43789433D01*
X74348509Y-43461028D01*
X74223099Y-43157512D01*
X73991085Y-42925093D01*
X73687789Y-42799153D01*
X73359384Y-42798867D01*
X73055868Y-42924277D01*
X72823449Y-43156291D01*
X72697509Y-43459587D01*
X72697223Y-43787992D01*
X72822633Y-44091508D01*
X73050400Y-44319673D01*
X73050400Y-44338448D01*
X72796400Y-44338448D01*
X72608147Y-44373870D01*
X72435247Y-44485128D01*
X72319255Y-44654888D01*
X72278448Y-44856400D01*
X72278448Y-46583600D01*
X72313870Y-46771853D01*
X72425128Y-46944753D01*
X72594888Y-47060745D01*
X72796400Y-47101552D01*
X72834500Y-47101552D01*
X72834500Y-47175714D01*
X72663261Y-47290132D01*
X72365936Y-47735111D01*
X72261529Y-48260000D01*
X72363478Y-48772534D01*
X71717595Y-48772534D01*
X71627935Y-48682717D01*
X71324639Y-48556777D01*
X70996234Y-48556491D01*
X70692718Y-48681901D01*
X70460299Y-48913915D01*
X70334359Y-49217211D01*
X70334073Y-49545616D01*
X70459483Y-49849132D01*
X70637449Y-50027409D01*
X70637236Y-50272328D01*
X70762646Y-50575844D01*
X70994660Y-50808263D01*
X71297956Y-50934203D01*
X71626361Y-50934489D01*
X71929877Y-50809079D01*
X72012555Y-50726545D01*
X72603990Y-50726545D01*
X72435247Y-50835128D01*
X72319255Y-51004888D01*
X72278448Y-51206400D01*
X72278448Y-52933600D01*
X72313870Y-53121853D01*
X72425128Y-53294753D01*
X72594888Y-53410745D01*
X72796400Y-53451552D01*
X72834500Y-53451552D01*
X72834500Y-53525714D01*
X72663261Y-53640132D01*
X72365936Y-54085111D01*
X72278485Y-54524757D01*
X69875011Y-52121283D01*
X69607200Y-51942337D01*
X69291294Y-51879500D01*
X65619934Y-51879500D01*
X64198500Y-50458066D01*
X64198500Y-49593445D01*
X64425482Y-49593643D01*
X64728998Y-49468233D01*
X64961417Y-49236219D01*
X65087357Y-48932923D01*
X65087643Y-48604518D01*
X64962233Y-48301002D01*
X64871600Y-48210211D01*
X64871600Y-47039879D01*
X64961417Y-46950219D01*
X65087357Y-46646923D01*
X65087643Y-46318518D01*
X64962233Y-46015002D01*
X64730219Y-45782583D01*
X64426923Y-45656643D01*
X64098518Y-45656357D01*
X63795002Y-45781767D01*
X63562583Y-46013781D01*
X63436643Y-46317077D01*
X63436357Y-46645482D01*
X63561767Y-46948998D01*
X63652400Y-47039789D01*
X63652400Y-47244967D01*
X62320139Y-45912706D01*
X62358471Y-45720000D01*
X62254064Y-45195111D01*
X61956739Y-44750132D01*
X61697628Y-44577000D01*
X62230000Y-44577000D01*
X62276159Y-44568315D01*
X62318553Y-44541035D01*
X62346994Y-44499410D01*
X62357000Y-44450000D01*
X62357000Y-37592000D01*
X101473000Y-37592000D01*
X101473000Y-44267191D01*
G36*
X97900111Y-50979450D02*
X98425000Y-51083857D01*
X98949889Y-50979450D01*
X98983799Y-50956792D01*
X98983799Y-51823929D01*
X98799791Y-51735291D01*
X98784026Y-51732642D01*
X98552000Y-51853783D01*
X98552000Y-53213000D01*
X98572000Y-53213000D01*
X98572000Y-53467000D01*
X98552000Y-53467000D01*
X98552000Y-53487000D01*
X98298000Y-53487000D01*
X98298000Y-53467000D01*
X98278000Y-53467000D01*
X98278000Y-53213000D01*
X98298000Y-53213000D01*
X98298000Y-51853783D01*
X98065974Y-51732642D01*
X98050209Y-51735291D01*
X97612210Y-51946278D01*
X97612210Y-50787081D01*
X97900111Y-50979450D01*
X97900111Y-50979450D01*
G37*
X97900111Y-50979450D02*
X98425000Y-51083857D01*
X98949889Y-50979450D01*
X98983799Y-50956792D01*
X98983799Y-51823929D01*
X98799791Y-51735291D01*
X98784026Y-51732642D01*
X98552000Y-51853783D01*
X98552000Y-53213000D01*
X98572000Y-53213000D01*
X98572000Y-53467000D01*
X98552000Y-53467000D01*
X98552000Y-53487000D01*
X98298000Y-53487000D01*
X98298000Y-53467000D01*
X98278000Y-53467000D01*
X98278000Y-53213000D01*
X98298000Y-53213000D01*
X98298000Y-51853783D01*
X98065974Y-51732642D01*
X98050209Y-51735291D01*
X97612210Y-51946278D01*
X97612210Y-50787081D01*
X97900111Y-50979450D01*
D25*
G36*
X109207300Y-44437300D02*
X101612700Y-44437300D01*
X101612700Y-42757108D01*
X104944819Y-42757108D01*
X105015477Y-42928114D01*
X105146198Y-43059063D01*
X105317080Y-43130019D01*
X105502108Y-43130181D01*
X105673114Y-43059523D01*
X105804063Y-42928802D01*
X105875019Y-42757920D01*
X105875181Y-42572892D01*
X105804523Y-42401886D01*
X105673802Y-42270937D01*
X105502920Y-42199981D01*
X105317892Y-42199819D01*
X105146886Y-42270477D01*
X105015937Y-42401198D01*
X104944981Y-42572080D01*
X104944819Y-42757108D01*
X101612700Y-42757108D01*
X101612700Y-42163999D01*
X103512928Y-42163999D01*
X103583586Y-42335005D01*
X103714307Y-42465954D01*
X103885189Y-42536910D01*
X104070217Y-42537072D01*
X104241223Y-42466414D01*
X104372172Y-42335693D01*
X104443128Y-42164811D01*
X104443128Y-42163999D01*
X106376710Y-42163999D01*
X106447368Y-42335005D01*
X106578089Y-42465954D01*
X106748971Y-42536910D01*
X106933999Y-42537072D01*
X107105005Y-42466414D01*
X107235954Y-42335693D01*
X107306910Y-42164811D01*
X107307072Y-41979783D01*
X107236414Y-41808777D01*
X107105693Y-41677828D01*
X106934811Y-41606872D01*
X106749783Y-41606710D01*
X106578777Y-41677368D01*
X106447828Y-41808089D01*
X106376872Y-41978971D01*
X106376710Y-42163999D01*
X104443128Y-42163999D01*
X104443290Y-41979783D01*
X104372632Y-41808777D01*
X104241911Y-41677828D01*
X104071029Y-41606872D01*
X103886001Y-41606710D01*
X103714995Y-41677368D01*
X103584046Y-41808089D01*
X103513090Y-41978971D01*
X103512928Y-42163999D01*
X101612700Y-42163999D01*
X101612700Y-40732108D01*
X102919819Y-40732108D01*
X102990477Y-40903114D01*
X103121198Y-41034063D01*
X103292080Y-41105019D01*
X103477108Y-41105181D01*
X103648114Y-41034523D01*
X103779063Y-40903802D01*
X103850019Y-40732920D01*
X103850019Y-40732108D01*
X106969819Y-40732108D01*
X107040477Y-40903114D01*
X107171198Y-41034063D01*
X107342080Y-41105019D01*
X107527108Y-41105181D01*
X107698114Y-41034523D01*
X107829063Y-40903802D01*
X107900019Y-40732920D01*
X107900181Y-40547892D01*
X107829523Y-40376886D01*
X107698802Y-40245937D01*
X107527920Y-40174981D01*
X107342892Y-40174819D01*
X107171886Y-40245477D01*
X107040937Y-40376198D01*
X106969981Y-40547080D01*
X106969819Y-40732108D01*
X103850019Y-40732108D01*
X103850181Y-40547892D01*
X103779523Y-40376886D01*
X103648802Y-40245937D01*
X103477920Y-40174981D01*
X103292892Y-40174819D01*
X103121886Y-40245477D01*
X102990937Y-40376198D01*
X102919981Y-40547080D01*
X102919819Y-40732108D01*
X101612700Y-40732108D01*
X101612700Y-39300217D01*
X103512928Y-39300217D01*
X103583586Y-39471223D01*
X103714307Y-39602172D01*
X103885189Y-39673128D01*
X104070217Y-39673290D01*
X104241223Y-39602632D01*
X104372172Y-39471911D01*
X104443128Y-39301029D01*
X104443128Y-39300217D01*
X106376710Y-39300217D01*
X106447368Y-39471223D01*
X106578089Y-39602172D01*
X106748971Y-39673128D01*
X106933999Y-39673290D01*
X107105005Y-39602632D01*
X107235954Y-39471911D01*
X107306910Y-39301029D01*
X107307072Y-39116001D01*
X107236414Y-38944995D01*
X107105693Y-38814046D01*
X106934811Y-38743090D01*
X106749783Y-38742928D01*
X106578777Y-38813586D01*
X106447828Y-38944307D01*
X106376872Y-39115189D01*
X106376710Y-39300217D01*
X104443128Y-39300217D01*
X104443290Y-39116001D01*
X104372632Y-38944995D01*
X104241911Y-38814046D01*
X104071029Y-38743090D01*
X103886001Y-38742928D01*
X103714995Y-38813586D01*
X103584046Y-38944307D01*
X103513090Y-39115189D01*
X103512928Y-39300217D01*
X101612700Y-39300217D01*
X101612700Y-38707108D01*
X104944819Y-38707108D01*
X105015477Y-38878114D01*
X105146198Y-39009063D01*
X105317080Y-39080019D01*
X105502108Y-39080181D01*
X105673114Y-39009523D01*
X105804063Y-38878802D01*
X105875019Y-38707920D01*
X105875181Y-38522892D01*
X105804523Y-38351886D01*
X105673802Y-38220937D01*
X105502920Y-38149981D01*
X105317892Y-38149819D01*
X105146886Y-38220477D01*
X105015937Y-38351198D01*
X104944981Y-38522080D01*
X104944819Y-38707108D01*
X101612700Y-38707108D01*
X101612700Y-37477700D01*
X109207300Y-37477700D01*
X109207300Y-44437300D01*
X109207300Y-44437300D01*
G37*
X109207300Y-44437300D02*
X101612700Y-44437300D01*
X101612700Y-42757108D01*
X104944819Y-42757108D01*
X105015477Y-42928114D01*
X105146198Y-43059063D01*
X105317080Y-43130019D01*
X105502108Y-43130181D01*
X105673114Y-43059523D01*
X105804063Y-42928802D01*
X105875019Y-42757920D01*
X105875181Y-42572892D01*
X105804523Y-42401886D01*
X105673802Y-42270937D01*
X105502920Y-42199981D01*
X105317892Y-42199819D01*
X105146886Y-42270477D01*
X105015937Y-42401198D01*
X104944981Y-42572080D01*
X104944819Y-42757108D01*
X101612700Y-42757108D01*
X101612700Y-42163999D01*
X103512928Y-42163999D01*
X103583586Y-42335005D01*
X103714307Y-42465954D01*
X103885189Y-42536910D01*
X104070217Y-42537072D01*
X104241223Y-42466414D01*
X104372172Y-42335693D01*
X104443128Y-42164811D01*
X104443128Y-42163999D01*
X106376710Y-42163999D01*
X106447368Y-42335005D01*
X106578089Y-42465954D01*
X106748971Y-42536910D01*
X106933999Y-42537072D01*
X107105005Y-42466414D01*
X107235954Y-42335693D01*
X107306910Y-42164811D01*
X107307072Y-41979783D01*
X107236414Y-41808777D01*
X107105693Y-41677828D01*
X106934811Y-41606872D01*
X106749783Y-41606710D01*
X106578777Y-41677368D01*
X106447828Y-41808089D01*
X106376872Y-41978971D01*
X106376710Y-42163999D01*
X104443128Y-42163999D01*
X104443290Y-41979783D01*
X104372632Y-41808777D01*
X104241911Y-41677828D01*
X104071029Y-41606872D01*
X103886001Y-41606710D01*
X103714995Y-41677368D01*
X103584046Y-41808089D01*
X103513090Y-41978971D01*
X103512928Y-42163999D01*
X101612700Y-42163999D01*
X101612700Y-40732108D01*
X102919819Y-40732108D01*
X102990477Y-40903114D01*
X103121198Y-41034063D01*
X103292080Y-41105019D01*
X103477108Y-41105181D01*
X103648114Y-41034523D01*
X103779063Y-40903802D01*
X103850019Y-40732920D01*
X103850019Y-40732108D01*
X106969819Y-40732108D01*
X107040477Y-40903114D01*
X107171198Y-41034063D01*
X107342080Y-41105019D01*
X107527108Y-41105181D01*
X107698114Y-41034523D01*
X107829063Y-40903802D01*
X107900019Y-40732920D01*
X107900181Y-40547892D01*
X107829523Y-40376886D01*
X107698802Y-40245937D01*
X107527920Y-40174981D01*
X107342892Y-40174819D01*
X107171886Y-40245477D01*
X107040937Y-40376198D01*
X106969981Y-40547080D01*
X106969819Y-40732108D01*
X103850019Y-40732108D01*
X103850181Y-40547892D01*
X103779523Y-40376886D01*
X103648802Y-40245937D01*
X103477920Y-40174981D01*
X103292892Y-40174819D01*
X103121886Y-40245477D01*
X102990937Y-40376198D01*
X102919981Y-40547080D01*
X102919819Y-40732108D01*
X101612700Y-40732108D01*
X101612700Y-39300217D01*
X103512928Y-39300217D01*
X103583586Y-39471223D01*
X103714307Y-39602172D01*
X103885189Y-39673128D01*
X104070217Y-39673290D01*
X104241223Y-39602632D01*
X104372172Y-39471911D01*
X104443128Y-39301029D01*
X104443128Y-39300217D01*
X106376710Y-39300217D01*
X106447368Y-39471223D01*
X106578089Y-39602172D01*
X106748971Y-39673128D01*
X106933999Y-39673290D01*
X107105005Y-39602632D01*
X107235954Y-39471911D01*
X107306910Y-39301029D01*
X107307072Y-39116001D01*
X107236414Y-38944995D01*
X107105693Y-38814046D01*
X106934811Y-38743090D01*
X106749783Y-38742928D01*
X106578777Y-38813586D01*
X106447828Y-38944307D01*
X106376872Y-39115189D01*
X106376710Y-39300217D01*
X104443128Y-39300217D01*
X104443290Y-39116001D01*
X104372632Y-38944995D01*
X104241911Y-38814046D01*
X104071029Y-38743090D01*
X103886001Y-38742928D01*
X103714995Y-38813586D01*
X103584046Y-38944307D01*
X103513090Y-39115189D01*
X103512928Y-39300217D01*
X101612700Y-39300217D01*
X101612700Y-38707108D01*
X104944819Y-38707108D01*
X105015477Y-38878114D01*
X105146198Y-39009063D01*
X105317080Y-39080019D01*
X105502108Y-39080181D01*
X105673114Y-39009523D01*
X105804063Y-38878802D01*
X105875019Y-38707920D01*
X105875181Y-38522892D01*
X105804523Y-38351886D01*
X105673802Y-38220937D01*
X105502920Y-38149981D01*
X105317892Y-38149819D01*
X105146886Y-38220477D01*
X105015937Y-38351198D01*
X104944981Y-38522080D01*
X104944819Y-38707108D01*
X101612700Y-38707108D01*
X101612700Y-37477700D01*
X109207300Y-37477700D01*
X109207300Y-44437300D01*
G36*
X109207300Y-86347300D02*
X101612700Y-86347300D01*
X101612700Y-85302108D01*
X104944819Y-85302108D01*
X105015477Y-85473114D01*
X105146198Y-85604063D01*
X105317080Y-85675019D01*
X105502108Y-85675181D01*
X105673114Y-85604523D01*
X105804063Y-85473802D01*
X105875019Y-85302920D01*
X105875181Y-85117892D01*
X105804523Y-84946886D01*
X105673802Y-84815937D01*
X105502920Y-84744981D01*
X105317892Y-84744819D01*
X105146886Y-84815477D01*
X105015937Y-84946198D01*
X104944981Y-85117080D01*
X104944819Y-85302108D01*
X101612700Y-85302108D01*
X101612700Y-84708999D01*
X103512928Y-84708999D01*
X103583586Y-84880005D01*
X103714307Y-85010954D01*
X103885189Y-85081910D01*
X104070217Y-85082072D01*
X104241223Y-85011414D01*
X104372172Y-84880693D01*
X104443128Y-84709811D01*
X104443128Y-84708999D01*
X106376710Y-84708999D01*
X106447368Y-84880005D01*
X106578089Y-85010954D01*
X106748971Y-85081910D01*
X106933999Y-85082072D01*
X107105005Y-85011414D01*
X107235954Y-84880693D01*
X107306910Y-84709811D01*
X107307072Y-84524783D01*
X107236414Y-84353777D01*
X107105693Y-84222828D01*
X106934811Y-84151872D01*
X106749783Y-84151710D01*
X106578777Y-84222368D01*
X106447828Y-84353089D01*
X106376872Y-84523971D01*
X106376710Y-84708999D01*
X104443128Y-84708999D01*
X104443290Y-84524783D01*
X104372632Y-84353777D01*
X104241911Y-84222828D01*
X104071029Y-84151872D01*
X103886001Y-84151710D01*
X103714995Y-84222368D01*
X103584046Y-84353089D01*
X103513090Y-84523971D01*
X103512928Y-84708999D01*
X101612700Y-84708999D01*
X101612700Y-83277108D01*
X102919819Y-83277108D01*
X102990477Y-83448114D01*
X103121198Y-83579063D01*
X103292080Y-83650019D01*
X103477108Y-83650181D01*
X103648114Y-83579523D01*
X103779063Y-83448802D01*
X103850019Y-83277920D01*
X103850019Y-83277108D01*
X106969819Y-83277108D01*
X107040477Y-83448114D01*
X107171198Y-83579063D01*
X107342080Y-83650019D01*
X107527108Y-83650181D01*
X107698114Y-83579523D01*
X107829063Y-83448802D01*
X107900019Y-83277920D01*
X107900181Y-83092892D01*
X107829523Y-82921886D01*
X107698802Y-82790937D01*
X107527920Y-82719981D01*
X107342892Y-82719819D01*
X107171886Y-82790477D01*
X107040937Y-82921198D01*
X106969981Y-83092080D01*
X106969819Y-83277108D01*
X103850019Y-83277108D01*
X103850181Y-83092892D01*
X103779523Y-82921886D01*
X103648802Y-82790937D01*
X103477920Y-82719981D01*
X103292892Y-82719819D01*
X103121886Y-82790477D01*
X102990937Y-82921198D01*
X102919981Y-83092080D01*
X102919819Y-83277108D01*
X101612700Y-83277108D01*
X101612700Y-81845217D01*
X103512928Y-81845217D01*
X103583586Y-82016223D01*
X103714307Y-82147172D01*
X103885189Y-82218128D01*
X104070217Y-82218290D01*
X104241223Y-82147632D01*
X104372172Y-82016911D01*
X104443128Y-81846029D01*
X104443128Y-81845217D01*
X106376710Y-81845217D01*
X106447368Y-82016223D01*
X106578089Y-82147172D01*
X106748971Y-82218128D01*
X106933999Y-82218290D01*
X107105005Y-82147632D01*
X107235954Y-82016911D01*
X107306910Y-81846029D01*
X107307072Y-81661001D01*
X107236414Y-81489995D01*
X107105693Y-81359046D01*
X106934811Y-81288090D01*
X106749783Y-81287928D01*
X106578777Y-81358586D01*
X106447828Y-81489307D01*
X106376872Y-81660189D01*
X106376710Y-81845217D01*
X104443128Y-81845217D01*
X104443290Y-81661001D01*
X104372632Y-81489995D01*
X104241911Y-81359046D01*
X104071029Y-81288090D01*
X103886001Y-81287928D01*
X103714995Y-81358586D01*
X103584046Y-81489307D01*
X103513090Y-81660189D01*
X103512928Y-81845217D01*
X101612700Y-81845217D01*
X101612700Y-81252108D01*
X104944819Y-81252108D01*
X105015477Y-81423114D01*
X105146198Y-81554063D01*
X105317080Y-81625019D01*
X105502108Y-81625181D01*
X105673114Y-81554523D01*
X105804063Y-81423802D01*
X105875019Y-81252920D01*
X105875181Y-81067892D01*
X105804523Y-80896886D01*
X105673802Y-80765937D01*
X105502920Y-80694981D01*
X105317892Y-80694819D01*
X105146886Y-80765477D01*
X105015937Y-80896198D01*
X104944981Y-81067080D01*
X104944819Y-81252108D01*
X101612700Y-81252108D01*
X101612700Y-79387700D01*
X109207300Y-79387700D01*
X109207300Y-86347300D01*
X109207300Y-86347300D01*
G37*
X109207300Y-86347300D02*
X101612700Y-86347300D01*
X101612700Y-85302108D01*
X104944819Y-85302108D01*
X105015477Y-85473114D01*
X105146198Y-85604063D01*
X105317080Y-85675019D01*
X105502108Y-85675181D01*
X105673114Y-85604523D01*
X105804063Y-85473802D01*
X105875019Y-85302920D01*
X105875181Y-85117892D01*
X105804523Y-84946886D01*
X105673802Y-84815937D01*
X105502920Y-84744981D01*
X105317892Y-84744819D01*
X105146886Y-84815477D01*
X105015937Y-84946198D01*
X104944981Y-85117080D01*
X104944819Y-85302108D01*
X101612700Y-85302108D01*
X101612700Y-84708999D01*
X103512928Y-84708999D01*
X103583586Y-84880005D01*
X103714307Y-85010954D01*
X103885189Y-85081910D01*
X104070217Y-85082072D01*
X104241223Y-85011414D01*
X104372172Y-84880693D01*
X104443128Y-84709811D01*
X104443128Y-84708999D01*
X106376710Y-84708999D01*
X106447368Y-84880005D01*
X106578089Y-85010954D01*
X106748971Y-85081910D01*
X106933999Y-85082072D01*
X107105005Y-85011414D01*
X107235954Y-84880693D01*
X107306910Y-84709811D01*
X107307072Y-84524783D01*
X107236414Y-84353777D01*
X107105693Y-84222828D01*
X106934811Y-84151872D01*
X106749783Y-84151710D01*
X106578777Y-84222368D01*
X106447828Y-84353089D01*
X106376872Y-84523971D01*
X106376710Y-84708999D01*
X104443128Y-84708999D01*
X104443290Y-84524783D01*
X104372632Y-84353777D01*
X104241911Y-84222828D01*
X104071029Y-84151872D01*
X103886001Y-84151710D01*
X103714995Y-84222368D01*
X103584046Y-84353089D01*
X103513090Y-84523971D01*
X103512928Y-84708999D01*
X101612700Y-84708999D01*
X101612700Y-83277108D01*
X102919819Y-83277108D01*
X102990477Y-83448114D01*
X103121198Y-83579063D01*
X103292080Y-83650019D01*
X103477108Y-83650181D01*
X103648114Y-83579523D01*
X103779063Y-83448802D01*
X103850019Y-83277920D01*
X103850019Y-83277108D01*
X106969819Y-83277108D01*
X107040477Y-83448114D01*
X107171198Y-83579063D01*
X107342080Y-83650019D01*
X107527108Y-83650181D01*
X107698114Y-83579523D01*
X107829063Y-83448802D01*
X107900019Y-83277920D01*
X107900181Y-83092892D01*
X107829523Y-82921886D01*
X107698802Y-82790937D01*
X107527920Y-82719981D01*
X107342892Y-82719819D01*
X107171886Y-82790477D01*
X107040937Y-82921198D01*
X106969981Y-83092080D01*
X106969819Y-83277108D01*
X103850019Y-83277108D01*
X103850181Y-83092892D01*
X103779523Y-82921886D01*
X103648802Y-82790937D01*
X103477920Y-82719981D01*
X103292892Y-82719819D01*
X103121886Y-82790477D01*
X102990937Y-82921198D01*
X102919981Y-83092080D01*
X102919819Y-83277108D01*
X101612700Y-83277108D01*
X101612700Y-81845217D01*
X103512928Y-81845217D01*
X103583586Y-82016223D01*
X103714307Y-82147172D01*
X103885189Y-82218128D01*
X104070217Y-82218290D01*
X104241223Y-82147632D01*
X104372172Y-82016911D01*
X104443128Y-81846029D01*
X104443128Y-81845217D01*
X106376710Y-81845217D01*
X106447368Y-82016223D01*
X106578089Y-82147172D01*
X106748971Y-82218128D01*
X106933999Y-82218290D01*
X107105005Y-82147632D01*
X107235954Y-82016911D01*
X107306910Y-81846029D01*
X107307072Y-81661001D01*
X107236414Y-81489995D01*
X107105693Y-81359046D01*
X106934811Y-81288090D01*
X106749783Y-81287928D01*
X106578777Y-81358586D01*
X106447828Y-81489307D01*
X106376872Y-81660189D01*
X106376710Y-81845217D01*
X104443128Y-81845217D01*
X104443290Y-81661001D01*
X104372632Y-81489995D01*
X104241911Y-81359046D01*
X104071029Y-81288090D01*
X103886001Y-81287928D01*
X103714995Y-81358586D01*
X103584046Y-81489307D01*
X103513090Y-81660189D01*
X103512928Y-81845217D01*
X101612700Y-81845217D01*
X101612700Y-81252108D01*
X104944819Y-81252108D01*
X105015477Y-81423114D01*
X105146198Y-81554063D01*
X105317080Y-81625019D01*
X105502108Y-81625181D01*
X105673114Y-81554523D01*
X105804063Y-81423802D01*
X105875019Y-81252920D01*
X105875181Y-81067892D01*
X105804523Y-80896886D01*
X105673802Y-80765937D01*
X105502920Y-80694981D01*
X105317892Y-80694819D01*
X105146886Y-80765477D01*
X105015937Y-80896198D01*
X104944981Y-81067080D01*
X104944819Y-81252108D01*
X101612700Y-81252108D01*
X101612700Y-79387700D01*
X109207300Y-79387700D01*
X109207300Y-86347300D01*
G36*
X62217300Y-44437300D02*
X54622700Y-44437300D01*
X54622700Y-42757108D01*
X57954819Y-42757108D01*
X58025477Y-42928114D01*
X58156198Y-43059063D01*
X58327080Y-43130019D01*
X58512108Y-43130181D01*
X58683114Y-43059523D01*
X58814063Y-42928802D01*
X58885019Y-42757920D01*
X58885181Y-42572892D01*
X58814523Y-42401886D01*
X58683802Y-42270937D01*
X58512920Y-42199981D01*
X58327892Y-42199819D01*
X58156886Y-42270477D01*
X58025937Y-42401198D01*
X57954981Y-42572080D01*
X57954819Y-42757108D01*
X54622700Y-42757108D01*
X54622700Y-42163999D01*
X56522928Y-42163999D01*
X56593586Y-42335005D01*
X56724307Y-42465954D01*
X56895189Y-42536910D01*
X57080217Y-42537072D01*
X57251223Y-42466414D01*
X57382172Y-42335693D01*
X57453128Y-42164811D01*
X57453128Y-42163999D01*
X59386710Y-42163999D01*
X59457368Y-42335005D01*
X59588089Y-42465954D01*
X59758971Y-42536910D01*
X59943999Y-42537072D01*
X60115005Y-42466414D01*
X60245954Y-42335693D01*
X60316910Y-42164811D01*
X60317072Y-41979783D01*
X60246414Y-41808777D01*
X60115693Y-41677828D01*
X59944811Y-41606872D01*
X59759783Y-41606710D01*
X59588777Y-41677368D01*
X59457828Y-41808089D01*
X59386872Y-41978971D01*
X59386710Y-42163999D01*
X57453128Y-42163999D01*
X57453290Y-41979783D01*
X57382632Y-41808777D01*
X57251911Y-41677828D01*
X57081029Y-41606872D01*
X56896001Y-41606710D01*
X56724995Y-41677368D01*
X56594046Y-41808089D01*
X56523090Y-41978971D01*
X56522928Y-42163999D01*
X54622700Y-42163999D01*
X54622700Y-40732108D01*
X55929819Y-40732108D01*
X56000477Y-40903114D01*
X56131198Y-41034063D01*
X56302080Y-41105019D01*
X56487108Y-41105181D01*
X56658114Y-41034523D01*
X56789063Y-40903802D01*
X56860019Y-40732920D01*
X56860019Y-40732108D01*
X59979819Y-40732108D01*
X60050477Y-40903114D01*
X60181198Y-41034063D01*
X60352080Y-41105019D01*
X60537108Y-41105181D01*
X60708114Y-41034523D01*
X60839063Y-40903802D01*
X60910019Y-40732920D01*
X60910181Y-40547892D01*
X60839523Y-40376886D01*
X60708802Y-40245937D01*
X60537920Y-40174981D01*
X60352892Y-40174819D01*
X60181886Y-40245477D01*
X60050937Y-40376198D01*
X59979981Y-40547080D01*
X59979819Y-40732108D01*
X56860019Y-40732108D01*
X56860181Y-40547892D01*
X56789523Y-40376886D01*
X56658802Y-40245937D01*
X56487920Y-40174981D01*
X56302892Y-40174819D01*
X56131886Y-40245477D01*
X56000937Y-40376198D01*
X55929981Y-40547080D01*
X55929819Y-40732108D01*
X54622700Y-40732108D01*
X54622700Y-39300217D01*
X56522928Y-39300217D01*
X56593586Y-39471223D01*
X56724307Y-39602172D01*
X56895189Y-39673128D01*
X57080217Y-39673290D01*
X57251223Y-39602632D01*
X57382172Y-39471911D01*
X57453128Y-39301029D01*
X57453128Y-39300217D01*
X59386710Y-39300217D01*
X59457368Y-39471223D01*
X59588089Y-39602172D01*
X59758971Y-39673128D01*
X59943999Y-39673290D01*
X60115005Y-39602632D01*
X60245954Y-39471911D01*
X60316910Y-39301029D01*
X60317072Y-39116001D01*
X60246414Y-38944995D01*
X60115693Y-38814046D01*
X59944811Y-38743090D01*
X59759783Y-38742928D01*
X59588777Y-38813586D01*
X59457828Y-38944307D01*
X59386872Y-39115189D01*
X59386710Y-39300217D01*
X57453128Y-39300217D01*
X57453290Y-39116001D01*
X57382632Y-38944995D01*
X57251911Y-38814046D01*
X57081029Y-38743090D01*
X56896001Y-38742928D01*
X56724995Y-38813586D01*
X56594046Y-38944307D01*
X56523090Y-39115189D01*
X56522928Y-39300217D01*
X54622700Y-39300217D01*
X54622700Y-38707108D01*
X57954819Y-38707108D01*
X58025477Y-38878114D01*
X58156198Y-39009063D01*
X58327080Y-39080019D01*
X58512108Y-39080181D01*
X58683114Y-39009523D01*
X58814063Y-38878802D01*
X58885019Y-38707920D01*
X58885181Y-38522892D01*
X58814523Y-38351886D01*
X58683802Y-38220937D01*
X58512920Y-38149981D01*
X58327892Y-38149819D01*
X58156886Y-38220477D01*
X58025937Y-38351198D01*
X57954981Y-38522080D01*
X57954819Y-38707108D01*
X54622700Y-38707108D01*
X54622700Y-37477700D01*
X62217300Y-37477700D01*
X62217300Y-44437300D01*
X62217300Y-44437300D01*
G37*
X62217300Y-44437300D02*
X54622700Y-44437300D01*
X54622700Y-42757108D01*
X57954819Y-42757108D01*
X58025477Y-42928114D01*
X58156198Y-43059063D01*
X58327080Y-43130019D01*
X58512108Y-43130181D01*
X58683114Y-43059523D01*
X58814063Y-42928802D01*
X58885019Y-42757920D01*
X58885181Y-42572892D01*
X58814523Y-42401886D01*
X58683802Y-42270937D01*
X58512920Y-42199981D01*
X58327892Y-42199819D01*
X58156886Y-42270477D01*
X58025937Y-42401198D01*
X57954981Y-42572080D01*
X57954819Y-42757108D01*
X54622700Y-42757108D01*
X54622700Y-42163999D01*
X56522928Y-42163999D01*
X56593586Y-42335005D01*
X56724307Y-42465954D01*
X56895189Y-42536910D01*
X57080217Y-42537072D01*
X57251223Y-42466414D01*
X57382172Y-42335693D01*
X57453128Y-42164811D01*
X57453128Y-42163999D01*
X59386710Y-42163999D01*
X59457368Y-42335005D01*
X59588089Y-42465954D01*
X59758971Y-42536910D01*
X59943999Y-42537072D01*
X60115005Y-42466414D01*
X60245954Y-42335693D01*
X60316910Y-42164811D01*
X60317072Y-41979783D01*
X60246414Y-41808777D01*
X60115693Y-41677828D01*
X59944811Y-41606872D01*
X59759783Y-41606710D01*
X59588777Y-41677368D01*
X59457828Y-41808089D01*
X59386872Y-41978971D01*
X59386710Y-42163999D01*
X57453128Y-42163999D01*
X57453290Y-41979783D01*
X57382632Y-41808777D01*
X57251911Y-41677828D01*
X57081029Y-41606872D01*
X56896001Y-41606710D01*
X56724995Y-41677368D01*
X56594046Y-41808089D01*
X56523090Y-41978971D01*
X56522928Y-42163999D01*
X54622700Y-42163999D01*
X54622700Y-40732108D01*
X55929819Y-40732108D01*
X56000477Y-40903114D01*
X56131198Y-41034063D01*
X56302080Y-41105019D01*
X56487108Y-41105181D01*
X56658114Y-41034523D01*
X56789063Y-40903802D01*
X56860019Y-40732920D01*
X56860019Y-40732108D01*
X59979819Y-40732108D01*
X60050477Y-40903114D01*
X60181198Y-41034063D01*
X60352080Y-41105019D01*
X60537108Y-41105181D01*
X60708114Y-41034523D01*
X60839063Y-40903802D01*
X60910019Y-40732920D01*
X60910181Y-40547892D01*
X60839523Y-40376886D01*
X60708802Y-40245937D01*
X60537920Y-40174981D01*
X60352892Y-40174819D01*
X60181886Y-40245477D01*
X60050937Y-40376198D01*
X59979981Y-40547080D01*
X59979819Y-40732108D01*
X56860019Y-40732108D01*
X56860181Y-40547892D01*
X56789523Y-40376886D01*
X56658802Y-40245937D01*
X56487920Y-40174981D01*
X56302892Y-40174819D01*
X56131886Y-40245477D01*
X56000937Y-40376198D01*
X55929981Y-40547080D01*
X55929819Y-40732108D01*
X54622700Y-40732108D01*
X54622700Y-39300217D01*
X56522928Y-39300217D01*
X56593586Y-39471223D01*
X56724307Y-39602172D01*
X56895189Y-39673128D01*
X57080217Y-39673290D01*
X57251223Y-39602632D01*
X57382172Y-39471911D01*
X57453128Y-39301029D01*
X57453128Y-39300217D01*
X59386710Y-39300217D01*
X59457368Y-39471223D01*
X59588089Y-39602172D01*
X59758971Y-39673128D01*
X59943999Y-39673290D01*
X60115005Y-39602632D01*
X60245954Y-39471911D01*
X60316910Y-39301029D01*
X60317072Y-39116001D01*
X60246414Y-38944995D01*
X60115693Y-38814046D01*
X59944811Y-38743090D01*
X59759783Y-38742928D01*
X59588777Y-38813586D01*
X59457828Y-38944307D01*
X59386872Y-39115189D01*
X59386710Y-39300217D01*
X57453128Y-39300217D01*
X57453290Y-39116001D01*
X57382632Y-38944995D01*
X57251911Y-38814046D01*
X57081029Y-38743090D01*
X56896001Y-38742928D01*
X56724995Y-38813586D01*
X56594046Y-38944307D01*
X56523090Y-39115189D01*
X56522928Y-39300217D01*
X54622700Y-39300217D01*
X54622700Y-38707108D01*
X57954819Y-38707108D01*
X58025477Y-38878114D01*
X58156198Y-39009063D01*
X58327080Y-39080019D01*
X58512108Y-39080181D01*
X58683114Y-39009523D01*
X58814063Y-38878802D01*
X58885019Y-38707920D01*
X58885181Y-38522892D01*
X58814523Y-38351886D01*
X58683802Y-38220937D01*
X58512920Y-38149981D01*
X58327892Y-38149819D01*
X58156886Y-38220477D01*
X58025937Y-38351198D01*
X57954981Y-38522080D01*
X57954819Y-38707108D01*
X54622700Y-38707108D01*
X54622700Y-37477700D01*
X62217300Y-37477700D01*
X62217300Y-44437300D01*
G36*
X62217300Y-86347300D02*
X54622700Y-86347300D01*
X54622700Y-85302108D01*
X57954819Y-85302108D01*
X58025477Y-85473114D01*
X58156198Y-85604063D01*
X58327080Y-85675019D01*
X58512108Y-85675181D01*
X58683114Y-85604523D01*
X58814063Y-85473802D01*
X58885019Y-85302920D01*
X58885181Y-85117892D01*
X58814523Y-84946886D01*
X58683802Y-84815937D01*
X58512920Y-84744981D01*
X58327892Y-84744819D01*
X58156886Y-84815477D01*
X58025937Y-84946198D01*
X57954981Y-85117080D01*
X57954819Y-85302108D01*
X54622700Y-85302108D01*
X54622700Y-84708999D01*
X56522928Y-84708999D01*
X56593586Y-84880005D01*
X56724307Y-85010954D01*
X56895189Y-85081910D01*
X57080217Y-85082072D01*
X57251223Y-85011414D01*
X57382172Y-84880693D01*
X57453128Y-84709811D01*
X57453128Y-84708999D01*
X59386710Y-84708999D01*
X59457368Y-84880005D01*
X59588089Y-85010954D01*
X59758971Y-85081910D01*
X59943999Y-85082072D01*
X60115005Y-85011414D01*
X60245954Y-84880693D01*
X60316910Y-84709811D01*
X60317072Y-84524783D01*
X60246414Y-84353777D01*
X60115693Y-84222828D01*
X59944811Y-84151872D01*
X59759783Y-84151710D01*
X59588777Y-84222368D01*
X59457828Y-84353089D01*
X59386872Y-84523971D01*
X59386710Y-84708999D01*
X57453128Y-84708999D01*
X57453290Y-84524783D01*
X57382632Y-84353777D01*
X57251911Y-84222828D01*
X57081029Y-84151872D01*
X56896001Y-84151710D01*
X56724995Y-84222368D01*
X56594046Y-84353089D01*
X56523090Y-84523971D01*
X56522928Y-84708999D01*
X54622700Y-84708999D01*
X54622700Y-83277108D01*
X55929819Y-83277108D01*
X56000477Y-83448114D01*
X56131198Y-83579063D01*
X56302080Y-83650019D01*
X56487108Y-83650181D01*
X56658114Y-83579523D01*
X56789063Y-83448802D01*
X56860019Y-83277920D01*
X56860019Y-83277108D01*
X59979819Y-83277108D01*
X60050477Y-83448114D01*
X60181198Y-83579063D01*
X60352080Y-83650019D01*
X60537108Y-83650181D01*
X60708114Y-83579523D01*
X60839063Y-83448802D01*
X60910019Y-83277920D01*
X60910181Y-83092892D01*
X60839523Y-82921886D01*
X60708802Y-82790937D01*
X60537920Y-82719981D01*
X60352892Y-82719819D01*
X60181886Y-82790477D01*
X60050937Y-82921198D01*
X59979981Y-83092080D01*
X59979819Y-83277108D01*
X56860019Y-83277108D01*
X56860181Y-83092892D01*
X56789523Y-82921886D01*
X56658802Y-82790937D01*
X56487920Y-82719981D01*
X56302892Y-82719819D01*
X56131886Y-82790477D01*
X56000937Y-82921198D01*
X55929981Y-83092080D01*
X55929819Y-83277108D01*
X54622700Y-83277108D01*
X54622700Y-81845217D01*
X56522928Y-81845217D01*
X56593586Y-82016223D01*
X56724307Y-82147172D01*
X56895189Y-82218128D01*
X57080217Y-82218290D01*
X57251223Y-82147632D01*
X57382172Y-82016911D01*
X57453128Y-81846029D01*
X57453128Y-81845217D01*
X59386710Y-81845217D01*
X59457368Y-82016223D01*
X59588089Y-82147172D01*
X59758971Y-82218128D01*
X59943999Y-82218290D01*
X60115005Y-82147632D01*
X60245954Y-82016911D01*
X60316910Y-81846029D01*
X60317072Y-81661001D01*
X60246414Y-81489995D01*
X60115693Y-81359046D01*
X59944811Y-81288090D01*
X59759783Y-81287928D01*
X59588777Y-81358586D01*
X59457828Y-81489307D01*
X59386872Y-81660189D01*
X59386710Y-81845217D01*
X57453128Y-81845217D01*
X57453290Y-81661001D01*
X57382632Y-81489995D01*
X57251911Y-81359046D01*
X57081029Y-81288090D01*
X56896001Y-81287928D01*
X56724995Y-81358586D01*
X56594046Y-81489307D01*
X56523090Y-81660189D01*
X56522928Y-81845217D01*
X54622700Y-81845217D01*
X54622700Y-81252108D01*
X57954819Y-81252108D01*
X58025477Y-81423114D01*
X58156198Y-81554063D01*
X58327080Y-81625019D01*
X58512108Y-81625181D01*
X58683114Y-81554523D01*
X58814063Y-81423802D01*
X58885019Y-81252920D01*
X58885181Y-81067892D01*
X58814523Y-80896886D01*
X58683802Y-80765937D01*
X58512920Y-80694981D01*
X58327892Y-80694819D01*
X58156886Y-80765477D01*
X58025937Y-80896198D01*
X57954981Y-81067080D01*
X57954819Y-81252108D01*
X54622700Y-81252108D01*
X54622700Y-79387700D01*
X62217300Y-79387700D01*
X62217300Y-86347300D01*
X62217300Y-86347300D01*
G37*
X62217300Y-86347300D02*
X54622700Y-86347300D01*
X54622700Y-85302108D01*
X57954819Y-85302108D01*
X58025477Y-85473114D01*
X58156198Y-85604063D01*
X58327080Y-85675019D01*
X58512108Y-85675181D01*
X58683114Y-85604523D01*
X58814063Y-85473802D01*
X58885019Y-85302920D01*
X58885181Y-85117892D01*
X58814523Y-84946886D01*
X58683802Y-84815937D01*
X58512920Y-84744981D01*
X58327892Y-84744819D01*
X58156886Y-84815477D01*
X58025937Y-84946198D01*
X57954981Y-85117080D01*
X57954819Y-85302108D01*
X54622700Y-85302108D01*
X54622700Y-84708999D01*
X56522928Y-84708999D01*
X56593586Y-84880005D01*
X56724307Y-85010954D01*
X56895189Y-85081910D01*
X57080217Y-85082072D01*
X57251223Y-85011414D01*
X57382172Y-84880693D01*
X57453128Y-84709811D01*
X57453128Y-84708999D01*
X59386710Y-84708999D01*
X59457368Y-84880005D01*
X59588089Y-85010954D01*
X59758971Y-85081910D01*
X59943999Y-85082072D01*
X60115005Y-85011414D01*
X60245954Y-84880693D01*
X60316910Y-84709811D01*
X60317072Y-84524783D01*
X60246414Y-84353777D01*
X60115693Y-84222828D01*
X59944811Y-84151872D01*
X59759783Y-84151710D01*
X59588777Y-84222368D01*
X59457828Y-84353089D01*
X59386872Y-84523971D01*
X59386710Y-84708999D01*
X57453128Y-84708999D01*
X57453290Y-84524783D01*
X57382632Y-84353777D01*
X57251911Y-84222828D01*
X57081029Y-84151872D01*
X56896001Y-84151710D01*
X56724995Y-84222368D01*
X56594046Y-84353089D01*
X56523090Y-84523971D01*
X56522928Y-84708999D01*
X54622700Y-84708999D01*
X54622700Y-83277108D01*
X55929819Y-83277108D01*
X56000477Y-83448114D01*
X56131198Y-83579063D01*
X56302080Y-83650019D01*
X56487108Y-83650181D01*
X56658114Y-83579523D01*
X56789063Y-83448802D01*
X56860019Y-83277920D01*
X56860019Y-83277108D01*
X59979819Y-83277108D01*
X60050477Y-83448114D01*
X60181198Y-83579063D01*
X60352080Y-83650019D01*
X60537108Y-83650181D01*
X60708114Y-83579523D01*
X60839063Y-83448802D01*
X60910019Y-83277920D01*
X60910181Y-83092892D01*
X60839523Y-82921886D01*
X60708802Y-82790937D01*
X60537920Y-82719981D01*
X60352892Y-82719819D01*
X60181886Y-82790477D01*
X60050937Y-82921198D01*
X59979981Y-83092080D01*
X59979819Y-83277108D01*
X56860019Y-83277108D01*
X56860181Y-83092892D01*
X56789523Y-82921886D01*
X56658802Y-82790937D01*
X56487920Y-82719981D01*
X56302892Y-82719819D01*
X56131886Y-82790477D01*
X56000937Y-82921198D01*
X55929981Y-83092080D01*
X55929819Y-83277108D01*
X54622700Y-83277108D01*
X54622700Y-81845217D01*
X56522928Y-81845217D01*
X56593586Y-82016223D01*
X56724307Y-82147172D01*
X56895189Y-82218128D01*
X57080217Y-82218290D01*
X57251223Y-82147632D01*
X57382172Y-82016911D01*
X57453128Y-81846029D01*
X57453128Y-81845217D01*
X59386710Y-81845217D01*
X59457368Y-82016223D01*
X59588089Y-82147172D01*
X59758971Y-82218128D01*
X59943999Y-82218290D01*
X60115005Y-82147632D01*
X60245954Y-82016911D01*
X60316910Y-81846029D01*
X60317072Y-81661001D01*
X60246414Y-81489995D01*
X60115693Y-81359046D01*
X59944811Y-81288090D01*
X59759783Y-81287928D01*
X59588777Y-81358586D01*
X59457828Y-81489307D01*
X59386872Y-81660189D01*
X59386710Y-81845217D01*
X57453128Y-81845217D01*
X57453290Y-81661001D01*
X57382632Y-81489995D01*
X57251911Y-81359046D01*
X57081029Y-81288090D01*
X56896001Y-81287928D01*
X56724995Y-81358586D01*
X56594046Y-81489307D01*
X56523090Y-81660189D01*
X56522928Y-81845217D01*
X54622700Y-81845217D01*
X54622700Y-81252108D01*
X57954819Y-81252108D01*
X58025477Y-81423114D01*
X58156198Y-81554063D01*
X58327080Y-81625019D01*
X58512108Y-81625181D01*
X58683114Y-81554523D01*
X58814063Y-81423802D01*
X58885019Y-81252920D01*
X58885181Y-81067892D01*
X58814523Y-80896886D01*
X58683802Y-80765937D01*
X58512920Y-80694981D01*
X58327892Y-80694819D01*
X58156886Y-80765477D01*
X58025937Y-80896198D01*
X57954981Y-81067080D01*
X57954819Y-81252108D01*
X54622700Y-81252108D01*
X54622700Y-79387700D01*
X62217300Y-79387700D01*
X62217300Y-86347300D01*
M02*
