G04 #@! TF.FileFunction,Paste,Top*
%FSLAX46Y46*%
G04 Gerber Fmt 4.6, Leading zero omitted, Abs format (unit mm)*
G04 Created by KiCad (PCBNEW 4.0.3-stable) date 10/09/16 09:38:23*
%MOMM*%
%LPD*%
G01*
G04 APERTURE LIST*
%ADD10C,0.100000*%
%ADD11R,0.346000X1.296000*%
%ADD12R,1.846580X5.346700*%
%ADD13R,0.296000X1.346000*%
%ADD14R,1.346000X0.296000*%
%ADD15R,0.746000X0.996000*%
%ADD16R,0.996000X0.746000*%
%ADD17R,0.944880X0.944880*%
%ADD18R,1.346000X1.746000*%
%ADD19R,0.806000X0.396000*%
%ADD20R,0.746000X1.346000*%
G04 APERTURE END LIST*
D10*
D11*
X98425000Y-70960000D03*
X97155000Y-70960000D03*
X95885000Y-70960000D03*
X94615000Y-70960000D03*
X94615000Y-76360000D03*
X95885000Y-76360000D03*
X97155000Y-76360000D03*
X98425000Y-76360000D03*
D12*
X88900000Y-76603860D03*
X88900000Y-66906140D03*
D13*
X68320000Y-70290000D03*
X69120000Y-70290000D03*
X69920000Y-70290000D03*
X70720000Y-70290000D03*
X71520000Y-70290000D03*
X72320000Y-70290000D03*
X73120000Y-70290000D03*
X73920000Y-70290000D03*
D14*
X75370000Y-68840000D03*
X75370000Y-68040000D03*
X75370000Y-67240000D03*
X75370000Y-66440000D03*
X75370000Y-65640000D03*
X75370000Y-64840000D03*
X75370000Y-64040000D03*
X75370000Y-63240000D03*
D13*
X73920000Y-61790000D03*
X73120000Y-61790000D03*
X72320000Y-61790000D03*
X71520000Y-61790000D03*
X70720000Y-61790000D03*
X69920000Y-61790000D03*
X69120000Y-61790000D03*
X68320000Y-61790000D03*
D14*
X66870000Y-63240000D03*
X66870000Y-64040000D03*
X66870000Y-64840000D03*
X66870000Y-65640000D03*
X66870000Y-66440000D03*
X66870000Y-67240000D03*
X66870000Y-68040000D03*
X66870000Y-68840000D03*
D15*
X70120000Y-73025000D03*
X72120000Y-73025000D03*
X74660000Y-58420000D03*
X72660000Y-58420000D03*
X68850000Y-58420000D03*
X70850000Y-58420000D03*
D16*
X66040000Y-77835000D03*
X66040000Y-75835000D03*
X80010000Y-75835000D03*
X80010000Y-77835000D03*
X81915000Y-71485000D03*
X81915000Y-69485000D03*
X84455000Y-69580000D03*
X84455000Y-67580000D03*
X95250000Y-66310000D03*
X95250000Y-68310000D03*
D17*
X74515980Y-75565000D03*
X76614020Y-75565000D03*
X60739020Y-56515000D03*
X58640980Y-56515000D03*
D18*
X67310000Y-50960000D03*
X67310000Y-45560000D03*
D19*
X69385000Y-75885000D03*
X69385000Y-76835000D03*
X69385000Y-77785000D03*
X71585000Y-77785000D03*
X71585000Y-75885000D03*
D15*
X74565000Y-78105000D03*
X76565000Y-78105000D03*
X65135000Y-53975000D03*
X63135000Y-53975000D03*
X60690000Y-53975000D03*
X58690000Y-53975000D03*
D16*
X97790000Y-66310000D03*
X97790000Y-68310000D03*
D20*
X103275000Y-73660000D03*
X106275000Y-73660000D03*
M02*
