G04 #@! TF.FileFunction,Legend,Top*
%FSLAX46Y46*%
G04 Gerber Fmt 4.6, Leading zero omitted, Abs format (unit mm)*
G04 Created by KiCad (PCBNEW 4.0.3-stable) date 10/08/16 12:11:26*
%MOMM*%
%LPD*%
G01*
G04 APERTURE LIST*
%ADD10C,0.100000*%
%ADD11C,0.228600*%
%ADD12C,0.250000*%
%ADD13C,0.300000*%
%ADD14C,0.127000*%
%ADD15C,0.200000*%
%ADD16C,0.010000*%
%ADD17C,0.130000*%
%ADD18C,0.150000*%
G04 APERTURE END LIST*
D10*
D11*
X56726667Y-72329524D02*
X56726667Y-71059524D01*
X57210476Y-71059524D01*
X57331429Y-71120000D01*
X57391905Y-71180476D01*
X57452381Y-71301429D01*
X57452381Y-71482857D01*
X57391905Y-71603810D01*
X57331429Y-71664286D01*
X57210476Y-71724762D01*
X56726667Y-71724762D01*
X57875715Y-71059524D02*
X58178096Y-72329524D01*
X58420000Y-71422381D01*
X58661905Y-72329524D01*
X58964286Y-71059524D01*
X60173810Y-72329524D02*
X59750477Y-71724762D01*
X59448096Y-72329524D02*
X59448096Y-71059524D01*
X59931905Y-71059524D01*
X60052858Y-71120000D01*
X60113334Y-71180476D01*
X60173810Y-71301429D01*
X60173810Y-71482857D01*
X60113334Y-71603810D01*
X60052858Y-71664286D01*
X59931905Y-71724762D01*
X59448096Y-71724762D01*
D12*
X74041691Y-83689071D02*
X74041691Y-84903357D01*
X73994072Y-85046214D01*
X73946453Y-85117643D01*
X73851214Y-85189071D01*
X73708357Y-85189071D01*
X73613119Y-85117643D01*
X74041691Y-84617643D02*
X73946453Y-84689071D01*
X73755976Y-84689071D01*
X73660738Y-84617643D01*
X73613119Y-84546214D01*
X73565500Y-84403357D01*
X73565500Y-83974786D01*
X73613119Y-83831929D01*
X73660738Y-83760500D01*
X73755976Y-83689071D01*
X73946453Y-83689071D01*
X74041691Y-83760500D01*
X74517881Y-84689071D02*
X74517881Y-83689071D01*
X74517881Y-83189071D02*
X74470262Y-83260500D01*
X74517881Y-83331929D01*
X74565500Y-83260500D01*
X74517881Y-83189071D01*
X74517881Y-83331929D01*
X74851214Y-83689071D02*
X75232166Y-83689071D01*
X74994071Y-83189071D02*
X74994071Y-84474786D01*
X75041690Y-84617643D01*
X75136928Y-84689071D01*
X75232166Y-84689071D01*
X75565500Y-84689071D02*
X75565500Y-83189071D01*
X75994072Y-84689071D02*
X75994072Y-83903357D01*
X75946453Y-83760500D01*
X75851215Y-83689071D01*
X75708357Y-83689071D01*
X75613119Y-83760500D01*
X75565500Y-83831929D01*
X76898834Y-83689071D02*
X76898834Y-84689071D01*
X76470262Y-83689071D02*
X76470262Y-84474786D01*
X76517881Y-84617643D01*
X76613119Y-84689071D01*
X76755977Y-84689071D01*
X76851215Y-84617643D01*
X76898834Y-84546214D01*
X77375024Y-84689071D02*
X77375024Y-83189071D01*
X77375024Y-83760500D02*
X77470262Y-83689071D01*
X77660739Y-83689071D01*
X77755977Y-83760500D01*
X77803596Y-83831929D01*
X77851215Y-83974786D01*
X77851215Y-84403357D01*
X77803596Y-84546214D01*
X77755977Y-84617643D01*
X77660739Y-84689071D01*
X77470262Y-84689071D01*
X77375024Y-84617643D01*
X78279786Y-84546214D02*
X78327405Y-84617643D01*
X78279786Y-84689071D01*
X78232167Y-84617643D01*
X78279786Y-84546214D01*
X78279786Y-84689071D01*
X79184548Y-84617643D02*
X79089310Y-84689071D01*
X78898833Y-84689071D01*
X78803595Y-84617643D01*
X78755976Y-84546214D01*
X78708357Y-84403357D01*
X78708357Y-83974786D01*
X78755976Y-83831929D01*
X78803595Y-83760500D01*
X78898833Y-83689071D01*
X79089310Y-83689071D01*
X79184548Y-83760500D01*
X79755976Y-84689071D02*
X79660738Y-84617643D01*
X79613119Y-84546214D01*
X79565500Y-84403357D01*
X79565500Y-83974786D01*
X79613119Y-83831929D01*
X79660738Y-83760500D01*
X79755976Y-83689071D01*
X79898834Y-83689071D01*
X79994072Y-83760500D01*
X80041691Y-83831929D01*
X80089310Y-83974786D01*
X80089310Y-84403357D01*
X80041691Y-84546214D01*
X79994072Y-84617643D01*
X79898834Y-84689071D01*
X79755976Y-84689071D01*
X80517881Y-84689071D02*
X80517881Y-83689071D01*
X80517881Y-83831929D02*
X80565500Y-83760500D01*
X80660738Y-83689071D01*
X80803596Y-83689071D01*
X80898834Y-83760500D01*
X80946453Y-83903357D01*
X80946453Y-84689071D01*
X80946453Y-83903357D02*
X80994072Y-83760500D01*
X81089310Y-83689071D01*
X81232167Y-83689071D01*
X81327405Y-83760500D01*
X81375024Y-83903357D01*
X81375024Y-84689071D01*
X82565500Y-83117643D02*
X81708357Y-85046214D01*
X82898833Y-83689071D02*
X82898833Y-84974786D01*
X82851214Y-85117643D01*
X82755976Y-85189071D01*
X82708357Y-85189071D01*
X82898833Y-83189071D02*
X82851214Y-83260500D01*
X82898833Y-83331929D01*
X82946452Y-83260500D01*
X82898833Y-83189071D01*
X82898833Y-83331929D01*
X83232166Y-83689071D02*
X83613118Y-83689071D01*
X83375023Y-84689071D02*
X83375023Y-83403357D01*
X83422642Y-83260500D01*
X83517880Y-83189071D01*
X83613118Y-83189071D01*
X83946452Y-84689071D02*
X83946452Y-83689071D01*
X83946452Y-83974786D02*
X83994071Y-83831929D01*
X84041690Y-83760500D01*
X84136928Y-83689071D01*
X84232167Y-83689071D01*
X84565500Y-84689071D02*
X84565500Y-83689071D01*
X84565500Y-83189071D02*
X84517881Y-83260500D01*
X84565500Y-83331929D01*
X84613119Y-83260500D01*
X84565500Y-83189071D01*
X84565500Y-83331929D01*
X84994071Y-83331929D02*
X85041690Y-83260500D01*
X85136928Y-83189071D01*
X85375024Y-83189071D01*
X85470262Y-83260500D01*
X85517881Y-83331929D01*
X85565500Y-83474786D01*
X85565500Y-83617643D01*
X85517881Y-83831929D01*
X84946452Y-84689071D01*
X85565500Y-84689071D01*
X71946451Y-82403071D02*
X71946451Y-80903071D01*
X72184546Y-80903071D01*
X72327404Y-80974500D01*
X72422642Y-81117357D01*
X72470261Y-81260214D01*
X72517880Y-81545929D01*
X72517880Y-81760214D01*
X72470261Y-82045929D01*
X72422642Y-82188786D01*
X72327404Y-82331643D01*
X72184546Y-82403071D01*
X71946451Y-82403071D01*
X73327404Y-82331643D02*
X73232166Y-82403071D01*
X73041689Y-82403071D01*
X72946451Y-82331643D01*
X72898832Y-82188786D01*
X72898832Y-81617357D01*
X72946451Y-81474500D01*
X73041689Y-81403071D01*
X73232166Y-81403071D01*
X73327404Y-81474500D01*
X73375023Y-81617357D01*
X73375023Y-81760214D01*
X72898832Y-81903071D01*
X73755975Y-82331643D02*
X73851213Y-82403071D01*
X74041689Y-82403071D01*
X74136928Y-82331643D01*
X74184547Y-82188786D01*
X74184547Y-82117357D01*
X74136928Y-81974500D01*
X74041689Y-81903071D01*
X73898832Y-81903071D01*
X73803594Y-81831643D01*
X73755975Y-81688786D01*
X73755975Y-81617357D01*
X73803594Y-81474500D01*
X73898832Y-81403071D01*
X74041689Y-81403071D01*
X74136928Y-81474500D01*
X74613118Y-82403071D02*
X74613118Y-81403071D01*
X74613118Y-80903071D02*
X74565499Y-80974500D01*
X74613118Y-81045929D01*
X74660737Y-80974500D01*
X74613118Y-80903071D01*
X74613118Y-81045929D01*
X75517880Y-81403071D02*
X75517880Y-82617357D01*
X75470261Y-82760214D01*
X75422642Y-82831643D01*
X75327403Y-82903071D01*
X75184546Y-82903071D01*
X75089308Y-82831643D01*
X75517880Y-82331643D02*
X75422642Y-82403071D01*
X75232165Y-82403071D01*
X75136927Y-82331643D01*
X75089308Y-82260214D01*
X75041689Y-82117357D01*
X75041689Y-81688786D01*
X75089308Y-81545929D01*
X75136927Y-81474500D01*
X75232165Y-81403071D01*
X75422642Y-81403071D01*
X75517880Y-81474500D01*
X75994070Y-81403071D02*
X75994070Y-82403071D01*
X75994070Y-81545929D02*
X76041689Y-81474500D01*
X76136927Y-81403071D01*
X76279785Y-81403071D01*
X76375023Y-81474500D01*
X76422642Y-81617357D01*
X76422642Y-82403071D01*
X77660737Y-82403071D02*
X77660737Y-80903071D01*
X77660737Y-81474500D02*
X77755975Y-81403071D01*
X77946452Y-81403071D01*
X78041690Y-81474500D01*
X78089309Y-81545929D01*
X78136928Y-81688786D01*
X78136928Y-82117357D01*
X78089309Y-82260214D01*
X78041690Y-82331643D01*
X77946452Y-82403071D01*
X77755975Y-82403071D01*
X77660737Y-82331643D01*
X78470261Y-81403071D02*
X78708356Y-82403071D01*
X78946452Y-81403071D02*
X78708356Y-82403071D01*
X78613118Y-82760214D01*
X78565499Y-82831643D01*
X78470261Y-82903071D01*
X80375024Y-80903071D02*
X80375024Y-81974500D01*
X80327404Y-82188786D01*
X80232166Y-82331643D01*
X80089309Y-82403071D01*
X79994071Y-82403071D01*
X80994071Y-82403071D02*
X80898833Y-82331643D01*
X80851214Y-82260214D01*
X80803595Y-82117357D01*
X80803595Y-81688786D01*
X80851214Y-81545929D01*
X80898833Y-81474500D01*
X80994071Y-81403071D01*
X81136929Y-81403071D01*
X81232167Y-81474500D01*
X81279786Y-81545929D01*
X81327405Y-81688786D01*
X81327405Y-82117357D01*
X81279786Y-82260214D01*
X81232167Y-82331643D01*
X81136929Y-82403071D01*
X80994071Y-82403071D01*
X81755976Y-82403071D02*
X81755976Y-80903071D01*
X82184548Y-82403071D02*
X82184548Y-81617357D01*
X82136929Y-81474500D01*
X82041691Y-81403071D01*
X81898833Y-81403071D01*
X81803595Y-81474500D01*
X81755976Y-81545929D01*
X82660738Y-81403071D02*
X82660738Y-82403071D01*
X82660738Y-81545929D02*
X82708357Y-81474500D01*
X82803595Y-81403071D01*
X82946453Y-81403071D01*
X83041691Y-81474500D01*
X83089310Y-81617357D01*
X83089310Y-82403071D01*
X84660739Y-81617357D02*
X84327405Y-81617357D01*
X84327405Y-82403071D02*
X84327405Y-80903071D01*
X84803596Y-80903071D01*
X85184548Y-82403071D02*
X85184548Y-81403071D01*
X85184548Y-81688786D02*
X85232167Y-81545929D01*
X85279786Y-81474500D01*
X85375024Y-81403071D01*
X85470263Y-81403071D01*
X85803596Y-82403071D02*
X85803596Y-81403071D01*
X85803596Y-80903071D02*
X85755977Y-80974500D01*
X85803596Y-81045929D01*
X85851215Y-80974500D01*
X85803596Y-80903071D01*
X85803596Y-81045929D01*
X86136929Y-81403071D02*
X86517881Y-81403071D01*
X86279786Y-80903071D02*
X86279786Y-82188786D01*
X86327405Y-82331643D01*
X86422643Y-82403071D01*
X86517881Y-82403071D01*
X86755977Y-81403071D02*
X87279787Y-81403071D01*
X86755977Y-82403071D01*
X87279787Y-82403071D01*
D13*
X62884857Y-41233667D02*
X63742000Y-41233667D01*
X62713429Y-42033667D02*
X63313429Y-39233667D01*
X63913429Y-42033667D01*
X64256286Y-39233667D02*
X65284857Y-39233667D01*
X64770571Y-42033667D02*
X64770571Y-39233667D01*
X65884857Y-42033667D02*
X65884857Y-40167000D01*
X65884857Y-40433667D02*
X65970572Y-40300333D01*
X66142000Y-40167000D01*
X66399143Y-40167000D01*
X66570572Y-40300333D01*
X66656286Y-40567000D01*
X66656286Y-42033667D01*
X66656286Y-40567000D02*
X66742000Y-40300333D01*
X66913429Y-40167000D01*
X67170572Y-40167000D01*
X67342000Y-40300333D01*
X67427715Y-40567000D01*
X67427715Y-42033667D01*
X68970572Y-41900333D02*
X68799143Y-42033667D01*
X68456286Y-42033667D01*
X68284857Y-41900333D01*
X68199143Y-41633667D01*
X68199143Y-40567000D01*
X68284857Y-40300333D01*
X68456286Y-40167000D01*
X68799143Y-40167000D01*
X68970572Y-40300333D01*
X69056286Y-40567000D01*
X69056286Y-40833667D01*
X68199143Y-41100333D01*
X70599143Y-40167000D02*
X70599143Y-42433667D01*
X70513429Y-42700333D01*
X70427714Y-42833667D01*
X70256286Y-42967000D01*
X69999143Y-42967000D01*
X69827714Y-42833667D01*
X70599143Y-41900333D02*
X70427714Y-42033667D01*
X70084857Y-42033667D01*
X69913429Y-41900333D01*
X69827714Y-41767000D01*
X69742000Y-41500333D01*
X69742000Y-40700333D01*
X69827714Y-40433667D01*
X69913429Y-40300333D01*
X70084857Y-40167000D01*
X70427714Y-40167000D01*
X70599143Y-40300333D01*
X72227714Y-42033667D02*
X72227714Y-40567000D01*
X72142000Y-40300333D01*
X71970571Y-40167000D01*
X71627714Y-40167000D01*
X71456285Y-40300333D01*
X72227714Y-41900333D02*
X72056285Y-42033667D01*
X71627714Y-42033667D01*
X71456285Y-41900333D01*
X71370571Y-41633667D01*
X71370571Y-41367000D01*
X71456285Y-41100333D01*
X71627714Y-40967000D01*
X72056285Y-40967000D01*
X72227714Y-40833667D01*
X72913428Y-39233667D02*
X74113428Y-42033667D01*
X74113428Y-39233667D02*
X72913428Y-42033667D01*
X74627714Y-39233667D02*
X75827714Y-42033667D01*
X75827714Y-39233667D02*
X74627714Y-42033667D01*
X76513428Y-42033667D02*
X76513428Y-39233667D01*
X77113428Y-41233667D01*
X77713428Y-39233667D01*
X77713428Y-42033667D01*
X79513429Y-42033667D02*
X78484857Y-42033667D01*
X78999143Y-42033667D02*
X78999143Y-39233667D01*
X78827714Y-39633667D01*
X78656286Y-39900333D01*
X78484857Y-40033667D01*
X82684858Y-41767000D02*
X82599144Y-41900333D01*
X82342001Y-42033667D01*
X82170572Y-42033667D01*
X81913429Y-41900333D01*
X81742001Y-41633667D01*
X81656286Y-41367000D01*
X81570572Y-40833667D01*
X81570572Y-40433667D01*
X81656286Y-39900333D01*
X81742001Y-39633667D01*
X81913429Y-39367000D01*
X82170572Y-39233667D01*
X82342001Y-39233667D01*
X82599144Y-39367000D01*
X82684858Y-39500333D01*
X83370572Y-41233667D02*
X84227715Y-41233667D01*
X83199144Y-42033667D02*
X83799144Y-39233667D01*
X84399144Y-42033667D01*
X84999143Y-42033667D02*
X84999143Y-39233667D01*
X86027715Y-42033667D01*
X86027715Y-39233667D01*
X88856286Y-40567000D02*
X89113429Y-40700333D01*
X89199144Y-40833667D01*
X89284858Y-41100333D01*
X89284858Y-41500333D01*
X89199144Y-41767000D01*
X89113429Y-41900333D01*
X88942001Y-42033667D01*
X88256286Y-42033667D01*
X88256286Y-39233667D01*
X88856286Y-39233667D01*
X89027715Y-39367000D01*
X89113429Y-39500333D01*
X89199144Y-39767000D01*
X89199144Y-40033667D01*
X89113429Y-40300333D01*
X89027715Y-40433667D01*
X88856286Y-40567000D01*
X88256286Y-40567000D01*
X91084858Y-42033667D02*
X90484858Y-40700333D01*
X90056286Y-42033667D02*
X90056286Y-39233667D01*
X90742001Y-39233667D01*
X90913429Y-39367000D01*
X90999144Y-39500333D01*
X91084858Y-39767000D01*
X91084858Y-40167000D01*
X90999144Y-40433667D01*
X90913429Y-40567000D01*
X90742001Y-40700333D01*
X90056286Y-40700333D01*
X91856286Y-40567000D02*
X92456286Y-40567000D01*
X92713429Y-42033667D02*
X91856286Y-42033667D01*
X91856286Y-39233667D01*
X92713429Y-39233667D01*
X93399143Y-41233667D02*
X94256286Y-41233667D01*
X93227715Y-42033667D02*
X93827715Y-39233667D01*
X94427715Y-42033667D01*
X95027714Y-42033667D02*
X95027714Y-39233667D01*
X96056286Y-42033667D02*
X95284857Y-40433667D01*
X96056286Y-39233667D02*
X95027714Y-40833667D01*
X97170572Y-39233667D02*
X97513429Y-39233667D01*
X97684857Y-39367000D01*
X97856286Y-39633667D01*
X97942000Y-40167000D01*
X97942000Y-41100333D01*
X97856286Y-41633667D01*
X97684857Y-41900333D01*
X97513429Y-42033667D01*
X97170572Y-42033667D01*
X96999143Y-41900333D01*
X96827714Y-41633667D01*
X96742000Y-41100333D01*
X96742000Y-40167000D01*
X96827714Y-39633667D01*
X96999143Y-39367000D01*
X97170572Y-39233667D01*
X98713428Y-39233667D02*
X98713428Y-41500333D01*
X98799143Y-41767000D01*
X98884857Y-41900333D01*
X99056286Y-42033667D01*
X99399143Y-42033667D01*
X99570571Y-41900333D01*
X99656286Y-41767000D01*
X99742000Y-41500333D01*
X99742000Y-39233667D01*
X100342000Y-39233667D02*
X101370571Y-39233667D01*
X100856285Y-42033667D02*
X100856285Y-39233667D01*
D14*
X108929714Y-70793428D02*
X108929714Y-71228856D01*
X108929714Y-71011142D02*
X108167714Y-71011142D01*
X108276571Y-71083713D01*
X108349143Y-71156285D01*
X108385429Y-71228856D01*
X108240286Y-70503142D02*
X108204000Y-70466856D01*
X108167714Y-70394285D01*
X108167714Y-70212856D01*
X108204000Y-70140285D01*
X108240286Y-70103999D01*
X108312857Y-70067714D01*
X108385429Y-70067714D01*
X108494286Y-70103999D01*
X108929714Y-70539428D01*
X108929714Y-70067714D01*
X108167714Y-69596000D02*
X108167714Y-69523428D01*
X108204000Y-69450857D01*
X108240286Y-69414571D01*
X108312857Y-69378285D01*
X108458000Y-69342000D01*
X108639429Y-69342000D01*
X108784571Y-69378285D01*
X108857143Y-69414571D01*
X108893429Y-69450857D01*
X108929714Y-69523428D01*
X108929714Y-69596000D01*
X108893429Y-69668571D01*
X108857143Y-69704857D01*
X108784571Y-69741142D01*
X108639429Y-69777428D01*
X108458000Y-69777428D01*
X108312857Y-69741142D01*
X108240286Y-69704857D01*
X108204000Y-69668571D01*
X108167714Y-69596000D01*
X108929714Y-69051714D02*
X108929714Y-68870286D01*
X108784571Y-68870286D01*
X108748286Y-68942857D01*
X108675714Y-69015428D01*
X108566857Y-69051714D01*
X108385429Y-69051714D01*
X108276571Y-69015428D01*
X108204000Y-68942857D01*
X108167714Y-68834000D01*
X108167714Y-68688857D01*
X108204000Y-68580000D01*
X108276571Y-68507428D01*
X108385429Y-68471143D01*
X108566857Y-68471143D01*
X108675714Y-68507428D01*
X108748286Y-68580000D01*
X108784571Y-68652571D01*
X108929714Y-68652571D01*
X108929714Y-68471143D01*
X71464714Y-54283428D02*
X70702714Y-54283428D01*
X70702714Y-53993143D01*
X70739000Y-53920571D01*
X70775286Y-53884286D01*
X70847857Y-53848000D01*
X70956714Y-53848000D01*
X71029286Y-53884286D01*
X71065571Y-53920571D01*
X71101857Y-53993143D01*
X71101857Y-54283428D01*
X71464714Y-53521428D02*
X70702714Y-53521428D01*
X70702714Y-53340000D01*
X70739000Y-53231143D01*
X70811571Y-53158571D01*
X70884143Y-53122286D01*
X71029286Y-53086000D01*
X71138143Y-53086000D01*
X71283286Y-53122286D01*
X71355857Y-53158571D01*
X71428429Y-53231143D01*
X71464714Y-53340000D01*
X71464714Y-53521428D01*
X70702714Y-52832000D02*
X70702714Y-52360286D01*
X70993000Y-52614286D01*
X70993000Y-52505428D01*
X71029286Y-52432857D01*
X71065571Y-52396571D01*
X71138143Y-52360286D01*
X71319571Y-52360286D01*
X71392143Y-52396571D01*
X71428429Y-52432857D01*
X71464714Y-52505428D01*
X71464714Y-52723143D01*
X71428429Y-52795714D01*
X71392143Y-52832000D01*
X71464714Y-47933428D02*
X70702714Y-47933428D01*
X70702714Y-47643143D01*
X70739000Y-47570571D01*
X70775286Y-47534286D01*
X70847857Y-47498000D01*
X70956714Y-47498000D01*
X71029286Y-47534286D01*
X71065571Y-47570571D01*
X71101857Y-47643143D01*
X71101857Y-47933428D01*
X71464714Y-47171428D02*
X70702714Y-47171428D01*
X70702714Y-46990000D01*
X70739000Y-46881143D01*
X70811571Y-46808571D01*
X70884143Y-46772286D01*
X71029286Y-46736000D01*
X71138143Y-46736000D01*
X71283286Y-46772286D01*
X71355857Y-46808571D01*
X71428429Y-46881143D01*
X71464714Y-46990000D01*
X71464714Y-47171428D01*
X70956714Y-46082857D02*
X71464714Y-46082857D01*
X70666429Y-46264286D02*
X71210714Y-46445714D01*
X71210714Y-45974000D01*
X54501144Y-48604714D02*
X54501144Y-47842714D01*
X54827715Y-48568429D02*
X54936572Y-48604714D01*
X55118001Y-48604714D01*
X55190572Y-48568429D01*
X55226858Y-48532143D01*
X55263143Y-48459571D01*
X55263143Y-48387000D01*
X55226858Y-48314429D01*
X55190572Y-48278143D01*
X55118001Y-48241857D01*
X54972858Y-48205571D01*
X54900286Y-48169286D01*
X54864001Y-48133000D01*
X54827715Y-48060429D01*
X54827715Y-47987857D01*
X54864001Y-47915286D01*
X54900286Y-47879000D01*
X54972858Y-47842714D01*
X55154286Y-47842714D01*
X55263143Y-47879000D01*
X55589715Y-48604714D02*
X55589715Y-47842714D01*
X55880000Y-47842714D01*
X55952572Y-47879000D01*
X55988857Y-47915286D01*
X56025143Y-47987857D01*
X56025143Y-48096714D01*
X55988857Y-48169286D01*
X55952572Y-48205571D01*
X55880000Y-48241857D01*
X55589715Y-48241857D01*
X64479714Y-48677285D02*
X64116857Y-48931285D01*
X64479714Y-49112713D02*
X63717714Y-49112713D01*
X63717714Y-48822428D01*
X63754000Y-48749856D01*
X63790286Y-48713571D01*
X63862857Y-48677285D01*
X63971714Y-48677285D01*
X64044286Y-48713571D01*
X64080571Y-48749856D01*
X64116857Y-48822428D01*
X64116857Y-49112713D01*
X64443429Y-48386999D02*
X64479714Y-48278142D01*
X64479714Y-48096713D01*
X64443429Y-48024142D01*
X64407143Y-47987856D01*
X64334571Y-47951571D01*
X64262000Y-47951571D01*
X64189429Y-47987856D01*
X64153143Y-48024142D01*
X64116857Y-48096713D01*
X64080571Y-48241856D01*
X64044286Y-48314428D01*
X64008000Y-48350713D01*
X63935429Y-48386999D01*
X63862857Y-48386999D01*
X63790286Y-48350713D01*
X63754000Y-48314428D01*
X63717714Y-48241856D01*
X63717714Y-48060428D01*
X63754000Y-47951571D01*
X63717714Y-47733857D02*
X63717714Y-47298428D01*
X64479714Y-47516142D02*
X63717714Y-47516142D01*
X63586360Y-49294142D02*
X63586360Y-47225857D01*
X105881714Y-66947143D02*
X105845428Y-66983429D01*
X105736571Y-67019714D01*
X105664000Y-67019714D01*
X105555143Y-66983429D01*
X105482571Y-66910857D01*
X105446286Y-66838286D01*
X105410000Y-66693143D01*
X105410000Y-66584286D01*
X105446286Y-66439143D01*
X105482571Y-66366571D01*
X105555143Y-66294000D01*
X105664000Y-66257714D01*
X105736571Y-66257714D01*
X105845428Y-66294000D01*
X105881714Y-66330286D01*
X106172000Y-66802000D02*
X106534857Y-66802000D01*
X106099428Y-67019714D02*
X106353428Y-66257714D01*
X106607428Y-67019714D01*
X106861429Y-67019714D02*
X106861429Y-66257714D01*
X107296857Y-67019714D01*
X107296857Y-66257714D01*
X108022572Y-67019714D02*
X107659715Y-67019714D01*
X107659715Y-66257714D01*
X105791000Y-58057143D02*
X105754714Y-58093429D01*
X105645857Y-58129714D01*
X105573286Y-58129714D01*
X105464429Y-58093429D01*
X105391857Y-58020857D01*
X105355572Y-57948286D01*
X105319286Y-57803143D01*
X105319286Y-57694286D01*
X105355572Y-57549143D01*
X105391857Y-57476571D01*
X105464429Y-57404000D01*
X105573286Y-57367714D01*
X105645857Y-57367714D01*
X105754714Y-57404000D01*
X105791000Y-57440286D01*
X106081286Y-57912000D02*
X106444143Y-57912000D01*
X106008714Y-58129714D02*
X106262714Y-57367714D01*
X106516714Y-58129714D01*
X106770715Y-58129714D02*
X106770715Y-57367714D01*
X107206143Y-58129714D01*
X107206143Y-57367714D01*
X107569001Y-58129714D02*
X107569001Y-57367714D01*
X107569001Y-57730571D02*
X108004429Y-57730571D01*
X108004429Y-58129714D02*
X108004429Y-57367714D01*
X61141428Y-65659000D02*
X61068857Y-65622714D01*
X60960000Y-65622714D01*
X60851143Y-65659000D01*
X60778571Y-65731571D01*
X60742286Y-65804143D01*
X60706000Y-65949286D01*
X60706000Y-66058143D01*
X60742286Y-66203286D01*
X60778571Y-66275857D01*
X60851143Y-66348429D01*
X60960000Y-66384714D01*
X61032571Y-66384714D01*
X61141428Y-66348429D01*
X61177714Y-66312143D01*
X61177714Y-66058143D01*
X61032571Y-66058143D01*
X61504286Y-66384714D02*
X61504286Y-65622714D01*
X61939714Y-66384714D01*
X61939714Y-65622714D01*
X62302572Y-66384714D02*
X62302572Y-65622714D01*
X62484000Y-65622714D01*
X62592857Y-65659000D01*
X62665429Y-65731571D01*
X62701714Y-65804143D01*
X62738000Y-65949286D01*
X62738000Y-66058143D01*
X62701714Y-66203286D01*
X62665429Y-66275857D01*
X62592857Y-66348429D01*
X62484000Y-66384714D01*
X62302572Y-66384714D01*
X61214000Y-63844714D02*
X60960000Y-63481857D01*
X60778572Y-63844714D02*
X60778572Y-63082714D01*
X61068857Y-63082714D01*
X61141429Y-63119000D01*
X61177714Y-63155286D01*
X61214000Y-63227857D01*
X61214000Y-63336714D01*
X61177714Y-63409286D01*
X61141429Y-63445571D01*
X61068857Y-63481857D01*
X60778572Y-63481857D01*
X61468000Y-63082714D02*
X61976000Y-63844714D01*
X61976000Y-63082714D02*
X61468000Y-63844714D01*
X60760429Y-60542714D02*
X61195858Y-60542714D01*
X60978144Y-61304714D02*
X60978144Y-60542714D01*
X61377286Y-60542714D02*
X61885286Y-61304714D01*
X61885286Y-60542714D02*
X61377286Y-61304714D01*
D15*
X64135000Y-77470000D02*
X62865000Y-77470000D01*
X63500000Y-76835000D02*
X63500000Y-78105000D01*
X63500000Y-74295000D02*
X63500000Y-75565000D01*
D14*
X103124001Y-53684714D02*
X103124001Y-52922714D01*
X103414286Y-52922714D01*
X103486858Y-52959000D01*
X103523143Y-52995286D01*
X103559429Y-53067857D01*
X103559429Y-53176714D01*
X103523143Y-53249286D01*
X103486858Y-53285571D01*
X103414286Y-53321857D01*
X103124001Y-53321857D01*
X104031143Y-52922714D02*
X104176286Y-52922714D01*
X104248858Y-52959000D01*
X104321429Y-53031571D01*
X104357715Y-53176714D01*
X104357715Y-53430714D01*
X104321429Y-53575857D01*
X104248858Y-53648429D01*
X104176286Y-53684714D01*
X104031143Y-53684714D01*
X103958572Y-53648429D01*
X103886001Y-53575857D01*
X103849715Y-53430714D01*
X103849715Y-53176714D01*
X103886001Y-53031571D01*
X103958572Y-52959000D01*
X104031143Y-52922714D01*
X105119715Y-53684714D02*
X104865715Y-53321857D01*
X104684287Y-53684714D02*
X104684287Y-52922714D01*
X104974572Y-52922714D01*
X105047144Y-52959000D01*
X105083429Y-52995286D01*
X105119715Y-53067857D01*
X105119715Y-53176714D01*
X105083429Y-53249286D01*
X105047144Y-53285571D01*
X104974572Y-53321857D01*
X104684287Y-53321857D01*
X105337429Y-52922714D02*
X105772858Y-52922714D01*
X105555144Y-53684714D02*
X105555144Y-52922714D01*
X106462286Y-53612143D02*
X106426000Y-53648429D01*
X106317143Y-53684714D01*
X106244572Y-53684714D01*
X106135715Y-53648429D01*
X106063143Y-53575857D01*
X106026858Y-53503286D01*
X105990572Y-53358143D01*
X105990572Y-53249286D01*
X106026858Y-53104143D01*
X106063143Y-53031571D01*
X106135715Y-52959000D01*
X106244572Y-52922714D01*
X106317143Y-52922714D01*
X106426000Y-52959000D01*
X106462286Y-52995286D01*
X103124001Y-49874714D02*
X103124001Y-49112714D01*
X103414286Y-49112714D01*
X103486858Y-49149000D01*
X103523143Y-49185286D01*
X103559429Y-49257857D01*
X103559429Y-49366714D01*
X103523143Y-49439286D01*
X103486858Y-49475571D01*
X103414286Y-49511857D01*
X103124001Y-49511857D01*
X104031143Y-49112714D02*
X104176286Y-49112714D01*
X104248858Y-49149000D01*
X104321429Y-49221571D01*
X104357715Y-49366714D01*
X104357715Y-49620714D01*
X104321429Y-49765857D01*
X104248858Y-49838429D01*
X104176286Y-49874714D01*
X104031143Y-49874714D01*
X103958572Y-49838429D01*
X103886001Y-49765857D01*
X103849715Y-49620714D01*
X103849715Y-49366714D01*
X103886001Y-49221571D01*
X103958572Y-49149000D01*
X104031143Y-49112714D01*
X105119715Y-49874714D02*
X104865715Y-49511857D01*
X104684287Y-49874714D02*
X104684287Y-49112714D01*
X104974572Y-49112714D01*
X105047144Y-49149000D01*
X105083429Y-49185286D01*
X105119715Y-49257857D01*
X105119715Y-49366714D01*
X105083429Y-49439286D01*
X105047144Y-49475571D01*
X104974572Y-49511857D01*
X104684287Y-49511857D01*
X105337429Y-49112714D02*
X105772858Y-49112714D01*
X105555144Y-49874714D02*
X105555144Y-49112714D01*
X106280858Y-49475571D02*
X106389715Y-49511857D01*
X106426000Y-49548143D01*
X106462286Y-49620714D01*
X106462286Y-49729571D01*
X106426000Y-49802143D01*
X106389715Y-49838429D01*
X106317143Y-49874714D01*
X106026858Y-49874714D01*
X106026858Y-49112714D01*
X106280858Y-49112714D01*
X106353429Y-49149000D01*
X106389715Y-49185286D01*
X106426000Y-49257857D01*
X106426000Y-49330429D01*
X106389715Y-49403000D01*
X106353429Y-49439286D01*
X106280858Y-49475571D01*
X106026858Y-49475571D01*
X103124001Y-46064714D02*
X103124001Y-45302714D01*
X103414286Y-45302714D01*
X103486858Y-45339000D01*
X103523143Y-45375286D01*
X103559429Y-45447857D01*
X103559429Y-45556714D01*
X103523143Y-45629286D01*
X103486858Y-45665571D01*
X103414286Y-45701857D01*
X103124001Y-45701857D01*
X104031143Y-45302714D02*
X104176286Y-45302714D01*
X104248858Y-45339000D01*
X104321429Y-45411571D01*
X104357715Y-45556714D01*
X104357715Y-45810714D01*
X104321429Y-45955857D01*
X104248858Y-46028429D01*
X104176286Y-46064714D01*
X104031143Y-46064714D01*
X103958572Y-46028429D01*
X103886001Y-45955857D01*
X103849715Y-45810714D01*
X103849715Y-45556714D01*
X103886001Y-45411571D01*
X103958572Y-45339000D01*
X104031143Y-45302714D01*
X105119715Y-46064714D02*
X104865715Y-45701857D01*
X104684287Y-46064714D02*
X104684287Y-45302714D01*
X104974572Y-45302714D01*
X105047144Y-45339000D01*
X105083429Y-45375286D01*
X105119715Y-45447857D01*
X105119715Y-45556714D01*
X105083429Y-45629286D01*
X105047144Y-45665571D01*
X104974572Y-45701857D01*
X104684287Y-45701857D01*
X105337429Y-45302714D02*
X105772858Y-45302714D01*
X105555144Y-46064714D02*
X105555144Y-45302714D01*
X106026858Y-46064714D02*
X106026858Y-45302714D01*
X106208286Y-45302714D01*
X106317143Y-45339000D01*
X106389715Y-45411571D01*
X106426000Y-45484143D01*
X106462286Y-45629286D01*
X106462286Y-45738143D01*
X106426000Y-45883286D01*
X106389715Y-45955857D01*
X106317143Y-46028429D01*
X106208286Y-46064714D01*
X106026858Y-46064714D01*
X78613000Y-46064714D02*
X78359000Y-45701857D01*
X78177572Y-46064714D02*
X78177572Y-45302714D01*
X78467857Y-45302714D01*
X78540429Y-45339000D01*
X78576714Y-45375286D01*
X78613000Y-45447857D01*
X78613000Y-45556714D01*
X78576714Y-45629286D01*
X78540429Y-45665571D01*
X78467857Y-45701857D01*
X78177572Y-45701857D01*
X78867000Y-45302714D02*
X79375000Y-46064714D01*
X79375000Y-45302714D02*
X78867000Y-46064714D01*
X78141286Y-48568429D02*
X78250143Y-48604714D01*
X78431572Y-48604714D01*
X78504143Y-48568429D01*
X78540429Y-48532143D01*
X78576714Y-48459571D01*
X78576714Y-48387000D01*
X78540429Y-48314429D01*
X78504143Y-48278143D01*
X78431572Y-48241857D01*
X78286429Y-48205571D01*
X78213857Y-48169286D01*
X78177572Y-48133000D01*
X78141286Y-48060429D01*
X78141286Y-47987857D01*
X78177572Y-47915286D01*
X78213857Y-47879000D01*
X78286429Y-47842714D01*
X78467857Y-47842714D01*
X78576714Y-47879000D01*
X79338714Y-48532143D02*
X79302428Y-48568429D01*
X79193571Y-48604714D01*
X79121000Y-48604714D01*
X79012143Y-48568429D01*
X78939571Y-48495857D01*
X78903286Y-48423286D01*
X78867000Y-48278143D01*
X78867000Y-48169286D01*
X78903286Y-48024143D01*
X78939571Y-47951571D01*
X79012143Y-47879000D01*
X79121000Y-47842714D01*
X79193571Y-47842714D01*
X79302428Y-47879000D01*
X79338714Y-47915286D01*
X79665286Y-48604714D02*
X79665286Y-47842714D01*
X80100714Y-48604714D02*
X79774143Y-48169286D01*
X80100714Y-47842714D02*
X79665286Y-48278143D01*
X78159429Y-51652714D02*
X78594858Y-51652714D01*
X78377144Y-52414714D02*
X78377144Y-51652714D01*
X78776286Y-51652714D02*
X79284286Y-52414714D01*
X79284286Y-51652714D02*
X78776286Y-52414714D01*
X78177572Y-54954714D02*
X78177572Y-54192714D01*
X78431572Y-54737000D01*
X78685572Y-54192714D01*
X78685572Y-54954714D01*
X79193571Y-54192714D02*
X79338714Y-54192714D01*
X79411286Y-54229000D01*
X79483857Y-54301571D01*
X79520143Y-54446714D01*
X79520143Y-54700714D01*
X79483857Y-54845857D01*
X79411286Y-54918429D01*
X79338714Y-54954714D01*
X79193571Y-54954714D01*
X79121000Y-54918429D01*
X79048429Y-54845857D01*
X79012143Y-54700714D01*
X79012143Y-54446714D01*
X79048429Y-54301571D01*
X79121000Y-54229000D01*
X79193571Y-54192714D01*
X79810429Y-54918429D02*
X79919286Y-54954714D01*
X80100715Y-54954714D01*
X80173286Y-54918429D01*
X80209572Y-54882143D01*
X80245857Y-54809571D01*
X80245857Y-54737000D01*
X80209572Y-54664429D01*
X80173286Y-54628143D01*
X80100715Y-54591857D01*
X79955572Y-54555571D01*
X79883000Y-54519286D01*
X79846715Y-54483000D01*
X79810429Y-54410429D01*
X79810429Y-54337857D01*
X79846715Y-54265286D01*
X79883000Y-54229000D01*
X79955572Y-54192714D01*
X80137000Y-54192714D01*
X80245857Y-54229000D01*
X80572429Y-54954714D02*
X80572429Y-54192714D01*
X101092000Y-64127742D02*
X101092000Y-63764885D01*
X101309714Y-64200314D02*
X100547714Y-63946314D01*
X101309714Y-63692314D01*
X101309714Y-63002885D02*
X100946857Y-63256885D01*
X101309714Y-63438313D02*
X100547714Y-63438313D01*
X100547714Y-63148028D01*
X100584000Y-63075456D01*
X100620286Y-63039171D01*
X100692857Y-63002885D01*
X100801714Y-63002885D01*
X100874286Y-63039171D01*
X100910571Y-63075456D01*
X100946857Y-63148028D01*
X100946857Y-63438313D01*
X100910571Y-62676313D02*
X100910571Y-62422313D01*
X101309714Y-62313456D02*
X101309714Y-62676313D01*
X100547714Y-62676313D01*
X100547714Y-62313456D01*
X100910571Y-61732884D02*
X100910571Y-61986884D01*
X101309714Y-61986884D02*
X100547714Y-61986884D01*
X100547714Y-61624027D01*
X101563714Y-61152313D02*
X100475143Y-61152313D01*
X101309714Y-60608027D02*
X100547714Y-60608027D01*
X100547714Y-60317742D01*
X100584000Y-60245170D01*
X100620286Y-60208885D01*
X100692857Y-60172599D01*
X100801714Y-60172599D01*
X100874286Y-60208885D01*
X100910571Y-60245170D01*
X100946857Y-60317742D01*
X100946857Y-60608027D01*
X100910571Y-59592027D02*
X100946857Y-59483170D01*
X100983143Y-59446885D01*
X101055714Y-59410599D01*
X101164571Y-59410599D01*
X101237143Y-59446885D01*
X101273429Y-59483170D01*
X101309714Y-59555742D01*
X101309714Y-59846027D01*
X100547714Y-59846027D01*
X100547714Y-59592027D01*
X100584000Y-59519456D01*
X100620286Y-59483170D01*
X100692857Y-59446885D01*
X100765429Y-59446885D01*
X100838000Y-59483170D01*
X100874286Y-59519456D01*
X100910571Y-59592027D01*
X100910571Y-59846027D01*
X100547714Y-59156599D02*
X100547714Y-58648599D01*
X101309714Y-58975170D01*
X101563714Y-58176885D02*
X100475143Y-58176885D01*
X101309714Y-57632599D02*
X100547714Y-57632599D01*
X100547714Y-57342314D01*
X100584000Y-57269742D01*
X100620286Y-57233457D01*
X100692857Y-57197171D01*
X100801714Y-57197171D01*
X100874286Y-57233457D01*
X100910571Y-57269742D01*
X100946857Y-57342314D01*
X100946857Y-57632599D01*
X101309714Y-56870599D02*
X100547714Y-56870599D01*
X100547714Y-56689171D01*
X100584000Y-56580314D01*
X100656571Y-56507742D01*
X100729143Y-56471457D01*
X100874286Y-56435171D01*
X100983143Y-56435171D01*
X101128286Y-56471457D01*
X101200857Y-56507742D01*
X101273429Y-56580314D01*
X101309714Y-56689171D01*
X101309714Y-56870599D01*
X100547714Y-56181171D02*
X100547714Y-55673171D01*
X101309714Y-55999742D01*
X98044000Y-63246000D02*
X98007714Y-63318571D01*
X98007714Y-63427428D01*
X98044000Y-63536285D01*
X98116571Y-63608857D01*
X98189143Y-63645142D01*
X98334286Y-63681428D01*
X98443143Y-63681428D01*
X98588286Y-63645142D01*
X98660857Y-63608857D01*
X98733429Y-63536285D01*
X98769714Y-63427428D01*
X98769714Y-63354857D01*
X98733429Y-63246000D01*
X98697143Y-63209714D01*
X98443143Y-63209714D01*
X98443143Y-63354857D01*
X98769714Y-62883142D02*
X98007714Y-62883142D01*
X98769714Y-62447714D01*
X98007714Y-62447714D01*
X98769714Y-62084856D02*
X98007714Y-62084856D01*
X98007714Y-61903428D01*
X98044000Y-61794571D01*
X98116571Y-61721999D01*
X98189143Y-61685714D01*
X98334286Y-61649428D01*
X98443143Y-61649428D01*
X98588286Y-61685714D01*
X98660857Y-61721999D01*
X98733429Y-61794571D01*
X98769714Y-61903428D01*
X98769714Y-62084856D01*
X99023714Y-61141428D02*
X97935143Y-61141428D01*
X98769714Y-60597142D02*
X98007714Y-60597142D01*
X98007714Y-60306857D01*
X98044000Y-60234285D01*
X98080286Y-60198000D01*
X98152857Y-60161714D01*
X98261714Y-60161714D01*
X98334286Y-60198000D01*
X98370571Y-60234285D01*
X98406857Y-60306857D01*
X98406857Y-60597142D01*
X98370571Y-59581142D02*
X98406857Y-59472285D01*
X98443143Y-59436000D01*
X98515714Y-59399714D01*
X98624571Y-59399714D01*
X98697143Y-59436000D01*
X98733429Y-59472285D01*
X98769714Y-59544857D01*
X98769714Y-59835142D01*
X98007714Y-59835142D01*
X98007714Y-59581142D01*
X98044000Y-59508571D01*
X98080286Y-59472285D01*
X98152857Y-59436000D01*
X98225429Y-59436000D01*
X98298000Y-59472285D01*
X98334286Y-59508571D01*
X98370571Y-59581142D01*
X98370571Y-59835142D01*
X98007714Y-58746571D02*
X98007714Y-58891714D01*
X98044000Y-58964285D01*
X98080286Y-59000571D01*
X98189143Y-59073142D01*
X98334286Y-59109428D01*
X98624571Y-59109428D01*
X98697143Y-59073142D01*
X98733429Y-59036857D01*
X98769714Y-58964285D01*
X98769714Y-58819142D01*
X98733429Y-58746571D01*
X98697143Y-58710285D01*
X98624571Y-58674000D01*
X98443143Y-58674000D01*
X98370571Y-58710285D01*
X98334286Y-58746571D01*
X98298000Y-58819142D01*
X98298000Y-58964285D01*
X98334286Y-59036857D01*
X98370571Y-59073142D01*
X98443143Y-59109428D01*
X99023714Y-58166000D02*
X97935143Y-58166000D01*
X98769714Y-57621714D02*
X98007714Y-57621714D01*
X98007714Y-57331429D01*
X98044000Y-57258857D01*
X98080286Y-57222572D01*
X98152857Y-57186286D01*
X98261714Y-57186286D01*
X98334286Y-57222572D01*
X98370571Y-57258857D01*
X98406857Y-57331429D01*
X98406857Y-57621714D01*
X98769714Y-56859714D02*
X98007714Y-56859714D01*
X98007714Y-56678286D01*
X98044000Y-56569429D01*
X98116571Y-56496857D01*
X98189143Y-56460572D01*
X98334286Y-56424286D01*
X98443143Y-56424286D01*
X98588286Y-56460572D01*
X98660857Y-56496857D01*
X98733429Y-56569429D01*
X98769714Y-56678286D01*
X98769714Y-56859714D01*
X98007714Y-55771143D02*
X98007714Y-55916286D01*
X98044000Y-55988857D01*
X98080286Y-56025143D01*
X98189143Y-56097714D01*
X98334286Y-56134000D01*
X98624571Y-56134000D01*
X98697143Y-56097714D01*
X98733429Y-56061429D01*
X98769714Y-55988857D01*
X98769714Y-55843714D01*
X98733429Y-55771143D01*
X98697143Y-55734857D01*
X98624571Y-55698572D01*
X98443143Y-55698572D01*
X98370571Y-55734857D01*
X98334286Y-55771143D01*
X98298000Y-55843714D01*
X98298000Y-55988857D01*
X98334286Y-56061429D01*
X98370571Y-56097714D01*
X98443143Y-56134000D01*
X96229714Y-63608856D02*
X95467714Y-63608856D01*
X95467714Y-63318571D01*
X95504000Y-63245999D01*
X95540286Y-63209714D01*
X95612857Y-63173428D01*
X95721714Y-63173428D01*
X95794286Y-63209714D01*
X95830571Y-63245999D01*
X95866857Y-63318571D01*
X95866857Y-63608856D01*
X96157143Y-62411428D02*
X96193429Y-62447714D01*
X96229714Y-62556571D01*
X96229714Y-62629142D01*
X96193429Y-62737999D01*
X96120857Y-62810571D01*
X96048286Y-62846856D01*
X95903143Y-62883142D01*
X95794286Y-62883142D01*
X95649143Y-62846856D01*
X95576571Y-62810571D01*
X95504000Y-62737999D01*
X95467714Y-62629142D01*
X95467714Y-62556571D01*
X95504000Y-62447714D01*
X95540286Y-62411428D01*
X95467714Y-62157428D02*
X95467714Y-61649428D01*
X96229714Y-61975999D01*
X96483714Y-61177714D02*
X95395143Y-61177714D01*
X96229714Y-60633428D02*
X95467714Y-60633428D01*
X95467714Y-60343143D01*
X95504000Y-60270571D01*
X95540286Y-60234286D01*
X95612857Y-60198000D01*
X95721714Y-60198000D01*
X95794286Y-60234286D01*
X95830571Y-60270571D01*
X95866857Y-60343143D01*
X95866857Y-60633428D01*
X95830571Y-59617428D02*
X95866857Y-59508571D01*
X95903143Y-59472286D01*
X95975714Y-59436000D01*
X96084571Y-59436000D01*
X96157143Y-59472286D01*
X96193429Y-59508571D01*
X96229714Y-59581143D01*
X96229714Y-59871428D01*
X95467714Y-59871428D01*
X95467714Y-59617428D01*
X95504000Y-59544857D01*
X95540286Y-59508571D01*
X95612857Y-59472286D01*
X95685429Y-59472286D01*
X95758000Y-59508571D01*
X95794286Y-59544857D01*
X95830571Y-59617428D01*
X95830571Y-59871428D01*
X95467714Y-58746571D02*
X95467714Y-59109428D01*
X95830571Y-59145714D01*
X95794286Y-59109428D01*
X95758000Y-59036857D01*
X95758000Y-58855428D01*
X95794286Y-58782857D01*
X95830571Y-58746571D01*
X95903143Y-58710286D01*
X96084571Y-58710286D01*
X96157143Y-58746571D01*
X96193429Y-58782857D01*
X96229714Y-58855428D01*
X96229714Y-59036857D01*
X96193429Y-59109428D01*
X96157143Y-59145714D01*
X96483714Y-58202286D02*
X95395143Y-58202286D01*
X96229714Y-57658000D02*
X95467714Y-57658000D01*
X95467714Y-57367715D01*
X95504000Y-57295143D01*
X95540286Y-57258858D01*
X95612857Y-57222572D01*
X95721714Y-57222572D01*
X95794286Y-57258858D01*
X95830571Y-57295143D01*
X95866857Y-57367715D01*
X95866857Y-57658000D01*
X96229714Y-56896000D02*
X95467714Y-56896000D01*
X95467714Y-56714572D01*
X95504000Y-56605715D01*
X95576571Y-56533143D01*
X95649143Y-56496858D01*
X95794286Y-56460572D01*
X95903143Y-56460572D01*
X96048286Y-56496858D01*
X96120857Y-56533143D01*
X96193429Y-56605715D01*
X96229714Y-56714572D01*
X96229714Y-56896000D01*
X95467714Y-55771143D02*
X95467714Y-56134000D01*
X95830571Y-56170286D01*
X95794286Y-56134000D01*
X95758000Y-56061429D01*
X95758000Y-55880000D01*
X95794286Y-55807429D01*
X95830571Y-55771143D01*
X95903143Y-55734858D01*
X96084571Y-55734858D01*
X96157143Y-55771143D01*
X96193429Y-55807429D01*
X96229714Y-55880000D01*
X96229714Y-56061429D01*
X96193429Y-56134000D01*
X96157143Y-56170286D01*
X93689714Y-63608856D02*
X92927714Y-63608856D01*
X92927714Y-63318571D01*
X92964000Y-63245999D01*
X93000286Y-63209714D01*
X93072857Y-63173428D01*
X93181714Y-63173428D01*
X93254286Y-63209714D01*
X93290571Y-63245999D01*
X93326857Y-63318571D01*
X93326857Y-63608856D01*
X93617143Y-62411428D02*
X93653429Y-62447714D01*
X93689714Y-62556571D01*
X93689714Y-62629142D01*
X93653429Y-62737999D01*
X93580857Y-62810571D01*
X93508286Y-62846856D01*
X93363143Y-62883142D01*
X93254286Y-62883142D01*
X93109143Y-62846856D01*
X93036571Y-62810571D01*
X92964000Y-62737999D01*
X92927714Y-62629142D01*
X92927714Y-62556571D01*
X92964000Y-62447714D01*
X93000286Y-62411428D01*
X92927714Y-61758285D02*
X92927714Y-61903428D01*
X92964000Y-61975999D01*
X93000286Y-62012285D01*
X93109143Y-62084856D01*
X93254286Y-62121142D01*
X93544571Y-62121142D01*
X93617143Y-62084856D01*
X93653429Y-62048571D01*
X93689714Y-61975999D01*
X93689714Y-61830856D01*
X93653429Y-61758285D01*
X93617143Y-61721999D01*
X93544571Y-61685714D01*
X93363143Y-61685714D01*
X93290571Y-61721999D01*
X93254286Y-61758285D01*
X93218000Y-61830856D01*
X93218000Y-61975999D01*
X93254286Y-62048571D01*
X93290571Y-62084856D01*
X93363143Y-62121142D01*
X93943714Y-61177714D02*
X92855143Y-61177714D01*
X93689714Y-60633428D02*
X92927714Y-60633428D01*
X92927714Y-60343143D01*
X92964000Y-60270571D01*
X93000286Y-60234286D01*
X93072857Y-60198000D01*
X93181714Y-60198000D01*
X93254286Y-60234286D01*
X93290571Y-60270571D01*
X93326857Y-60343143D01*
X93326857Y-60633428D01*
X93290571Y-59617428D02*
X93326857Y-59508571D01*
X93363143Y-59472286D01*
X93435714Y-59436000D01*
X93544571Y-59436000D01*
X93617143Y-59472286D01*
X93653429Y-59508571D01*
X93689714Y-59581143D01*
X93689714Y-59871428D01*
X92927714Y-59871428D01*
X92927714Y-59617428D01*
X92964000Y-59544857D01*
X93000286Y-59508571D01*
X93072857Y-59472286D01*
X93145429Y-59472286D01*
X93218000Y-59508571D01*
X93254286Y-59544857D01*
X93290571Y-59617428D01*
X93290571Y-59871428D01*
X93181714Y-58782857D02*
X93689714Y-58782857D01*
X92891429Y-58964286D02*
X93435714Y-59145714D01*
X93435714Y-58674000D01*
X93943714Y-58202286D02*
X92855143Y-58202286D01*
X93689714Y-57658000D02*
X92927714Y-57658000D01*
X92927714Y-57367715D01*
X92964000Y-57295143D01*
X93000286Y-57258858D01*
X93072857Y-57222572D01*
X93181714Y-57222572D01*
X93254286Y-57258858D01*
X93290571Y-57295143D01*
X93326857Y-57367715D01*
X93326857Y-57658000D01*
X93689714Y-56896000D02*
X92927714Y-56896000D01*
X92927714Y-56714572D01*
X92964000Y-56605715D01*
X93036571Y-56533143D01*
X93109143Y-56496858D01*
X93254286Y-56460572D01*
X93363143Y-56460572D01*
X93508286Y-56496858D01*
X93580857Y-56533143D01*
X93653429Y-56605715D01*
X93689714Y-56714572D01*
X93689714Y-56896000D01*
X93181714Y-55807429D02*
X93689714Y-55807429D01*
X92891429Y-55988858D02*
X93435714Y-56170286D01*
X93435714Y-55698572D01*
X91149714Y-63608856D02*
X90387714Y-63608856D01*
X90387714Y-63318571D01*
X90424000Y-63245999D01*
X90460286Y-63209714D01*
X90532857Y-63173428D01*
X90641714Y-63173428D01*
X90714286Y-63209714D01*
X90750571Y-63245999D01*
X90786857Y-63318571D01*
X90786857Y-63608856D01*
X91077143Y-62411428D02*
X91113429Y-62447714D01*
X91149714Y-62556571D01*
X91149714Y-62629142D01*
X91113429Y-62737999D01*
X91040857Y-62810571D01*
X90968286Y-62846856D01*
X90823143Y-62883142D01*
X90714286Y-62883142D01*
X90569143Y-62846856D01*
X90496571Y-62810571D01*
X90424000Y-62737999D01*
X90387714Y-62629142D01*
X90387714Y-62556571D01*
X90424000Y-62447714D01*
X90460286Y-62411428D01*
X90387714Y-61721999D02*
X90387714Y-62084856D01*
X90750571Y-62121142D01*
X90714286Y-62084856D01*
X90678000Y-62012285D01*
X90678000Y-61830856D01*
X90714286Y-61758285D01*
X90750571Y-61721999D01*
X90823143Y-61685714D01*
X91004571Y-61685714D01*
X91077143Y-61721999D01*
X91113429Y-61758285D01*
X91149714Y-61830856D01*
X91149714Y-62012285D01*
X91113429Y-62084856D01*
X91077143Y-62121142D01*
X91403714Y-61177714D02*
X90315143Y-61177714D01*
X91149714Y-60633428D02*
X90387714Y-60633428D01*
X90387714Y-60343143D01*
X90424000Y-60270571D01*
X90460286Y-60234286D01*
X90532857Y-60198000D01*
X90641714Y-60198000D01*
X90714286Y-60234286D01*
X90750571Y-60270571D01*
X90786857Y-60343143D01*
X90786857Y-60633428D01*
X90750571Y-59617428D02*
X90786857Y-59508571D01*
X90823143Y-59472286D01*
X90895714Y-59436000D01*
X91004571Y-59436000D01*
X91077143Y-59472286D01*
X91113429Y-59508571D01*
X91149714Y-59581143D01*
X91149714Y-59871428D01*
X90387714Y-59871428D01*
X90387714Y-59617428D01*
X90424000Y-59544857D01*
X90460286Y-59508571D01*
X90532857Y-59472286D01*
X90605429Y-59472286D01*
X90678000Y-59508571D01*
X90714286Y-59544857D01*
X90750571Y-59617428D01*
X90750571Y-59871428D01*
X90387714Y-59182000D02*
X90387714Y-58710286D01*
X90678000Y-58964286D01*
X90678000Y-58855428D01*
X90714286Y-58782857D01*
X90750571Y-58746571D01*
X90823143Y-58710286D01*
X91004571Y-58710286D01*
X91077143Y-58746571D01*
X91113429Y-58782857D01*
X91149714Y-58855428D01*
X91149714Y-59073143D01*
X91113429Y-59145714D01*
X91077143Y-59182000D01*
X91403714Y-58202286D02*
X90315143Y-58202286D01*
X91149714Y-57658000D02*
X90387714Y-57658000D01*
X90387714Y-57367715D01*
X90424000Y-57295143D01*
X90460286Y-57258858D01*
X90532857Y-57222572D01*
X90641714Y-57222572D01*
X90714286Y-57258858D01*
X90750571Y-57295143D01*
X90786857Y-57367715D01*
X90786857Y-57658000D01*
X91149714Y-56896000D02*
X90387714Y-56896000D01*
X90387714Y-56714572D01*
X90424000Y-56605715D01*
X90496571Y-56533143D01*
X90569143Y-56496858D01*
X90714286Y-56460572D01*
X90823143Y-56460572D01*
X90968286Y-56496858D01*
X91040857Y-56533143D01*
X91113429Y-56605715D01*
X91149714Y-56714572D01*
X91149714Y-56896000D01*
X90387714Y-56206572D02*
X90387714Y-55734858D01*
X90678000Y-55988858D01*
X90678000Y-55880000D01*
X90714286Y-55807429D01*
X90750571Y-55771143D01*
X90823143Y-55734858D01*
X91004571Y-55734858D01*
X91077143Y-55771143D01*
X91113429Y-55807429D01*
X91149714Y-55880000D01*
X91149714Y-56097715D01*
X91113429Y-56170286D01*
X91077143Y-56206572D01*
X88609714Y-63608856D02*
X87847714Y-63608856D01*
X87847714Y-63318571D01*
X87884000Y-63245999D01*
X87920286Y-63209714D01*
X87992857Y-63173428D01*
X88101714Y-63173428D01*
X88174286Y-63209714D01*
X88210571Y-63245999D01*
X88246857Y-63318571D01*
X88246857Y-63608856D01*
X88537143Y-62411428D02*
X88573429Y-62447714D01*
X88609714Y-62556571D01*
X88609714Y-62629142D01*
X88573429Y-62737999D01*
X88500857Y-62810571D01*
X88428286Y-62846856D01*
X88283143Y-62883142D01*
X88174286Y-62883142D01*
X88029143Y-62846856D01*
X87956571Y-62810571D01*
X87884000Y-62737999D01*
X87847714Y-62629142D01*
X87847714Y-62556571D01*
X87884000Y-62447714D01*
X87920286Y-62411428D01*
X88101714Y-61758285D02*
X88609714Y-61758285D01*
X87811429Y-61939714D02*
X88355714Y-62121142D01*
X88355714Y-61649428D01*
X88863714Y-61177714D02*
X87775143Y-61177714D01*
X88609714Y-60633428D02*
X87847714Y-60633428D01*
X87847714Y-60343143D01*
X87884000Y-60270571D01*
X87920286Y-60234286D01*
X87992857Y-60198000D01*
X88101714Y-60198000D01*
X88174286Y-60234286D01*
X88210571Y-60270571D01*
X88246857Y-60343143D01*
X88246857Y-60633428D01*
X88210571Y-59617428D02*
X88246857Y-59508571D01*
X88283143Y-59472286D01*
X88355714Y-59436000D01*
X88464571Y-59436000D01*
X88537143Y-59472286D01*
X88573429Y-59508571D01*
X88609714Y-59581143D01*
X88609714Y-59871428D01*
X87847714Y-59871428D01*
X87847714Y-59617428D01*
X87884000Y-59544857D01*
X87920286Y-59508571D01*
X87992857Y-59472286D01*
X88065429Y-59472286D01*
X88138000Y-59508571D01*
X88174286Y-59544857D01*
X88210571Y-59617428D01*
X88210571Y-59871428D01*
X87920286Y-59145714D02*
X87884000Y-59109428D01*
X87847714Y-59036857D01*
X87847714Y-58855428D01*
X87884000Y-58782857D01*
X87920286Y-58746571D01*
X87992857Y-58710286D01*
X88065429Y-58710286D01*
X88174286Y-58746571D01*
X88609714Y-59182000D01*
X88609714Y-58710286D01*
X88863714Y-58202286D02*
X87775143Y-58202286D01*
X88609714Y-57658000D02*
X87847714Y-57658000D01*
X87847714Y-57367715D01*
X87884000Y-57295143D01*
X87920286Y-57258858D01*
X87992857Y-57222572D01*
X88101714Y-57222572D01*
X88174286Y-57258858D01*
X88210571Y-57295143D01*
X88246857Y-57367715D01*
X88246857Y-57658000D01*
X88609714Y-56896000D02*
X87847714Y-56896000D01*
X87847714Y-56714572D01*
X87884000Y-56605715D01*
X87956571Y-56533143D01*
X88029143Y-56496858D01*
X88174286Y-56460572D01*
X88283143Y-56460572D01*
X88428286Y-56496858D01*
X88500857Y-56533143D01*
X88573429Y-56605715D01*
X88609714Y-56714572D01*
X88609714Y-56896000D01*
X87920286Y-56170286D02*
X87884000Y-56134000D01*
X87847714Y-56061429D01*
X87847714Y-55880000D01*
X87884000Y-55807429D01*
X87920286Y-55771143D01*
X87992857Y-55734858D01*
X88065429Y-55734858D01*
X88174286Y-55771143D01*
X88609714Y-56206572D01*
X88609714Y-55734858D01*
X86069714Y-63608856D02*
X85307714Y-63608856D01*
X85307714Y-63318571D01*
X85344000Y-63245999D01*
X85380286Y-63209714D01*
X85452857Y-63173428D01*
X85561714Y-63173428D01*
X85634286Y-63209714D01*
X85670571Y-63245999D01*
X85706857Y-63318571D01*
X85706857Y-63608856D01*
X85997143Y-62411428D02*
X86033429Y-62447714D01*
X86069714Y-62556571D01*
X86069714Y-62629142D01*
X86033429Y-62737999D01*
X85960857Y-62810571D01*
X85888286Y-62846856D01*
X85743143Y-62883142D01*
X85634286Y-62883142D01*
X85489143Y-62846856D01*
X85416571Y-62810571D01*
X85344000Y-62737999D01*
X85307714Y-62629142D01*
X85307714Y-62556571D01*
X85344000Y-62447714D01*
X85380286Y-62411428D01*
X86069714Y-61685714D02*
X86069714Y-62121142D01*
X86069714Y-61903428D02*
X85307714Y-61903428D01*
X85416571Y-61975999D01*
X85489143Y-62048571D01*
X85525429Y-62121142D01*
X86323714Y-61177714D02*
X85235143Y-61177714D01*
X86069714Y-60633428D02*
X85307714Y-60633428D01*
X85307714Y-60343143D01*
X85344000Y-60270571D01*
X85380286Y-60234286D01*
X85452857Y-60198000D01*
X85561714Y-60198000D01*
X85634286Y-60234286D01*
X85670571Y-60270571D01*
X85706857Y-60343143D01*
X85706857Y-60633428D01*
X85670571Y-59617428D02*
X85706857Y-59508571D01*
X85743143Y-59472286D01*
X85815714Y-59436000D01*
X85924571Y-59436000D01*
X85997143Y-59472286D01*
X86033429Y-59508571D01*
X86069714Y-59581143D01*
X86069714Y-59871428D01*
X85307714Y-59871428D01*
X85307714Y-59617428D01*
X85344000Y-59544857D01*
X85380286Y-59508571D01*
X85452857Y-59472286D01*
X85525429Y-59472286D01*
X85598000Y-59508571D01*
X85634286Y-59544857D01*
X85670571Y-59617428D01*
X85670571Y-59871428D01*
X86069714Y-58710286D02*
X86069714Y-59145714D01*
X86069714Y-58928000D02*
X85307714Y-58928000D01*
X85416571Y-59000571D01*
X85489143Y-59073143D01*
X85525429Y-59145714D01*
X86323714Y-58202286D02*
X85235143Y-58202286D01*
X86069714Y-57658000D02*
X85307714Y-57658000D01*
X85307714Y-57367715D01*
X85344000Y-57295143D01*
X85380286Y-57258858D01*
X85452857Y-57222572D01*
X85561714Y-57222572D01*
X85634286Y-57258858D01*
X85670571Y-57295143D01*
X85706857Y-57367715D01*
X85706857Y-57658000D01*
X86069714Y-56896000D02*
X85307714Y-56896000D01*
X85307714Y-56714572D01*
X85344000Y-56605715D01*
X85416571Y-56533143D01*
X85489143Y-56496858D01*
X85634286Y-56460572D01*
X85743143Y-56460572D01*
X85888286Y-56496858D01*
X85960857Y-56533143D01*
X86033429Y-56605715D01*
X86069714Y-56714572D01*
X86069714Y-56896000D01*
X86069714Y-55734858D02*
X86069714Y-56170286D01*
X86069714Y-55952572D02*
X85307714Y-55952572D01*
X85416571Y-56025143D01*
X85489143Y-56097715D01*
X85525429Y-56170286D01*
X83529714Y-63608856D02*
X82767714Y-63608856D01*
X82767714Y-63318571D01*
X82804000Y-63245999D01*
X82840286Y-63209714D01*
X82912857Y-63173428D01*
X83021714Y-63173428D01*
X83094286Y-63209714D01*
X83130571Y-63245999D01*
X83166857Y-63318571D01*
X83166857Y-63608856D01*
X83457143Y-62411428D02*
X83493429Y-62447714D01*
X83529714Y-62556571D01*
X83529714Y-62629142D01*
X83493429Y-62737999D01*
X83420857Y-62810571D01*
X83348286Y-62846856D01*
X83203143Y-62883142D01*
X83094286Y-62883142D01*
X82949143Y-62846856D01*
X82876571Y-62810571D01*
X82804000Y-62737999D01*
X82767714Y-62629142D01*
X82767714Y-62556571D01*
X82804000Y-62447714D01*
X82840286Y-62411428D01*
X82767714Y-61939714D02*
X82767714Y-61867142D01*
X82804000Y-61794571D01*
X82840286Y-61758285D01*
X82912857Y-61721999D01*
X83058000Y-61685714D01*
X83239429Y-61685714D01*
X83384571Y-61721999D01*
X83457143Y-61758285D01*
X83493429Y-61794571D01*
X83529714Y-61867142D01*
X83529714Y-61939714D01*
X83493429Y-62012285D01*
X83457143Y-62048571D01*
X83384571Y-62084856D01*
X83239429Y-62121142D01*
X83058000Y-62121142D01*
X82912857Y-62084856D01*
X82840286Y-62048571D01*
X82804000Y-62012285D01*
X82767714Y-61939714D01*
X83783714Y-61177714D02*
X82695143Y-61177714D01*
X83529714Y-60633428D02*
X82767714Y-60633428D01*
X82767714Y-60343143D01*
X82804000Y-60270571D01*
X82840286Y-60234286D01*
X82912857Y-60198000D01*
X83021714Y-60198000D01*
X83094286Y-60234286D01*
X83130571Y-60270571D01*
X83166857Y-60343143D01*
X83166857Y-60633428D01*
X83130571Y-59617428D02*
X83166857Y-59508571D01*
X83203143Y-59472286D01*
X83275714Y-59436000D01*
X83384571Y-59436000D01*
X83457143Y-59472286D01*
X83493429Y-59508571D01*
X83529714Y-59581143D01*
X83529714Y-59871428D01*
X82767714Y-59871428D01*
X82767714Y-59617428D01*
X82804000Y-59544857D01*
X82840286Y-59508571D01*
X82912857Y-59472286D01*
X82985429Y-59472286D01*
X83058000Y-59508571D01*
X83094286Y-59544857D01*
X83130571Y-59617428D01*
X83130571Y-59871428D01*
X82767714Y-58964286D02*
X82767714Y-58891714D01*
X82804000Y-58819143D01*
X82840286Y-58782857D01*
X82912857Y-58746571D01*
X83058000Y-58710286D01*
X83239429Y-58710286D01*
X83384571Y-58746571D01*
X83457143Y-58782857D01*
X83493429Y-58819143D01*
X83529714Y-58891714D01*
X83529714Y-58964286D01*
X83493429Y-59036857D01*
X83457143Y-59073143D01*
X83384571Y-59109428D01*
X83239429Y-59145714D01*
X83058000Y-59145714D01*
X82912857Y-59109428D01*
X82840286Y-59073143D01*
X82804000Y-59036857D01*
X82767714Y-58964286D01*
X83783714Y-58202286D02*
X82695143Y-58202286D01*
X83529714Y-57658000D02*
X82767714Y-57658000D01*
X82767714Y-57367715D01*
X82804000Y-57295143D01*
X82840286Y-57258858D01*
X82912857Y-57222572D01*
X83021714Y-57222572D01*
X83094286Y-57258858D01*
X83130571Y-57295143D01*
X83166857Y-57367715D01*
X83166857Y-57658000D01*
X83529714Y-56896000D02*
X82767714Y-56896000D01*
X82767714Y-56714572D01*
X82804000Y-56605715D01*
X82876571Y-56533143D01*
X82949143Y-56496858D01*
X83094286Y-56460572D01*
X83203143Y-56460572D01*
X83348286Y-56496858D01*
X83420857Y-56533143D01*
X83493429Y-56605715D01*
X83529714Y-56714572D01*
X83529714Y-56896000D01*
X82767714Y-55988858D02*
X82767714Y-55916286D01*
X82804000Y-55843715D01*
X82840286Y-55807429D01*
X82912857Y-55771143D01*
X83058000Y-55734858D01*
X83239429Y-55734858D01*
X83384571Y-55771143D01*
X83457143Y-55807429D01*
X83493429Y-55843715D01*
X83529714Y-55916286D01*
X83529714Y-55988858D01*
X83493429Y-56061429D01*
X83457143Y-56097715D01*
X83384571Y-56134000D01*
X83239429Y-56170286D01*
X83058000Y-56170286D01*
X82912857Y-56134000D01*
X82840286Y-56097715D01*
X82804000Y-56061429D01*
X82767714Y-55988858D01*
D16*
G36*
X66129832Y-80366009D02*
X66204342Y-80367430D01*
X66270563Y-80369534D01*
X66324284Y-80372299D01*
X66361295Y-80375706D01*
X66377389Y-80379734D01*
X66377599Y-80379998D01*
X66381999Y-80390289D01*
X66387546Y-80409871D01*
X66394728Y-80441169D01*
X66404032Y-80486607D01*
X66415944Y-80548609D01*
X66430951Y-80629600D01*
X66449540Y-80732005D01*
X66460161Y-80791050D01*
X66473724Y-80862774D01*
X66487012Y-80926164D01*
X66498997Y-80976804D01*
X66508649Y-81010279D01*
X66513930Y-81021667D01*
X66530069Y-81030877D01*
X66565170Y-81047260D01*
X66614490Y-81068877D01*
X66673288Y-81093787D01*
X66736822Y-81120050D01*
X66800352Y-81145726D01*
X66859135Y-81168875D01*
X66908430Y-81187557D01*
X66943495Y-81199833D01*
X66959060Y-81203800D01*
X66973259Y-81196874D01*
X67005290Y-81177406D01*
X67052132Y-81147355D01*
X67110766Y-81108682D01*
X67178172Y-81063349D01*
X67232895Y-81026000D01*
X67304859Y-80976957D01*
X67370266Y-80933095D01*
X67426108Y-80896373D01*
X67469378Y-80868751D01*
X67497068Y-80852187D01*
X67505820Y-80848200D01*
X67519453Y-80856956D01*
X67547459Y-80881199D01*
X67586837Y-80917887D01*
X67634583Y-80963980D01*
X67687697Y-81016437D01*
X67743174Y-81072217D01*
X67798014Y-81128280D01*
X67849214Y-81181584D01*
X67893771Y-81229089D01*
X67928685Y-81267755D01*
X67950951Y-81294540D01*
X67957700Y-81305871D01*
X67955171Y-81315628D01*
X67946756Y-81332721D01*
X67931211Y-81359054D01*
X67907291Y-81396531D01*
X67873751Y-81447058D01*
X67829348Y-81512537D01*
X67772838Y-81594873D01*
X67702975Y-81695970D01*
X67699590Y-81700857D01*
X67666150Y-81750654D01*
X67638926Y-81794089D01*
X67620845Y-81826293D01*
X67614800Y-81841920D01*
X67619567Y-81858997D01*
X67632601Y-81894717D01*
X67651997Y-81944449D01*
X67675851Y-82003561D01*
X67702258Y-82067423D01*
X67729315Y-82131402D01*
X67755116Y-82190868D01*
X67777759Y-82241188D01*
X67787299Y-82261470D01*
X67807854Y-82293256D01*
X67830570Y-82313099D01*
X67836415Y-82315315D01*
X67856151Y-82319263D01*
X67896869Y-82327063D01*
X67954575Y-82337963D01*
X68025271Y-82351209D01*
X68104963Y-82366048D01*
X68140940Y-82372720D01*
X68222115Y-82387950D01*
X68294911Y-82401978D01*
X68355606Y-82414057D01*
X68400476Y-82423439D01*
X68425798Y-82429376D01*
X68429865Y-82430750D01*
X68432733Y-82444707D01*
X68435300Y-82480558D01*
X68437452Y-82534794D01*
X68439075Y-82603911D01*
X68440054Y-82684400D01*
X68440299Y-82752394D01*
X68439960Y-82857298D01*
X68438869Y-82939064D01*
X68436917Y-82999945D01*
X68433996Y-83042196D01*
X68429995Y-83068068D01*
X68424806Y-83079817D01*
X68424425Y-83080146D01*
X68407787Y-83085955D01*
X68369905Y-83095319D01*
X68314556Y-83107429D01*
X68245518Y-83121475D01*
X68166568Y-83136648D01*
X68123936Y-83144518D01*
X68041409Y-83160125D01*
X67966906Y-83175322D01*
X67904203Y-83189247D01*
X67857075Y-83201042D01*
X67829295Y-83209847D01*
X67823809Y-83212891D01*
X67815075Y-83228751D01*
X67799062Y-83263749D01*
X67777599Y-83313378D01*
X67752515Y-83373133D01*
X67725640Y-83438504D01*
X67698801Y-83504987D01*
X67673829Y-83568072D01*
X67652551Y-83623253D01*
X67636797Y-83666023D01*
X67628396Y-83691875D01*
X67627500Y-83696667D01*
X67634418Y-83710040D01*
X67653816Y-83741156D01*
X67683655Y-83786912D01*
X67721899Y-83844207D01*
X67766509Y-83909941D01*
X67792600Y-83947957D01*
X67839969Y-84017686D01*
X67882029Y-84081462D01*
X67916721Y-84136010D01*
X67941984Y-84178051D01*
X67955760Y-84204309D01*
X67957700Y-84210648D01*
X67948944Y-84225947D01*
X67924221Y-84256330D01*
X67885848Y-84299254D01*
X67836144Y-84352172D01*
X67777424Y-84412539D01*
X67736686Y-84453408D01*
X67667690Y-84521797D01*
X67614215Y-84574081D01*
X67573900Y-84612192D01*
X67544384Y-84638064D01*
X67523305Y-84653629D01*
X67508303Y-84660821D01*
X67497016Y-84661572D01*
X67487084Y-84657817D01*
X67487038Y-84657792D01*
X67468193Y-84646148D01*
X67432068Y-84622462D01*
X67382264Y-84589149D01*
X67322386Y-84548622D01*
X67256038Y-84503298D01*
X67238983Y-84491583D01*
X67172693Y-84446504D01*
X67112898Y-84406798D01*
X67062937Y-84374603D01*
X67026146Y-84352060D01*
X67005865Y-84341307D01*
X67003542Y-84340700D01*
X66985970Y-84346248D01*
X66951683Y-84361178D01*
X66906375Y-84382917D01*
X66875576Y-84398516D01*
X66827133Y-84422367D01*
X66786898Y-84439999D01*
X66760224Y-84449185D01*
X66752750Y-84449608D01*
X66744484Y-84436144D01*
X66728561Y-84403192D01*
X66706825Y-84354818D01*
X66681117Y-84295089D01*
X66661833Y-84248916D01*
X66633827Y-84181114D01*
X66598595Y-84095935D01*
X66558655Y-83999458D01*
X66516525Y-83897761D01*
X66474722Y-83796926D01*
X66450599Y-83738777D01*
X66415842Y-83654441D01*
X66384543Y-83577390D01*
X66357976Y-83510847D01*
X66337414Y-83458040D01*
X66324130Y-83422193D01*
X66319400Y-83406531D01*
X66319400Y-83406517D01*
X66329093Y-83391908D01*
X66354741Y-83367891D01*
X66391191Y-83339192D01*
X66398775Y-83333699D01*
X66509443Y-83242402D01*
X66596089Y-83143527D01*
X66659183Y-83036213D01*
X66699196Y-82919603D01*
X66716601Y-82792838D01*
X66717485Y-82753200D01*
X66705177Y-82628937D01*
X66670319Y-82512171D01*
X66615217Y-82405176D01*
X66542178Y-82310227D01*
X66453510Y-82229597D01*
X66351520Y-82165561D01*
X66238514Y-82120393D01*
X66116799Y-82096368D01*
X66047791Y-82092987D01*
X65936190Y-82104689D01*
X65823075Y-82137200D01*
X65715907Y-82187566D01*
X65622147Y-82252835D01*
X65604580Y-82268418D01*
X65516671Y-82365943D01*
X65452044Y-82473579D01*
X65410804Y-82591087D01*
X65393054Y-82718229D01*
X65392300Y-82751869D01*
X65401355Y-82878752D01*
X65429459Y-82992511D01*
X65478017Y-83095790D01*
X65548438Y-83191228D01*
X65642126Y-83281470D01*
X65697388Y-83324913D01*
X65737421Y-83356492D01*
X65768043Y-83384265D01*
X65784472Y-83403744D01*
X65786000Y-83408113D01*
X65781296Y-83423619D01*
X65767932Y-83459736D01*
X65747030Y-83513632D01*
X65719711Y-83582477D01*
X65687095Y-83663438D01*
X65650305Y-83753685D01*
X65619232Y-83829186D01*
X65577950Y-83929154D01*
X65538062Y-84025873D01*
X65501044Y-84115754D01*
X65468374Y-84195207D01*
X65441529Y-84260641D01*
X65421984Y-84308466D01*
X65414059Y-84328000D01*
X65390050Y-84386666D01*
X65370968Y-84424108D01*
X65351595Y-84442386D01*
X65326716Y-84443563D01*
X65291113Y-84429699D01*
X65239571Y-84402858D01*
X65233214Y-84399473D01*
X65184159Y-84374308D01*
X65142268Y-84354526D01*
X65113348Y-84342782D01*
X65104675Y-84340700D01*
X65089193Y-84347629D01*
X65056289Y-84366986D01*
X65009344Y-84396622D01*
X64951740Y-84434390D01*
X64886856Y-84478142D01*
X64867984Y-84491076D01*
X64800616Y-84537193D01*
X64738732Y-84579147D01*
X64685966Y-84614505D01*
X64645953Y-84640837D01*
X64622328Y-84655711D01*
X64619538Y-84657285D01*
X64609423Y-84661364D01*
X64598361Y-84661232D01*
X64583977Y-84654959D01*
X64563895Y-84640617D01*
X64535739Y-84616275D01*
X64497134Y-84580003D01*
X64445704Y-84529873D01*
X64379074Y-84463953D01*
X64367974Y-84452933D01*
X64294082Y-84378907D01*
X64237306Y-84320419D01*
X64196124Y-84275745D01*
X64169016Y-84243164D01*
X64154462Y-84220952D01*
X64150942Y-84207388D01*
X64150993Y-84207086D01*
X64159311Y-84189462D01*
X64179962Y-84154334D01*
X64210811Y-84105079D01*
X64249724Y-84045071D01*
X64294569Y-83977686D01*
X64316832Y-83944801D01*
X64363305Y-83875873D01*
X64404525Y-83813481D01*
X64438447Y-83760825D01*
X64463025Y-83721106D01*
X64476214Y-83697523D01*
X64477900Y-83692832D01*
X64473164Y-83674432D01*
X64460201Y-83637315D01*
X64440874Y-83586050D01*
X64417045Y-83525208D01*
X64390579Y-83459359D01*
X64363339Y-83393074D01*
X64337188Y-83330922D01*
X64313990Y-83277474D01*
X64295609Y-83237300D01*
X64283907Y-83214970D01*
X64282048Y-83212504D01*
X64265136Y-83205437D01*
X64226983Y-83194981D01*
X64171388Y-83181997D01*
X64102152Y-83167349D01*
X64023074Y-83151901D01*
X63981075Y-83144154D01*
X63898591Y-83128823D01*
X63824105Y-83114196D01*
X63761399Y-83101078D01*
X63714254Y-83090276D01*
X63686453Y-83082597D01*
X63680975Y-83080169D01*
X63675744Y-83063849D01*
X63671459Y-83026713D01*
X63668119Y-82972936D01*
X63665725Y-82906693D01*
X63664276Y-82832160D01*
X63663773Y-82753513D01*
X63664216Y-82674928D01*
X63665604Y-82600579D01*
X63667937Y-82534643D01*
X63671216Y-82481295D01*
X63675441Y-82444710D01*
X63680611Y-82429065D01*
X63680975Y-82428874D01*
X63697504Y-82424914D01*
X63735328Y-82417054D01*
X63790763Y-82406020D01*
X63860129Y-82392540D01*
X63939745Y-82377339D01*
X63993167Y-82367270D01*
X64076967Y-82351185D01*
X64152454Y-82335994D01*
X64216029Y-82322479D01*
X64264093Y-82311421D01*
X64293047Y-82303602D01*
X64299874Y-82300672D01*
X64309576Y-82283979D01*
X64326580Y-82248466D01*
X64348927Y-82198796D01*
X64374662Y-82139631D01*
X64401826Y-82075634D01*
X64428463Y-82011467D01*
X64452616Y-81951794D01*
X64472327Y-81901276D01*
X64485641Y-81864577D01*
X64490599Y-81846359D01*
X64490600Y-81846269D01*
X64483793Y-81830756D01*
X64464978Y-81798011D01*
X64436563Y-81751715D01*
X64400952Y-81695551D01*
X64360555Y-81633199D01*
X64317777Y-81568340D01*
X64275025Y-81504658D01*
X64234707Y-81445831D01*
X64199229Y-81395543D01*
X64171144Y-81357662D01*
X64154083Y-81329099D01*
X64147700Y-81306726D01*
X64156360Y-81292614D01*
X64180338Y-81263980D01*
X64216626Y-81223865D01*
X64262220Y-81175314D01*
X64314113Y-81121370D01*
X64369300Y-81065075D01*
X64424773Y-81009473D01*
X64477528Y-80957607D01*
X64524558Y-80912520D01*
X64562857Y-80877254D01*
X64589420Y-80854854D01*
X64600630Y-80848200D01*
X64614762Y-80855125D01*
X64646679Y-80874576D01*
X64693322Y-80904563D01*
X64751632Y-80943099D01*
X64818549Y-80988196D01*
X64867198Y-81021449D01*
X64938625Y-81070209D01*
X65003876Y-81114119D01*
X65059802Y-81151108D01*
X65103252Y-81179110D01*
X65131076Y-81196053D01*
X65139356Y-81200176D01*
X65156825Y-81197238D01*
X65192934Y-81186063D01*
X65243008Y-81168494D01*
X65302374Y-81146375D01*
X65366356Y-81121549D01*
X65430282Y-81095862D01*
X65489476Y-81071156D01*
X65539265Y-81049276D01*
X65574975Y-81032066D01*
X65591521Y-81021800D01*
X65597947Y-81005634D01*
X65608036Y-80968047D01*
X65620980Y-80912623D01*
X65635969Y-80842945D01*
X65652197Y-80762595D01*
X65664682Y-80697541D01*
X65680963Y-80611829D01*
X65696044Y-80534321D01*
X65709212Y-80468542D01*
X65719750Y-80418015D01*
X65726945Y-80386267D01*
X65729735Y-80376866D01*
X65744410Y-80372943D01*
X65780261Y-80369845D01*
X65833080Y-80367551D01*
X65898655Y-80366041D01*
X65972779Y-80365294D01*
X66051241Y-80365290D01*
X66129832Y-80366009D01*
X66129832Y-80366009D01*
G37*
X66129832Y-80366009D02*
X66204342Y-80367430D01*
X66270563Y-80369534D01*
X66324284Y-80372299D01*
X66361295Y-80375706D01*
X66377389Y-80379734D01*
X66377599Y-80379998D01*
X66381999Y-80390289D01*
X66387546Y-80409871D01*
X66394728Y-80441169D01*
X66404032Y-80486607D01*
X66415944Y-80548609D01*
X66430951Y-80629600D01*
X66449540Y-80732005D01*
X66460161Y-80791050D01*
X66473724Y-80862774D01*
X66487012Y-80926164D01*
X66498997Y-80976804D01*
X66508649Y-81010279D01*
X66513930Y-81021667D01*
X66530069Y-81030877D01*
X66565170Y-81047260D01*
X66614490Y-81068877D01*
X66673288Y-81093787D01*
X66736822Y-81120050D01*
X66800352Y-81145726D01*
X66859135Y-81168875D01*
X66908430Y-81187557D01*
X66943495Y-81199833D01*
X66959060Y-81203800D01*
X66973259Y-81196874D01*
X67005290Y-81177406D01*
X67052132Y-81147355D01*
X67110766Y-81108682D01*
X67178172Y-81063349D01*
X67232895Y-81026000D01*
X67304859Y-80976957D01*
X67370266Y-80933095D01*
X67426108Y-80896373D01*
X67469378Y-80868751D01*
X67497068Y-80852187D01*
X67505820Y-80848200D01*
X67519453Y-80856956D01*
X67547459Y-80881199D01*
X67586837Y-80917887D01*
X67634583Y-80963980D01*
X67687697Y-81016437D01*
X67743174Y-81072217D01*
X67798014Y-81128280D01*
X67849214Y-81181584D01*
X67893771Y-81229089D01*
X67928685Y-81267755D01*
X67950951Y-81294540D01*
X67957700Y-81305871D01*
X67955171Y-81315628D01*
X67946756Y-81332721D01*
X67931211Y-81359054D01*
X67907291Y-81396531D01*
X67873751Y-81447058D01*
X67829348Y-81512537D01*
X67772838Y-81594873D01*
X67702975Y-81695970D01*
X67699590Y-81700857D01*
X67666150Y-81750654D01*
X67638926Y-81794089D01*
X67620845Y-81826293D01*
X67614800Y-81841920D01*
X67619567Y-81858997D01*
X67632601Y-81894717D01*
X67651997Y-81944449D01*
X67675851Y-82003561D01*
X67702258Y-82067423D01*
X67729315Y-82131402D01*
X67755116Y-82190868D01*
X67777759Y-82241188D01*
X67787299Y-82261470D01*
X67807854Y-82293256D01*
X67830570Y-82313099D01*
X67836415Y-82315315D01*
X67856151Y-82319263D01*
X67896869Y-82327063D01*
X67954575Y-82337963D01*
X68025271Y-82351209D01*
X68104963Y-82366048D01*
X68140940Y-82372720D01*
X68222115Y-82387950D01*
X68294911Y-82401978D01*
X68355606Y-82414057D01*
X68400476Y-82423439D01*
X68425798Y-82429376D01*
X68429865Y-82430750D01*
X68432733Y-82444707D01*
X68435300Y-82480558D01*
X68437452Y-82534794D01*
X68439075Y-82603911D01*
X68440054Y-82684400D01*
X68440299Y-82752394D01*
X68439960Y-82857298D01*
X68438869Y-82939064D01*
X68436917Y-82999945D01*
X68433996Y-83042196D01*
X68429995Y-83068068D01*
X68424806Y-83079817D01*
X68424425Y-83080146D01*
X68407787Y-83085955D01*
X68369905Y-83095319D01*
X68314556Y-83107429D01*
X68245518Y-83121475D01*
X68166568Y-83136648D01*
X68123936Y-83144518D01*
X68041409Y-83160125D01*
X67966906Y-83175322D01*
X67904203Y-83189247D01*
X67857075Y-83201042D01*
X67829295Y-83209847D01*
X67823809Y-83212891D01*
X67815075Y-83228751D01*
X67799062Y-83263749D01*
X67777599Y-83313378D01*
X67752515Y-83373133D01*
X67725640Y-83438504D01*
X67698801Y-83504987D01*
X67673829Y-83568072D01*
X67652551Y-83623253D01*
X67636797Y-83666023D01*
X67628396Y-83691875D01*
X67627500Y-83696667D01*
X67634418Y-83710040D01*
X67653816Y-83741156D01*
X67683655Y-83786912D01*
X67721899Y-83844207D01*
X67766509Y-83909941D01*
X67792600Y-83947957D01*
X67839969Y-84017686D01*
X67882029Y-84081462D01*
X67916721Y-84136010D01*
X67941984Y-84178051D01*
X67955760Y-84204309D01*
X67957700Y-84210648D01*
X67948944Y-84225947D01*
X67924221Y-84256330D01*
X67885848Y-84299254D01*
X67836144Y-84352172D01*
X67777424Y-84412539D01*
X67736686Y-84453408D01*
X67667690Y-84521797D01*
X67614215Y-84574081D01*
X67573900Y-84612192D01*
X67544384Y-84638064D01*
X67523305Y-84653629D01*
X67508303Y-84660821D01*
X67497016Y-84661572D01*
X67487084Y-84657817D01*
X67487038Y-84657792D01*
X67468193Y-84646148D01*
X67432068Y-84622462D01*
X67382264Y-84589149D01*
X67322386Y-84548622D01*
X67256038Y-84503298D01*
X67238983Y-84491583D01*
X67172693Y-84446504D01*
X67112898Y-84406798D01*
X67062937Y-84374603D01*
X67026146Y-84352060D01*
X67005865Y-84341307D01*
X67003542Y-84340700D01*
X66985970Y-84346248D01*
X66951683Y-84361178D01*
X66906375Y-84382917D01*
X66875576Y-84398516D01*
X66827133Y-84422367D01*
X66786898Y-84439999D01*
X66760224Y-84449185D01*
X66752750Y-84449608D01*
X66744484Y-84436144D01*
X66728561Y-84403192D01*
X66706825Y-84354818D01*
X66681117Y-84295089D01*
X66661833Y-84248916D01*
X66633827Y-84181114D01*
X66598595Y-84095935D01*
X66558655Y-83999458D01*
X66516525Y-83897761D01*
X66474722Y-83796926D01*
X66450599Y-83738777D01*
X66415842Y-83654441D01*
X66384543Y-83577390D01*
X66357976Y-83510847D01*
X66337414Y-83458040D01*
X66324130Y-83422193D01*
X66319400Y-83406531D01*
X66319400Y-83406517D01*
X66329093Y-83391908D01*
X66354741Y-83367891D01*
X66391191Y-83339192D01*
X66398775Y-83333699D01*
X66509443Y-83242402D01*
X66596089Y-83143527D01*
X66659183Y-83036213D01*
X66699196Y-82919603D01*
X66716601Y-82792838D01*
X66717485Y-82753200D01*
X66705177Y-82628937D01*
X66670319Y-82512171D01*
X66615217Y-82405176D01*
X66542178Y-82310227D01*
X66453510Y-82229597D01*
X66351520Y-82165561D01*
X66238514Y-82120393D01*
X66116799Y-82096368D01*
X66047791Y-82092987D01*
X65936190Y-82104689D01*
X65823075Y-82137200D01*
X65715907Y-82187566D01*
X65622147Y-82252835D01*
X65604580Y-82268418D01*
X65516671Y-82365943D01*
X65452044Y-82473579D01*
X65410804Y-82591087D01*
X65393054Y-82718229D01*
X65392300Y-82751869D01*
X65401355Y-82878752D01*
X65429459Y-82992511D01*
X65478017Y-83095790D01*
X65548438Y-83191228D01*
X65642126Y-83281470D01*
X65697388Y-83324913D01*
X65737421Y-83356492D01*
X65768043Y-83384265D01*
X65784472Y-83403744D01*
X65786000Y-83408113D01*
X65781296Y-83423619D01*
X65767932Y-83459736D01*
X65747030Y-83513632D01*
X65719711Y-83582477D01*
X65687095Y-83663438D01*
X65650305Y-83753685D01*
X65619232Y-83829186D01*
X65577950Y-83929154D01*
X65538062Y-84025873D01*
X65501044Y-84115754D01*
X65468374Y-84195207D01*
X65441529Y-84260641D01*
X65421984Y-84308466D01*
X65414059Y-84328000D01*
X65390050Y-84386666D01*
X65370968Y-84424108D01*
X65351595Y-84442386D01*
X65326716Y-84443563D01*
X65291113Y-84429699D01*
X65239571Y-84402858D01*
X65233214Y-84399473D01*
X65184159Y-84374308D01*
X65142268Y-84354526D01*
X65113348Y-84342782D01*
X65104675Y-84340700D01*
X65089193Y-84347629D01*
X65056289Y-84366986D01*
X65009344Y-84396622D01*
X64951740Y-84434390D01*
X64886856Y-84478142D01*
X64867984Y-84491076D01*
X64800616Y-84537193D01*
X64738732Y-84579147D01*
X64685966Y-84614505D01*
X64645953Y-84640837D01*
X64622328Y-84655711D01*
X64619538Y-84657285D01*
X64609423Y-84661364D01*
X64598361Y-84661232D01*
X64583977Y-84654959D01*
X64563895Y-84640617D01*
X64535739Y-84616275D01*
X64497134Y-84580003D01*
X64445704Y-84529873D01*
X64379074Y-84463953D01*
X64367974Y-84452933D01*
X64294082Y-84378907D01*
X64237306Y-84320419D01*
X64196124Y-84275745D01*
X64169016Y-84243164D01*
X64154462Y-84220952D01*
X64150942Y-84207388D01*
X64150993Y-84207086D01*
X64159311Y-84189462D01*
X64179962Y-84154334D01*
X64210811Y-84105079D01*
X64249724Y-84045071D01*
X64294569Y-83977686D01*
X64316832Y-83944801D01*
X64363305Y-83875873D01*
X64404525Y-83813481D01*
X64438447Y-83760825D01*
X64463025Y-83721106D01*
X64476214Y-83697523D01*
X64477900Y-83692832D01*
X64473164Y-83674432D01*
X64460201Y-83637315D01*
X64440874Y-83586050D01*
X64417045Y-83525208D01*
X64390579Y-83459359D01*
X64363339Y-83393074D01*
X64337188Y-83330922D01*
X64313990Y-83277474D01*
X64295609Y-83237300D01*
X64283907Y-83214970D01*
X64282048Y-83212504D01*
X64265136Y-83205437D01*
X64226983Y-83194981D01*
X64171388Y-83181997D01*
X64102152Y-83167349D01*
X64023074Y-83151901D01*
X63981075Y-83144154D01*
X63898591Y-83128823D01*
X63824105Y-83114196D01*
X63761399Y-83101078D01*
X63714254Y-83090276D01*
X63686453Y-83082597D01*
X63680975Y-83080169D01*
X63675744Y-83063849D01*
X63671459Y-83026713D01*
X63668119Y-82972936D01*
X63665725Y-82906693D01*
X63664276Y-82832160D01*
X63663773Y-82753513D01*
X63664216Y-82674928D01*
X63665604Y-82600579D01*
X63667937Y-82534643D01*
X63671216Y-82481295D01*
X63675441Y-82444710D01*
X63680611Y-82429065D01*
X63680975Y-82428874D01*
X63697504Y-82424914D01*
X63735328Y-82417054D01*
X63790763Y-82406020D01*
X63860129Y-82392540D01*
X63939745Y-82377339D01*
X63993167Y-82367270D01*
X64076967Y-82351185D01*
X64152454Y-82335994D01*
X64216029Y-82322479D01*
X64264093Y-82311421D01*
X64293047Y-82303602D01*
X64299874Y-82300672D01*
X64309576Y-82283979D01*
X64326580Y-82248466D01*
X64348927Y-82198796D01*
X64374662Y-82139631D01*
X64401826Y-82075634D01*
X64428463Y-82011467D01*
X64452616Y-81951794D01*
X64472327Y-81901276D01*
X64485641Y-81864577D01*
X64490599Y-81846359D01*
X64490600Y-81846269D01*
X64483793Y-81830756D01*
X64464978Y-81798011D01*
X64436563Y-81751715D01*
X64400952Y-81695551D01*
X64360555Y-81633199D01*
X64317777Y-81568340D01*
X64275025Y-81504658D01*
X64234707Y-81445831D01*
X64199229Y-81395543D01*
X64171144Y-81357662D01*
X64154083Y-81329099D01*
X64147700Y-81306726D01*
X64156360Y-81292614D01*
X64180338Y-81263980D01*
X64216626Y-81223865D01*
X64262220Y-81175314D01*
X64314113Y-81121370D01*
X64369300Y-81065075D01*
X64424773Y-81009473D01*
X64477528Y-80957607D01*
X64524558Y-80912520D01*
X64562857Y-80877254D01*
X64589420Y-80854854D01*
X64600630Y-80848200D01*
X64614762Y-80855125D01*
X64646679Y-80874576D01*
X64693322Y-80904563D01*
X64751632Y-80943099D01*
X64818549Y-80988196D01*
X64867198Y-81021449D01*
X64938625Y-81070209D01*
X65003876Y-81114119D01*
X65059802Y-81151108D01*
X65103252Y-81179110D01*
X65131076Y-81196053D01*
X65139356Y-81200176D01*
X65156825Y-81197238D01*
X65192934Y-81186063D01*
X65243008Y-81168494D01*
X65302374Y-81146375D01*
X65366356Y-81121549D01*
X65430282Y-81095862D01*
X65489476Y-81071156D01*
X65539265Y-81049276D01*
X65574975Y-81032066D01*
X65591521Y-81021800D01*
X65597947Y-81005634D01*
X65608036Y-80968047D01*
X65620980Y-80912623D01*
X65635969Y-80842945D01*
X65652197Y-80762595D01*
X65664682Y-80697541D01*
X65680963Y-80611829D01*
X65696044Y-80534321D01*
X65709212Y-80468542D01*
X65719750Y-80418015D01*
X65726945Y-80386267D01*
X65729735Y-80376866D01*
X65744410Y-80372943D01*
X65780261Y-80369845D01*
X65833080Y-80367551D01*
X65898655Y-80366041D01*
X65972779Y-80365294D01*
X66051241Y-80365290D01*
X66129832Y-80366009D01*
G36*
X98610057Y-79317209D02*
X98977273Y-79318136D01*
X99287816Y-79319864D01*
X99547285Y-79322489D01*
X99761279Y-79326105D01*
X99935396Y-79330808D01*
X100075235Y-79336692D01*
X100186395Y-79343853D01*
X100274475Y-79352385D01*
X100345072Y-79362383D01*
X100403786Y-79373943D01*
X100456216Y-79387158D01*
X100457000Y-79387374D01*
X100856171Y-79525337D01*
X101181071Y-79699521D01*
X101434994Y-79912205D01*
X101621232Y-80165665D01*
X101644002Y-80208257D01*
X101692168Y-80312414D01*
X101722622Y-80412616D01*
X101739073Y-80532596D01*
X101745231Y-80696085D01*
X101745357Y-80856666D01*
X101734893Y-81109592D01*
X101702991Y-81340287D01*
X101643755Y-81568631D01*
X101551289Y-81814503D01*
X101419695Y-82097784D01*
X101318449Y-82296000D01*
X101053475Y-82734011D01*
X100752921Y-83097925D01*
X100410611Y-83392106D01*
X100020371Y-83620917D01*
X99576026Y-83788723D01*
X99071402Y-83899887D01*
X99042950Y-83904268D01*
X98887848Y-83922582D01*
X98670049Y-83941353D01*
X98411498Y-83959035D01*
X98134139Y-83974085D01*
X97929469Y-83982627D01*
X97150539Y-84010500D01*
X96782353Y-84857166D01*
X96672661Y-85108263D01*
X96572810Y-85334675D01*
X96488209Y-85524307D01*
X96424269Y-85665062D01*
X96386403Y-85744847D01*
X96379918Y-85756750D01*
X96356463Y-85767082D01*
X96297208Y-85776074D01*
X96197414Y-85783806D01*
X96052337Y-85790354D01*
X95857237Y-85795798D01*
X95607371Y-85800215D01*
X95297997Y-85803684D01*
X94924374Y-85806283D01*
X94481759Y-85808089D01*
X93965410Y-85809183D01*
X93370587Y-85809641D01*
X93172600Y-85809666D01*
X89999531Y-85809666D01*
X90066663Y-85650916D01*
X90104051Y-85562180D01*
X90167726Y-85410710D01*
X90251240Y-85211855D01*
X90315710Y-85058250D01*
X91058951Y-85058250D01*
X91100052Y-85064038D01*
X91218370Y-85069486D01*
X91406455Y-85074497D01*
X91656858Y-85078974D01*
X91962130Y-85082822D01*
X92314821Y-85085944D01*
X92707483Y-85088243D01*
X93132665Y-85089622D01*
X93509531Y-85090000D01*
X95960062Y-85090000D01*
X96197698Y-84513415D01*
X96281581Y-84307477D01*
X96352473Y-84128835D01*
X96404644Y-83992297D01*
X96432361Y-83912668D01*
X96435334Y-83899582D01*
X96395528Y-83886195D01*
X96286210Y-83874942D01*
X96122524Y-83866776D01*
X95919614Y-83862648D01*
X95842667Y-83862333D01*
X95629669Y-83859973D01*
X95450630Y-83853491D01*
X95320695Y-83843785D01*
X95255009Y-83831753D01*
X95250000Y-83827191D01*
X95264917Y-83772256D01*
X95303806Y-83663913D01*
X95351903Y-83541441D01*
X95453806Y-83290833D01*
X97161653Y-83264779D01*
X97675571Y-83255818D01*
X98113342Y-83244981D01*
X98483484Y-83230952D01*
X98794517Y-83212410D01*
X99054958Y-83188038D01*
X99273325Y-83156518D01*
X99458137Y-83116529D01*
X99617911Y-83066754D01*
X99761167Y-83005875D01*
X99896423Y-82932571D01*
X100032195Y-82845526D01*
X100079144Y-82813157D01*
X100289335Y-82633521D01*
X100485503Y-82404490D01*
X100662604Y-82139167D01*
X100815594Y-81850658D01*
X100939430Y-81552069D01*
X101029068Y-81256504D01*
X101079464Y-80977068D01*
X101085573Y-80726866D01*
X101042353Y-80519003D01*
X100996750Y-80429010D01*
X100883508Y-80309430D01*
X100711903Y-80192497D01*
X100647500Y-80158166D01*
X100393500Y-80031166D01*
X96770154Y-80019239D01*
X93146808Y-80007311D01*
X92928975Y-80554037D01*
X92847571Y-80758526D01*
X92776018Y-80938594D01*
X92720892Y-81077669D01*
X92688770Y-81159179D01*
X92684876Y-81169215D01*
X92682363Y-81196335D01*
X92707159Y-81215250D01*
X92771267Y-81227398D01*
X92886692Y-81234219D01*
X93065438Y-81237152D01*
X93255804Y-81237666D01*
X93469670Y-81239936D01*
X93649635Y-81246172D01*
X93780610Y-81255514D01*
X93847508Y-81267102D01*
X93853000Y-81271711D01*
X93836842Y-81317478D01*
X93791002Y-81431509D01*
X93719433Y-81604371D01*
X93626090Y-81826630D01*
X93514925Y-82088852D01*
X93389892Y-82381603D01*
X93307503Y-82573461D01*
X92762006Y-83841166D01*
X92365587Y-83868178D01*
X92160021Y-83881075D01*
X91958163Y-83891875D01*
X91794529Y-83898786D01*
X91753875Y-83899928D01*
X91538583Y-83904666D01*
X91298742Y-84465583D01*
X91213276Y-84667568D01*
X91141255Y-84841782D01*
X91088645Y-84973488D01*
X91061409Y-85047944D01*
X91058951Y-85058250D01*
X90315710Y-85058250D01*
X90348147Y-84980967D01*
X90452000Y-84733394D01*
X90453354Y-84730166D01*
X90565940Y-84461705D01*
X90679883Y-84190019D01*
X90786302Y-83936282D01*
X90876315Y-83721671D01*
X90932733Y-83587166D01*
X91092554Y-83206166D01*
X91713740Y-83185000D01*
X92334927Y-83163833D01*
X92585964Y-82553646D01*
X92671952Y-82343770D01*
X92745252Y-82163215D01*
X92800365Y-82025656D01*
X92831792Y-81944770D01*
X92837000Y-81929229D01*
X92797192Y-81924115D01*
X92687865Y-81919816D01*
X92524167Y-81916697D01*
X92321245Y-81915120D01*
X92244334Y-81915000D01*
X92031329Y-81913950D01*
X91852286Y-81911067D01*
X91722351Y-81906750D01*
X91656671Y-81901399D01*
X91651667Y-81899371D01*
X91667425Y-81856199D01*
X91711534Y-81746405D01*
X91779244Y-81581297D01*
X91865808Y-81372180D01*
X91966477Y-81130363D01*
X92076501Y-80867151D01*
X92191132Y-80593852D01*
X92305622Y-80321773D01*
X92415221Y-80062221D01*
X92515181Y-79826502D01*
X92600754Y-79625924D01*
X92667190Y-79471793D01*
X92709741Y-79375416D01*
X92723420Y-79347469D01*
X92767729Y-79344442D01*
X92890617Y-79341376D01*
X93085992Y-79338316D01*
X93347765Y-79335306D01*
X93669847Y-79332393D01*
X94046149Y-79329622D01*
X94470581Y-79327037D01*
X94937054Y-79324685D01*
X95439477Y-79322611D01*
X95971763Y-79320860D01*
X96462493Y-79319617D01*
X97112387Y-79318288D01*
X97683213Y-79317380D01*
X98180570Y-79316988D01*
X98610057Y-79317209D01*
X98610057Y-79317209D01*
G37*
X98610057Y-79317209D02*
X98977273Y-79318136D01*
X99287816Y-79319864D01*
X99547285Y-79322489D01*
X99761279Y-79326105D01*
X99935396Y-79330808D01*
X100075235Y-79336692D01*
X100186395Y-79343853D01*
X100274475Y-79352385D01*
X100345072Y-79362383D01*
X100403786Y-79373943D01*
X100456216Y-79387158D01*
X100457000Y-79387374D01*
X100856171Y-79525337D01*
X101181071Y-79699521D01*
X101434994Y-79912205D01*
X101621232Y-80165665D01*
X101644002Y-80208257D01*
X101692168Y-80312414D01*
X101722622Y-80412616D01*
X101739073Y-80532596D01*
X101745231Y-80696085D01*
X101745357Y-80856666D01*
X101734893Y-81109592D01*
X101702991Y-81340287D01*
X101643755Y-81568631D01*
X101551289Y-81814503D01*
X101419695Y-82097784D01*
X101318449Y-82296000D01*
X101053475Y-82734011D01*
X100752921Y-83097925D01*
X100410611Y-83392106D01*
X100020371Y-83620917D01*
X99576026Y-83788723D01*
X99071402Y-83899887D01*
X99042950Y-83904268D01*
X98887848Y-83922582D01*
X98670049Y-83941353D01*
X98411498Y-83959035D01*
X98134139Y-83974085D01*
X97929469Y-83982627D01*
X97150539Y-84010500D01*
X96782353Y-84857166D01*
X96672661Y-85108263D01*
X96572810Y-85334675D01*
X96488209Y-85524307D01*
X96424269Y-85665062D01*
X96386403Y-85744847D01*
X96379918Y-85756750D01*
X96356463Y-85767082D01*
X96297208Y-85776074D01*
X96197414Y-85783806D01*
X96052337Y-85790354D01*
X95857237Y-85795798D01*
X95607371Y-85800215D01*
X95297997Y-85803684D01*
X94924374Y-85806283D01*
X94481759Y-85808089D01*
X93965410Y-85809183D01*
X93370587Y-85809641D01*
X93172600Y-85809666D01*
X89999531Y-85809666D01*
X90066663Y-85650916D01*
X90104051Y-85562180D01*
X90167726Y-85410710D01*
X90251240Y-85211855D01*
X90315710Y-85058250D01*
X91058951Y-85058250D01*
X91100052Y-85064038D01*
X91218370Y-85069486D01*
X91406455Y-85074497D01*
X91656858Y-85078974D01*
X91962130Y-85082822D01*
X92314821Y-85085944D01*
X92707483Y-85088243D01*
X93132665Y-85089622D01*
X93509531Y-85090000D01*
X95960062Y-85090000D01*
X96197698Y-84513415D01*
X96281581Y-84307477D01*
X96352473Y-84128835D01*
X96404644Y-83992297D01*
X96432361Y-83912668D01*
X96435334Y-83899582D01*
X96395528Y-83886195D01*
X96286210Y-83874942D01*
X96122524Y-83866776D01*
X95919614Y-83862648D01*
X95842667Y-83862333D01*
X95629669Y-83859973D01*
X95450630Y-83853491D01*
X95320695Y-83843785D01*
X95255009Y-83831753D01*
X95250000Y-83827191D01*
X95264917Y-83772256D01*
X95303806Y-83663913D01*
X95351903Y-83541441D01*
X95453806Y-83290833D01*
X97161653Y-83264779D01*
X97675571Y-83255818D01*
X98113342Y-83244981D01*
X98483484Y-83230952D01*
X98794517Y-83212410D01*
X99054958Y-83188038D01*
X99273325Y-83156518D01*
X99458137Y-83116529D01*
X99617911Y-83066754D01*
X99761167Y-83005875D01*
X99896423Y-82932571D01*
X100032195Y-82845526D01*
X100079144Y-82813157D01*
X100289335Y-82633521D01*
X100485503Y-82404490D01*
X100662604Y-82139167D01*
X100815594Y-81850658D01*
X100939430Y-81552069D01*
X101029068Y-81256504D01*
X101079464Y-80977068D01*
X101085573Y-80726866D01*
X101042353Y-80519003D01*
X100996750Y-80429010D01*
X100883508Y-80309430D01*
X100711903Y-80192497D01*
X100647500Y-80158166D01*
X100393500Y-80031166D01*
X96770154Y-80019239D01*
X93146808Y-80007311D01*
X92928975Y-80554037D01*
X92847571Y-80758526D01*
X92776018Y-80938594D01*
X92720892Y-81077669D01*
X92688770Y-81159179D01*
X92684876Y-81169215D01*
X92682363Y-81196335D01*
X92707159Y-81215250D01*
X92771267Y-81227398D01*
X92886692Y-81234219D01*
X93065438Y-81237152D01*
X93255804Y-81237666D01*
X93469670Y-81239936D01*
X93649635Y-81246172D01*
X93780610Y-81255514D01*
X93847508Y-81267102D01*
X93853000Y-81271711D01*
X93836842Y-81317478D01*
X93791002Y-81431509D01*
X93719433Y-81604371D01*
X93626090Y-81826630D01*
X93514925Y-82088852D01*
X93389892Y-82381603D01*
X93307503Y-82573461D01*
X92762006Y-83841166D01*
X92365587Y-83868178D01*
X92160021Y-83881075D01*
X91958163Y-83891875D01*
X91794529Y-83898786D01*
X91753875Y-83899928D01*
X91538583Y-83904666D01*
X91298742Y-84465583D01*
X91213276Y-84667568D01*
X91141255Y-84841782D01*
X91088645Y-84973488D01*
X91061409Y-85047944D01*
X91058951Y-85058250D01*
X90315710Y-85058250D01*
X90348147Y-84980967D01*
X90452000Y-84733394D01*
X90453354Y-84730166D01*
X90565940Y-84461705D01*
X90679883Y-84190019D01*
X90786302Y-83936282D01*
X90876315Y-83721671D01*
X90932733Y-83587166D01*
X91092554Y-83206166D01*
X91713740Y-83185000D01*
X92334927Y-83163833D01*
X92585964Y-82553646D01*
X92671952Y-82343770D01*
X92745252Y-82163215D01*
X92800365Y-82025656D01*
X92831792Y-81944770D01*
X92837000Y-81929229D01*
X92797192Y-81924115D01*
X92687865Y-81919816D01*
X92524167Y-81916697D01*
X92321245Y-81915120D01*
X92244334Y-81915000D01*
X92031329Y-81913950D01*
X91852286Y-81911067D01*
X91722351Y-81906750D01*
X91656671Y-81901399D01*
X91651667Y-81899371D01*
X91667425Y-81856199D01*
X91711534Y-81746405D01*
X91779244Y-81581297D01*
X91865808Y-81372180D01*
X91966477Y-81130363D01*
X92076501Y-80867151D01*
X92191132Y-80593852D01*
X92305622Y-80321773D01*
X92415221Y-80062221D01*
X92515181Y-79826502D01*
X92600754Y-79625924D01*
X92667190Y-79471793D01*
X92709741Y-79375416D01*
X92723420Y-79347469D01*
X92767729Y-79344442D01*
X92890617Y-79341376D01*
X93085992Y-79338316D01*
X93347765Y-79335306D01*
X93669847Y-79332393D01*
X94046149Y-79329622D01*
X94470581Y-79327037D01*
X94937054Y-79324685D01*
X95439477Y-79322611D01*
X95971763Y-79320860D01*
X96462493Y-79319617D01*
X97112387Y-79318288D01*
X97683213Y-79317380D01*
X98180570Y-79316988D01*
X98610057Y-79317209D01*
G36*
X97827520Y-81238233D02*
X98101573Y-81240283D01*
X98310102Y-81244337D01*
X98462678Y-81250919D01*
X98568870Y-81260550D01*
X98638246Y-81273753D01*
X98680377Y-81291050D01*
X98697143Y-81304190D01*
X98757370Y-81415623D01*
X98737539Y-81550479D01*
X98637435Y-81710146D01*
X98632857Y-81715737D01*
X98559307Y-81802358D01*
X98490481Y-81870826D01*
X98415593Y-81923417D01*
X98323859Y-81962411D01*
X98204491Y-81990085D01*
X98046704Y-82008716D01*
X97839711Y-82020583D01*
X97572728Y-82027963D01*
X97234968Y-82033134D01*
X97123250Y-82034533D01*
X96826518Y-82036939D01*
X96559656Y-82036703D01*
X96333723Y-82034028D01*
X96159779Y-82029121D01*
X96048882Y-82022188D01*
X96012000Y-82013878D01*
X96027574Y-81962229D01*
X96069391Y-81851845D01*
X96130095Y-81701707D01*
X96169067Y-81608595D01*
X96326133Y-81237666D01*
X97478376Y-81237666D01*
X97827520Y-81238233D01*
X97827520Y-81238233D01*
G37*
X97827520Y-81238233D02*
X98101573Y-81240283D01*
X98310102Y-81244337D01*
X98462678Y-81250919D01*
X98568870Y-81260550D01*
X98638246Y-81273753D01*
X98680377Y-81291050D01*
X98697143Y-81304190D01*
X98757370Y-81415623D01*
X98737539Y-81550479D01*
X98637435Y-81710146D01*
X98632857Y-81715737D01*
X98559307Y-81802358D01*
X98490481Y-81870826D01*
X98415593Y-81923417D01*
X98323859Y-81962411D01*
X98204491Y-81990085D01*
X98046704Y-82008716D01*
X97839711Y-82020583D01*
X97572728Y-82027963D01*
X97234968Y-82033134D01*
X97123250Y-82034533D01*
X96826518Y-82036939D01*
X96559656Y-82036703D01*
X96333723Y-82034028D01*
X96159779Y-82029121D01*
X96048882Y-82022188D01*
X96012000Y-82013878D01*
X96027574Y-81962229D01*
X96069391Y-81851845D01*
X96130095Y-81701707D01*
X96169067Y-81608595D01*
X96326133Y-81237666D01*
X97478376Y-81237666D01*
X97827520Y-81238233D01*
D17*
X100105981Y-70739000D02*
G75*
G03X100105981Y-70739000I-283981J0D01*
G01*
D18*
X99095000Y-71585000D02*
X98950000Y-71585000D01*
X99095000Y-75735000D02*
X98950000Y-75735000D01*
X93945000Y-75735000D02*
X94090000Y-75735000D01*
X93945000Y-71585000D02*
X94090000Y-71585000D01*
X99095000Y-71585000D02*
X99095000Y-75735000D01*
X93945000Y-71585000D02*
X93945000Y-75735000D01*
X102515000Y-54890000D02*
X100965000Y-54890000D01*
X100965000Y-51790000D02*
X102515000Y-51790000D01*
X102515000Y-51790000D02*
X102515000Y-54890000D01*
X99695000Y-52070000D02*
X99695000Y-54610000D01*
X91399360Y-77604620D02*
X91399360Y-65905380D01*
X86400640Y-65905380D02*
X86400640Y-77604620D01*
X91399360Y-65905380D02*
X90551000Y-65905380D01*
X86400640Y-65905380D02*
X87249000Y-65905380D01*
X91399360Y-77604620D02*
X90551000Y-77604620D01*
X86400640Y-77604620D02*
X87249000Y-77604620D01*
D17*
X66802000Y-70612000D02*
G75*
G03X66802000Y-70612000I-254000J0D01*
G01*
D18*
X67495000Y-69665000D02*
X67820000Y-69665000D01*
X67495000Y-62415000D02*
X67820000Y-62415000D01*
X74745000Y-62415000D02*
X74420000Y-62415000D01*
X74745000Y-69665000D02*
X74420000Y-69665000D01*
X67495000Y-69665000D02*
X67495000Y-69340000D01*
X74745000Y-69665000D02*
X74745000Y-69340000D01*
X74745000Y-62415000D02*
X74745000Y-62740000D01*
X67495000Y-62415000D02*
X67495000Y-62740000D01*
X71620000Y-72175000D02*
X70620000Y-72175000D01*
X70620000Y-73875000D02*
X71620000Y-73875000D01*
X73160000Y-59270000D02*
X74160000Y-59270000D01*
X74160000Y-57570000D02*
X73160000Y-57570000D01*
X70350000Y-57570000D02*
X69350000Y-57570000D01*
X69350000Y-59270000D02*
X70350000Y-59270000D01*
X65190000Y-76335000D02*
X65190000Y-77335000D01*
X66890000Y-77335000D02*
X66890000Y-76335000D01*
X80860000Y-77335000D02*
X80860000Y-76335000D01*
X79160000Y-76335000D02*
X79160000Y-77335000D01*
X81065000Y-69985000D02*
X81065000Y-70985000D01*
X82765000Y-70985000D02*
X82765000Y-69985000D01*
X83605000Y-68080000D02*
X83605000Y-69080000D01*
X85305000Y-69080000D02*
X85305000Y-68080000D01*
X96100000Y-67810000D02*
X96100000Y-66810000D01*
X94400000Y-66810000D02*
X94400000Y-67810000D01*
X77165000Y-74815000D02*
X74465000Y-74815000D01*
X77165000Y-76315000D02*
X74465000Y-76315000D01*
X75665000Y-75415000D02*
X75665000Y-75665000D01*
X75665000Y-75665000D02*
X75815000Y-75515000D01*
X75915000Y-75915000D02*
X75915000Y-75215000D01*
X75565000Y-75565000D02*
X75215000Y-75565000D01*
X75915000Y-75565000D02*
X75565000Y-75915000D01*
X75565000Y-75915000D02*
X75565000Y-75215000D01*
X75565000Y-75215000D02*
X75915000Y-75565000D01*
X58090000Y-57265000D02*
X60790000Y-57265000D01*
X58090000Y-55765000D02*
X60790000Y-55765000D01*
X59590000Y-56665000D02*
X59590000Y-56415000D01*
X59590000Y-56415000D02*
X59440000Y-56565000D01*
X59340000Y-56165000D02*
X59340000Y-56865000D01*
X59690000Y-56515000D02*
X60040000Y-56515000D01*
X59340000Y-56515000D02*
X59690000Y-56165000D01*
X59690000Y-56165000D02*
X59690000Y-56865000D01*
X59690000Y-56865000D02*
X59340000Y-56515000D01*
D17*
X61670000Y-79220000D02*
X55170000Y-79220000D01*
X61670000Y-73220000D02*
X61670000Y-79220000D01*
X55170000Y-73220000D02*
X61670000Y-73220000D01*
X55170000Y-79220000D02*
X55170000Y-73220000D01*
D18*
X58420000Y-79020000D02*
X56870000Y-79020000D01*
X56870000Y-77470000D02*
X56870000Y-79020000D01*
X59690000Y-78740000D02*
X59690000Y-76200000D01*
X57150000Y-73660000D02*
X57150000Y-76200000D01*
X57150000Y-76200000D02*
X59690000Y-76200000D01*
X59690000Y-76200000D02*
X59690000Y-73660000D01*
X59690000Y-73660000D02*
X57150000Y-73660000D01*
X84455000Y-48260000D02*
X102235000Y-48260000D01*
X102235000Y-48260000D02*
X102235000Y-50800000D01*
X102235000Y-50800000D02*
X84455000Y-50800000D01*
X81635000Y-47980000D02*
X83185000Y-47980000D01*
X84455000Y-48260000D02*
X84455000Y-50800000D01*
X83185000Y-51080000D02*
X81635000Y-51080000D01*
X81635000Y-51080000D02*
X81635000Y-47980000D01*
X84455000Y-52070000D02*
X99695000Y-52070000D01*
X99695000Y-52070000D02*
X99695000Y-54610000D01*
X99695000Y-54610000D02*
X84455000Y-54610000D01*
X81635000Y-51790000D02*
X83185000Y-51790000D01*
X84455000Y-52070000D02*
X84455000Y-54610000D01*
X83185000Y-54890000D02*
X81635000Y-54890000D01*
X81635000Y-54890000D02*
X81635000Y-51790000D01*
X84455000Y-44450000D02*
X102235000Y-44450000D01*
X102235000Y-44450000D02*
X102235000Y-46990000D01*
X102235000Y-46990000D02*
X84455000Y-46990000D01*
X81635000Y-44170000D02*
X83185000Y-44170000D01*
X84455000Y-44450000D02*
X84455000Y-46990000D01*
X83185000Y-47270000D02*
X81635000Y-47270000D01*
X81635000Y-47270000D02*
X81635000Y-44170000D01*
X72110000Y-52070000D02*
X72110000Y-50520000D01*
X73660000Y-50520000D02*
X72110000Y-50520000D01*
X72390000Y-53340000D02*
X74930000Y-53340000D01*
X74930000Y-53340000D02*
X74930000Y-50800000D01*
X74930000Y-50800000D02*
X77470000Y-50800000D01*
X77470000Y-50800000D02*
X77470000Y-55880000D01*
X77470000Y-55880000D02*
X72390000Y-55880000D01*
X72390000Y-55880000D02*
X72390000Y-53340000D01*
X72110000Y-45720000D02*
X72110000Y-44170000D01*
X73660000Y-44170000D02*
X72110000Y-44170000D01*
X72390000Y-46990000D02*
X74930000Y-46990000D01*
X74930000Y-46990000D02*
X74930000Y-44450000D01*
X74930000Y-44450000D02*
X77470000Y-44450000D01*
X77470000Y-44450000D02*
X77470000Y-49530000D01*
X77470000Y-49530000D02*
X72390000Y-49530000D01*
X72390000Y-49530000D02*
X72390000Y-46990000D01*
X104775000Y-71120000D02*
X102235000Y-71120000D01*
X107595000Y-71400000D02*
X106045000Y-71400000D01*
X104775000Y-71120000D02*
X104775000Y-68580000D01*
X106045000Y-68300000D02*
X107595000Y-68300000D01*
X107595000Y-68300000D02*
X107595000Y-71400000D01*
X104775000Y-68580000D02*
X102235000Y-68580000D01*
X102235000Y-68580000D02*
X102235000Y-71120000D01*
X57150000Y-46990000D02*
X57150000Y-52070000D01*
X56870000Y-44170000D02*
X58420000Y-44170000D01*
X59690000Y-44450000D02*
X59690000Y-46990000D01*
X59690000Y-46990000D02*
X57150000Y-46990000D01*
X57150000Y-52070000D02*
X62230000Y-52070000D01*
X62230000Y-52070000D02*
X62230000Y-46990000D01*
X56870000Y-44170000D02*
X56870000Y-45720000D01*
X62230000Y-44450000D02*
X59690000Y-44450000D01*
X62230000Y-46990000D02*
X62230000Y-44450000D01*
D17*
X103430000Y-59210000D02*
X109930000Y-59210000D01*
X103430000Y-65210000D02*
X103430000Y-59210000D01*
X109930000Y-65210000D02*
X103430000Y-65210000D01*
X109930000Y-59210000D02*
X109930000Y-65210000D01*
D18*
X106680000Y-59410000D02*
X108230000Y-59410000D01*
X108230000Y-60960000D02*
X108230000Y-59410000D01*
X105410000Y-59690000D02*
X105410000Y-62230000D01*
X107950000Y-64770000D02*
X107950000Y-62230000D01*
X107950000Y-62230000D02*
X105410000Y-62230000D01*
X105410000Y-62230000D02*
X105410000Y-64770000D01*
X105410000Y-64770000D02*
X107950000Y-64770000D01*
X57150000Y-62230000D02*
X57150000Y-67310000D01*
X57150000Y-67310000D02*
X59690000Y-67310000D01*
X59690000Y-67310000D02*
X59690000Y-62230000D01*
X59970000Y-59410000D02*
X59970000Y-60960000D01*
X59690000Y-62230000D02*
X57150000Y-62230000D01*
X56870000Y-60960000D02*
X56870000Y-59410000D01*
X56870000Y-59410000D02*
X59970000Y-59410000D01*
X68010000Y-46860000D02*
X68010000Y-49660000D01*
X68010000Y-49660000D02*
X66610000Y-49660000D01*
X66610000Y-49660000D02*
X66610000Y-46860000D01*
X66610000Y-46860000D02*
X68010000Y-46860000D01*
X69060000Y-51260000D02*
X68410000Y-51260000D01*
X65560000Y-51260000D02*
X66210000Y-51260000D01*
X66210000Y-45260000D02*
X65560000Y-45260000D01*
X69060000Y-45260000D02*
X68410000Y-45260000D01*
X69060000Y-51260000D02*
X69060000Y-45260000D01*
X65560000Y-45260000D02*
X65560000Y-51260000D01*
X70285000Y-75135000D02*
G75*
G03X70285000Y-75135000I-100000J0D01*
G01*
X70735000Y-75385000D02*
X70235000Y-75385000D01*
X70735000Y-78285000D02*
X70735000Y-75385000D01*
X70235000Y-78285000D02*
X70735000Y-78285000D01*
X70235000Y-75385000D02*
X70235000Y-78285000D01*
X76065000Y-77255000D02*
X75065000Y-77255000D01*
X75065000Y-78955000D02*
X76065000Y-78955000D01*
X63635000Y-54825000D02*
X64635000Y-54825000D01*
X64635000Y-53125000D02*
X63635000Y-53125000D01*
X59190000Y-54825000D02*
X60190000Y-54825000D01*
X60190000Y-53125000D02*
X59190000Y-53125000D01*
X98640000Y-67810000D02*
X98640000Y-66810000D01*
X96940000Y-66810000D02*
X96940000Y-67810000D01*
X105775000Y-72635000D02*
X103775000Y-72635000D01*
X103775000Y-74685000D02*
X105775000Y-74685000D01*
X99602714Y-74240571D02*
X100219571Y-74240571D01*
X100292143Y-74204286D01*
X100328429Y-74168000D01*
X100364714Y-74095429D01*
X100364714Y-73950286D01*
X100328429Y-73877714D01*
X100292143Y-73841429D01*
X100219571Y-73805143D01*
X99602714Y-73805143D01*
X99602714Y-73514857D02*
X99602714Y-73043143D01*
X99893000Y-73297143D01*
X99893000Y-73188285D01*
X99929286Y-73115714D01*
X99965571Y-73079428D01*
X100038143Y-73043143D01*
X100219571Y-73043143D01*
X100292143Y-73079428D01*
X100328429Y-73115714D01*
X100364714Y-73188285D01*
X100364714Y-73406000D01*
X100328429Y-73478571D01*
X100292143Y-73514857D01*
X85452857Y-77324857D02*
X85815714Y-77324857D01*
X85053714Y-77578857D02*
X85452857Y-77324857D01*
X85053714Y-77070857D01*
X85815714Y-76417714D02*
X85815714Y-76853142D01*
X85815714Y-76635428D02*
X85053714Y-76635428D01*
X85162571Y-76707999D01*
X85235143Y-76780571D01*
X85271429Y-76853142D01*
X64987714Y-70938571D02*
X65604571Y-70938571D01*
X65677143Y-70902286D01*
X65713429Y-70866000D01*
X65749714Y-70793429D01*
X65749714Y-70648286D01*
X65713429Y-70575714D01*
X65677143Y-70539429D01*
X65604571Y-70503143D01*
X64987714Y-70503143D01*
X65749714Y-69741143D02*
X65749714Y-70176571D01*
X65749714Y-69958857D02*
X64987714Y-69958857D01*
X65096571Y-70031428D01*
X65169143Y-70104000D01*
X65205429Y-70176571D01*
X68580000Y-73297143D02*
X68543714Y-73333429D01*
X68434857Y-73369714D01*
X68362286Y-73369714D01*
X68253429Y-73333429D01*
X68180857Y-73260857D01*
X68144572Y-73188286D01*
X68108286Y-73043143D01*
X68108286Y-72934286D01*
X68144572Y-72789143D01*
X68180857Y-72716571D01*
X68253429Y-72644000D01*
X68362286Y-72607714D01*
X68434857Y-72607714D01*
X68543714Y-72644000D01*
X68580000Y-72680286D01*
X69305714Y-73369714D02*
X68870286Y-73369714D01*
X69088000Y-73369714D02*
X69088000Y-72607714D01*
X69015429Y-72716571D01*
X68942857Y-72789143D01*
X68870286Y-72825429D01*
X76073000Y-58692143D02*
X76036714Y-58728429D01*
X75927857Y-58764714D01*
X75855286Y-58764714D01*
X75746429Y-58728429D01*
X75673857Y-58655857D01*
X75637572Y-58583286D01*
X75601286Y-58438143D01*
X75601286Y-58329286D01*
X75637572Y-58184143D01*
X75673857Y-58111571D01*
X75746429Y-58039000D01*
X75855286Y-58002714D01*
X75927857Y-58002714D01*
X76036714Y-58039000D01*
X76073000Y-58075286D01*
X76363286Y-58075286D02*
X76399572Y-58039000D01*
X76472143Y-58002714D01*
X76653572Y-58002714D01*
X76726143Y-58039000D01*
X76762429Y-58075286D01*
X76798714Y-58147857D01*
X76798714Y-58220429D01*
X76762429Y-58329286D01*
X76327000Y-58764714D01*
X76798714Y-58764714D01*
X67056000Y-58692143D02*
X67019714Y-58728429D01*
X66910857Y-58764714D01*
X66838286Y-58764714D01*
X66729429Y-58728429D01*
X66656857Y-58655857D01*
X66620572Y-58583286D01*
X66584286Y-58438143D01*
X66584286Y-58329286D01*
X66620572Y-58184143D01*
X66656857Y-58111571D01*
X66729429Y-58039000D01*
X66838286Y-58002714D01*
X66910857Y-58002714D01*
X67019714Y-58039000D01*
X67056000Y-58075286D01*
X67310000Y-58002714D02*
X67781714Y-58002714D01*
X67527714Y-58293000D01*
X67636572Y-58293000D01*
X67709143Y-58329286D01*
X67745429Y-58365571D01*
X67781714Y-58438143D01*
X67781714Y-58619571D01*
X67745429Y-58692143D01*
X67709143Y-58728429D01*
X67636572Y-58764714D01*
X67418857Y-58764714D01*
X67346286Y-58728429D01*
X67310000Y-58692143D01*
X68090143Y-76962000D02*
X68126429Y-76998286D01*
X68162714Y-77107143D01*
X68162714Y-77179714D01*
X68126429Y-77288571D01*
X68053857Y-77361143D01*
X67981286Y-77397428D01*
X67836143Y-77433714D01*
X67727286Y-77433714D01*
X67582143Y-77397428D01*
X67509571Y-77361143D01*
X67437000Y-77288571D01*
X67400714Y-77179714D01*
X67400714Y-77107143D01*
X67437000Y-76998286D01*
X67473286Y-76962000D01*
X67654714Y-76308857D02*
X68162714Y-76308857D01*
X67364429Y-76490286D02*
X67908714Y-76671714D01*
X67908714Y-76200000D01*
X82060143Y-76962000D02*
X82096429Y-76998286D01*
X82132714Y-77107143D01*
X82132714Y-77179714D01*
X82096429Y-77288571D01*
X82023857Y-77361143D01*
X81951286Y-77397428D01*
X81806143Y-77433714D01*
X81697286Y-77433714D01*
X81552143Y-77397428D01*
X81479571Y-77361143D01*
X81407000Y-77288571D01*
X81370714Y-77179714D01*
X81370714Y-77107143D01*
X81407000Y-76998286D01*
X81443286Y-76962000D01*
X81370714Y-76272571D02*
X81370714Y-76635428D01*
X81733571Y-76671714D01*
X81697286Y-76635428D01*
X81661000Y-76562857D01*
X81661000Y-76381428D01*
X81697286Y-76308857D01*
X81733571Y-76272571D01*
X81806143Y-76236286D01*
X81987571Y-76236286D01*
X82060143Y-76272571D01*
X82096429Y-76308857D01*
X82132714Y-76381428D01*
X82132714Y-76562857D01*
X82096429Y-76635428D01*
X82060143Y-76671714D01*
X80536143Y-70612000D02*
X80572429Y-70648286D01*
X80608714Y-70757143D01*
X80608714Y-70829714D01*
X80572429Y-70938571D01*
X80499857Y-71011143D01*
X80427286Y-71047428D01*
X80282143Y-71083714D01*
X80173286Y-71083714D01*
X80028143Y-71047428D01*
X79955571Y-71011143D01*
X79883000Y-70938571D01*
X79846714Y-70829714D01*
X79846714Y-70757143D01*
X79883000Y-70648286D01*
X79919286Y-70612000D01*
X79846714Y-69958857D02*
X79846714Y-70104000D01*
X79883000Y-70176571D01*
X79919286Y-70212857D01*
X80028143Y-70285428D01*
X80173286Y-70321714D01*
X80463571Y-70321714D01*
X80536143Y-70285428D01*
X80572429Y-70249143D01*
X80608714Y-70176571D01*
X80608714Y-70031428D01*
X80572429Y-69958857D01*
X80536143Y-69922571D01*
X80463571Y-69886286D01*
X80282143Y-69886286D01*
X80209571Y-69922571D01*
X80173286Y-69958857D01*
X80137000Y-70031428D01*
X80137000Y-70176571D01*
X80173286Y-70249143D01*
X80209571Y-70285428D01*
X80282143Y-70321714D01*
X82949143Y-67818000D02*
X82985429Y-67854286D01*
X83021714Y-67963143D01*
X83021714Y-68035714D01*
X82985429Y-68144571D01*
X82912857Y-68217143D01*
X82840286Y-68253428D01*
X82695143Y-68289714D01*
X82586286Y-68289714D01*
X82441143Y-68253428D01*
X82368571Y-68217143D01*
X82296000Y-68144571D01*
X82259714Y-68035714D01*
X82259714Y-67963143D01*
X82296000Y-67854286D01*
X82332286Y-67818000D01*
X82259714Y-67564000D02*
X82259714Y-67056000D01*
X83021714Y-67382571D01*
X93744143Y-67437000D02*
X93780429Y-67473286D01*
X93816714Y-67582143D01*
X93816714Y-67654714D01*
X93780429Y-67763571D01*
X93707857Y-67836143D01*
X93635286Y-67872428D01*
X93490143Y-67908714D01*
X93381286Y-67908714D01*
X93236143Y-67872428D01*
X93163571Y-67836143D01*
X93091000Y-67763571D01*
X93054714Y-67654714D01*
X93054714Y-67582143D01*
X93091000Y-67473286D01*
X93127286Y-67437000D01*
X93381286Y-67001571D02*
X93345000Y-67074143D01*
X93308714Y-67110428D01*
X93236143Y-67146714D01*
X93199857Y-67146714D01*
X93127286Y-67110428D01*
X93091000Y-67074143D01*
X93054714Y-67001571D01*
X93054714Y-66856428D01*
X93091000Y-66783857D01*
X93127286Y-66747571D01*
X93199857Y-66711286D01*
X93236143Y-66711286D01*
X93308714Y-66747571D01*
X93345000Y-66783857D01*
X93381286Y-66856428D01*
X93381286Y-67001571D01*
X93417571Y-67074143D01*
X93453857Y-67110428D01*
X93526429Y-67146714D01*
X93671571Y-67146714D01*
X93744143Y-67110428D01*
X93780429Y-67074143D01*
X93816714Y-67001571D01*
X93816714Y-66856428D01*
X93780429Y-66783857D01*
X93744143Y-66747571D01*
X93671571Y-66711286D01*
X93526429Y-66711286D01*
X93453857Y-66747571D01*
X93417571Y-66783857D01*
X93381286Y-66856428D01*
X77542572Y-75909714D02*
X77542572Y-75147714D01*
X77724000Y-75147714D01*
X77832857Y-75184000D01*
X77905429Y-75256571D01*
X77941714Y-75329143D01*
X77978000Y-75474286D01*
X77978000Y-75583143D01*
X77941714Y-75728286D01*
X77905429Y-75800857D01*
X77832857Y-75873429D01*
X77724000Y-75909714D01*
X77542572Y-75909714D01*
X78703714Y-75909714D02*
X78268286Y-75909714D01*
X78486000Y-75909714D02*
X78486000Y-75147714D01*
X78413429Y-75256571D01*
X78340857Y-75329143D01*
X78268286Y-75365429D01*
X56460572Y-56859714D02*
X56460572Y-56097714D01*
X56642000Y-56097714D01*
X56750857Y-56134000D01*
X56823429Y-56206571D01*
X56859714Y-56279143D01*
X56896000Y-56424286D01*
X56896000Y-56533143D01*
X56859714Y-56678286D01*
X56823429Y-56750857D01*
X56750857Y-56823429D01*
X56642000Y-56859714D01*
X56460572Y-56859714D01*
X57186286Y-56170286D02*
X57222572Y-56134000D01*
X57295143Y-56097714D01*
X57476572Y-56097714D01*
X57549143Y-56134000D01*
X57585429Y-56170286D01*
X57621714Y-56242857D01*
X57621714Y-56315429D01*
X57585429Y-56424286D01*
X57150000Y-56859714D01*
X57621714Y-56859714D01*
X56351714Y-78794428D02*
X55589714Y-78794428D01*
X55589714Y-78504143D01*
X55626000Y-78431571D01*
X55662286Y-78395286D01*
X55734857Y-78359000D01*
X55843714Y-78359000D01*
X55916286Y-78395286D01*
X55952571Y-78431571D01*
X55988857Y-78504143D01*
X55988857Y-78794428D01*
X56351714Y-77633286D02*
X56351714Y-78068714D01*
X56351714Y-77851000D02*
X55589714Y-77851000D01*
X55698571Y-77923571D01*
X55771143Y-77996143D01*
X55807429Y-78068714D01*
X109564714Y-61014428D02*
X108802714Y-61014428D01*
X108802714Y-60724143D01*
X108839000Y-60651571D01*
X108875286Y-60615286D01*
X108947857Y-60579000D01*
X109056714Y-60579000D01*
X109129286Y-60615286D01*
X109165571Y-60651571D01*
X109201857Y-60724143D01*
X109201857Y-61014428D01*
X109564714Y-60216143D02*
X109564714Y-60071000D01*
X109528429Y-59998428D01*
X109492143Y-59962143D01*
X109383286Y-59889571D01*
X109238143Y-59853286D01*
X108947857Y-59853286D01*
X108875286Y-59889571D01*
X108839000Y-59925857D01*
X108802714Y-59998428D01*
X108802714Y-60143571D01*
X108839000Y-60216143D01*
X108875286Y-60252428D01*
X108947857Y-60288714D01*
X109129286Y-60288714D01*
X109201857Y-60252428D01*
X109238143Y-60216143D01*
X109274429Y-60143571D01*
X109274429Y-59998428D01*
X109238143Y-59925857D01*
X109201857Y-59889571D01*
X109129286Y-59853286D01*
X67618429Y-49275999D02*
X67654714Y-49167142D01*
X67654714Y-48985713D01*
X67618429Y-48913142D01*
X67582143Y-48876856D01*
X67509571Y-48840571D01*
X67437000Y-48840571D01*
X67364429Y-48876856D01*
X67328143Y-48913142D01*
X67291857Y-48985713D01*
X67255571Y-49130856D01*
X67219286Y-49203428D01*
X67183000Y-49239713D01*
X67110429Y-49275999D01*
X67037857Y-49275999D01*
X66965286Y-49239713D01*
X66929000Y-49203428D01*
X66892714Y-49130856D01*
X66892714Y-48949428D01*
X66929000Y-48840571D01*
X66892714Y-48586571D02*
X67654714Y-48405142D01*
X67110429Y-48259999D01*
X67654714Y-48114857D01*
X66892714Y-47933428D01*
X67654714Y-47244000D02*
X67654714Y-47679428D01*
X67654714Y-47461714D02*
X66892714Y-47461714D01*
X67001571Y-47534285D01*
X67074143Y-47606857D01*
X67110429Y-47679428D01*
X68380429Y-74131714D02*
X68380429Y-74748571D01*
X68416714Y-74821143D01*
X68453000Y-74857429D01*
X68525571Y-74893714D01*
X68670714Y-74893714D01*
X68743286Y-74857429D01*
X68779571Y-74821143D01*
X68815857Y-74748571D01*
X68815857Y-74131714D01*
X69142429Y-74204286D02*
X69178715Y-74168000D01*
X69251286Y-74131714D01*
X69432715Y-74131714D01*
X69505286Y-74168000D01*
X69541572Y-74204286D01*
X69577857Y-74276857D01*
X69577857Y-74349429D01*
X69541572Y-74458286D01*
X69106143Y-74893714D01*
X69577857Y-74893714D01*
X78105000Y-78449714D02*
X77851000Y-78086857D01*
X77669572Y-78449714D02*
X77669572Y-77687714D01*
X77959857Y-77687714D01*
X78032429Y-77724000D01*
X78068714Y-77760286D01*
X78105000Y-77832857D01*
X78105000Y-77941714D01*
X78068714Y-78014286D01*
X78032429Y-78050571D01*
X77959857Y-78086857D01*
X77669572Y-78086857D01*
X78830714Y-78449714D02*
X78395286Y-78449714D01*
X78613000Y-78449714D02*
X78613000Y-77687714D01*
X78540429Y-77796571D01*
X78467857Y-77869143D01*
X78395286Y-77905429D01*
X64008000Y-56097714D02*
X63754000Y-55734857D01*
X63572572Y-56097714D02*
X63572572Y-55335714D01*
X63862857Y-55335714D01*
X63935429Y-55372000D01*
X63971714Y-55408286D01*
X64008000Y-55480857D01*
X64008000Y-55589714D01*
X63971714Y-55662286D01*
X63935429Y-55698571D01*
X63862857Y-55734857D01*
X63572572Y-55734857D01*
X64298286Y-55408286D02*
X64334572Y-55372000D01*
X64407143Y-55335714D01*
X64588572Y-55335714D01*
X64661143Y-55372000D01*
X64697429Y-55408286D01*
X64733714Y-55480857D01*
X64733714Y-55553429D01*
X64697429Y-55662286D01*
X64262000Y-56097714D01*
X64733714Y-56097714D01*
X56896000Y-54446714D02*
X56642000Y-54083857D01*
X56460572Y-54446714D02*
X56460572Y-53684714D01*
X56750857Y-53684714D01*
X56823429Y-53721000D01*
X56859714Y-53757286D01*
X56896000Y-53829857D01*
X56896000Y-53938714D01*
X56859714Y-54011286D01*
X56823429Y-54047571D01*
X56750857Y-54083857D01*
X56460572Y-54083857D01*
X57150000Y-53684714D02*
X57621714Y-53684714D01*
X57367714Y-53975000D01*
X57476572Y-53975000D01*
X57549143Y-54011286D01*
X57585429Y-54047571D01*
X57621714Y-54120143D01*
X57621714Y-54301571D01*
X57585429Y-54374143D01*
X57549143Y-54410429D01*
X57476572Y-54446714D01*
X57258857Y-54446714D01*
X57186286Y-54410429D01*
X57150000Y-54374143D01*
X100039714Y-67437000D02*
X99676857Y-67691000D01*
X100039714Y-67872428D02*
X99277714Y-67872428D01*
X99277714Y-67582143D01*
X99314000Y-67509571D01*
X99350286Y-67473286D01*
X99422857Y-67437000D01*
X99531714Y-67437000D01*
X99604286Y-67473286D01*
X99640571Y-67509571D01*
X99676857Y-67582143D01*
X99676857Y-67872428D01*
X99531714Y-66783857D02*
X100039714Y-66783857D01*
X99241429Y-66965286D02*
X99785714Y-67146714D01*
X99785714Y-66675000D01*
X104648000Y-75909714D02*
X104394000Y-75546857D01*
X104212572Y-75909714D02*
X104212572Y-75147714D01*
X104502857Y-75147714D01*
X104575429Y-75184000D01*
X104611714Y-75220286D01*
X104648000Y-75292857D01*
X104648000Y-75401714D01*
X104611714Y-75474286D01*
X104575429Y-75510571D01*
X104502857Y-75546857D01*
X104212572Y-75546857D01*
X105337429Y-75147714D02*
X104974572Y-75147714D01*
X104938286Y-75510571D01*
X104974572Y-75474286D01*
X105047143Y-75438000D01*
X105228572Y-75438000D01*
X105301143Y-75474286D01*
X105337429Y-75510571D01*
X105373714Y-75583143D01*
X105373714Y-75764571D01*
X105337429Y-75837143D01*
X105301143Y-75873429D01*
X105228572Y-75909714D01*
X105047143Y-75909714D01*
X104974572Y-75873429D01*
X104938286Y-75837143D01*
M02*
