G04 #@! TF.FileFunction,Soldermask,Top*
%FSLAX46Y46*%
G04 Gerber Fmt 4.6, Leading zero omitted, Abs format (unit mm)*
G04 Created by KiCad (PCBNEW 4.0.3-stable) date 10/09/16 09:38:23*
%MOMM*%
%LPD*%
G01*
G04 APERTURE LIST*
%ADD10C,0.100000*%
%ADD11R,0.727000X1.677000*%
%ADD12R,2.159000X2.159000*%
%ADD13R,2.227580X5.727700*%
%ADD14R,0.677000X1.727000*%
%ADD15R,1.727000X0.677000*%
%ADD16R,1.127000X1.377000*%
%ADD17R,1.377000X1.127000*%
%ADD18R,1.325880X1.325880*%
%ADD19R,1.854200X1.854200*%
%ADD20O,1.854200X1.854200*%
%ADD21R,1.854200X2.159000*%
%ADD22O,1.854200X2.159000*%
%ADD23O,2.159000X2.159000*%
%ADD24R,2.159000X1.854200*%
%ADD25O,2.159000X1.854200*%
%ADD26R,1.727000X2.127000*%
%ADD27R,1.187000X0.777000*%
%ADD28R,1.127000X1.727000*%
%ADD29C,5.527000*%
%ADD30C,0.727000*%
G04 APERTURE END LIST*
D10*
D11*
X98425000Y-70960000D03*
X97155000Y-70960000D03*
X95885000Y-70960000D03*
X94615000Y-70960000D03*
X94615000Y-76360000D03*
X95885000Y-76360000D03*
X97155000Y-76360000D03*
X98425000Y-76360000D03*
D12*
X100965000Y-53340000D03*
D13*
X88900000Y-76603860D03*
X88900000Y-66906140D03*
D14*
X68320000Y-70290000D03*
X69120000Y-70290000D03*
X69920000Y-70290000D03*
X70720000Y-70290000D03*
X71520000Y-70290000D03*
X72320000Y-70290000D03*
X73120000Y-70290000D03*
X73920000Y-70290000D03*
D15*
X75370000Y-68840000D03*
X75370000Y-68040000D03*
X75370000Y-67240000D03*
X75370000Y-66440000D03*
X75370000Y-65640000D03*
X75370000Y-64840000D03*
X75370000Y-64040000D03*
X75370000Y-63240000D03*
D14*
X73920000Y-61790000D03*
X73120000Y-61790000D03*
X72320000Y-61790000D03*
X71520000Y-61790000D03*
X70720000Y-61790000D03*
X69920000Y-61790000D03*
X69120000Y-61790000D03*
X68320000Y-61790000D03*
D15*
X66870000Y-63240000D03*
X66870000Y-64040000D03*
X66870000Y-64840000D03*
X66870000Y-65640000D03*
X66870000Y-66440000D03*
X66870000Y-67240000D03*
X66870000Y-68040000D03*
X66870000Y-68840000D03*
D16*
X70120000Y-73025000D03*
X72120000Y-73025000D03*
X74660000Y-58420000D03*
X72660000Y-58420000D03*
X68850000Y-58420000D03*
X70850000Y-58420000D03*
D17*
X66040000Y-77835000D03*
X66040000Y-75835000D03*
X80010000Y-75835000D03*
X80010000Y-77835000D03*
X81915000Y-71485000D03*
X81915000Y-69485000D03*
X84455000Y-69580000D03*
X84455000Y-67580000D03*
X95250000Y-66310000D03*
X95250000Y-68310000D03*
D18*
X74515980Y-75565000D03*
X76614020Y-75565000D03*
X60739020Y-56515000D03*
X58640980Y-56515000D03*
D19*
X58420000Y-77470000D03*
D20*
X58420000Y-74930000D03*
D21*
X83185000Y-49530000D03*
D22*
X85725000Y-49530000D03*
X88265000Y-49530000D03*
X90805000Y-49530000D03*
X93345000Y-49530000D03*
X95885000Y-49530000D03*
X98425000Y-49530000D03*
X100965000Y-49530000D03*
D21*
X83185000Y-53340000D03*
D22*
X85725000Y-53340000D03*
X88265000Y-53340000D03*
X90805000Y-53340000D03*
X93345000Y-53340000D03*
X95885000Y-53340000D03*
X98425000Y-53340000D03*
D21*
X83185000Y-45720000D03*
D22*
X85725000Y-45720000D03*
X88265000Y-45720000D03*
X90805000Y-45720000D03*
X93345000Y-45720000D03*
X95885000Y-45720000D03*
X98425000Y-45720000D03*
X100965000Y-45720000D03*
D19*
X73660000Y-52070000D03*
D20*
X76200000Y-52070000D03*
X73660000Y-54610000D03*
X76200000Y-54610000D03*
D19*
X73660000Y-45720000D03*
D20*
X76200000Y-45720000D03*
X73660000Y-48260000D03*
X76200000Y-48260000D03*
D12*
X106045000Y-69850000D03*
D23*
X103505000Y-69850000D03*
D19*
X58420000Y-45720000D03*
D20*
X60960000Y-45720000D03*
X58420000Y-48260000D03*
X60960000Y-48260000D03*
X58420000Y-50800000D03*
X60960000Y-50800000D03*
D19*
X106680000Y-60960000D03*
D20*
X106680000Y-63500000D03*
D24*
X58420000Y-60960000D03*
D25*
X58420000Y-63500000D03*
X58420000Y-66040000D03*
D26*
X67310000Y-50960000D03*
X67310000Y-45560000D03*
D27*
X69385000Y-75885000D03*
X69385000Y-76835000D03*
X69385000Y-77785000D03*
X71585000Y-77785000D03*
X71585000Y-75885000D03*
D16*
X74565000Y-78105000D03*
X76565000Y-78105000D03*
X65135000Y-53975000D03*
X63135000Y-53975000D03*
X60690000Y-53975000D03*
X58690000Y-53975000D03*
D17*
X97790000Y-66310000D03*
X97790000Y-68310000D03*
D28*
X103275000Y-73660000D03*
X106275000Y-73660000D03*
D29*
X58420000Y-40640000D03*
D30*
X60445000Y-40640000D03*
X59851891Y-42071891D03*
X58420000Y-42665000D03*
X56988109Y-42071891D03*
X56395000Y-40640000D03*
X56988109Y-39208109D03*
X58420000Y-38615000D03*
X59851891Y-39208109D03*
D29*
X105410000Y-40640000D03*
D30*
X107435000Y-40640000D03*
X106841891Y-42071891D03*
X105410000Y-42665000D03*
X103978109Y-42071891D03*
X103385000Y-40640000D03*
X103978109Y-39208109D03*
X105410000Y-38615000D03*
X106841891Y-39208109D03*
D29*
X58420000Y-83185000D03*
D30*
X60445000Y-83185000D03*
X59851891Y-84616891D03*
X58420000Y-85210000D03*
X56988109Y-84616891D03*
X56395000Y-83185000D03*
X56988109Y-81753109D03*
X58420000Y-81160000D03*
X59851891Y-81753109D03*
D29*
X105410000Y-83185000D03*
D30*
X107435000Y-83185000D03*
X106841891Y-84616891D03*
X105410000Y-85210000D03*
X103978109Y-84616891D03*
X103385000Y-83185000D03*
X103978109Y-81753109D03*
X105410000Y-81160000D03*
X106841891Y-81753109D03*
M02*
