M48
;DRILL file {KiCad 4.0.3-stable} date 10/08/16 01:18:23
;FORMAT={2:4/ absolute / inch / suppress trailing zeros}
FMAT,2
INCH,LZ
T1C0.015
T2C0.020
T3C0.040
T4C0.043
T5C0.106
%
G90
G05
M72
T1
X023725Y-024651
X0239Y-0282
X02395Y-02275
X02395Y-02515
X024275Y-02465
X024304Y-025142
X024319Y-021942
X02435Y-02135
X0244Y-02075
X024585Y-02465
X024614Y-025151
X0249Y-02465
X024924Y-02515
X02515Y-0265
X0253Y-0183
X0253Y-0192
X0257Y-02075
X02575Y-0271
X02585Y-0222
X0259Y-01795
X02655Y-02315
X02655Y-0245
X0268Y-02345
X0269Y-0249
X02715Y-01795
X02715Y-0236
X0273Y-02495
X02745Y-023825
X0275Y-02295
X027904Y-022825
X028016Y-019442
X028135Y-019728
X0282Y-0253
X0284Y-02925
X0286Y-022825
X028812Y-019506
X02885Y-02875
X028946Y-017175
X02895Y-02575
X02895Y-0261
X02895Y-03075
X029Y-0253
X029012Y-02295
X0291Y-02695
X029141Y-023827
X02935Y-0303
X029355Y-022825
X029662Y-020955
X02977Y-024075
X029813Y-023625
X030038Y-022962
X030134Y-023638
X03025Y-023188
X030276Y-022724
X0304Y-02395
X0304Y-0263
X030535Y-021621
X030554Y-022975
X030567Y-022071
X030596Y-022525
X03065Y-026068
X0309Y-0216
X03095Y-0221
X03105Y-023425
X03125Y-021175
X0313Y-0221
X03135Y-022975
X0315Y-0311
X03165Y-0221
X0318Y-0174
X031844Y-023726
X032Y-03065
X032119Y-0204
X032142Y-024079
X032208Y-021832
X03225Y-0286
X032301Y-022849
X032525Y-022508
X032678Y-022953
X032738Y-028162
X032749Y-023815
X033162Y-02379
X03325Y-0279
X033414Y-020501
X03355Y-02175
X0338Y-0274
X0341Y-0222
X034112Y-023095
X03425Y-0207
X03441Y-0222
X034421Y-023074
X03465Y-01695
X03475Y-0222
X03475Y-0231
X03625Y-02895
X0368Y-03025
X03735Y-0287
X0375Y-02655
X03775Y-0291
X03795Y-0269
X03875Y-03065
X0392Y-03005
T2
X022203Y-016
X022203Y-03275
X022436Y-015436
X022436Y-016564
X022436Y-032186
X022436Y-033314
X023Y-015203
X023Y-016797
X023Y-031953
X023Y-033547
X023564Y-015436
X023564Y-016564
X023564Y-032186
X023564Y-033314
X023797Y-016
X023797Y-03275
X040703Y-016
X040703Y-03275
X040936Y-015436
X040936Y-016564
X040936Y-032186
X040936Y-033314
X0415Y-015203
X0415Y-016797
X0415Y-031953
X0415Y-033547
X042064Y-015436
X042064Y-016564
X042064Y-032186
X042064Y-033314
X042297Y-016
X042297Y-03275
T3
X023Y-018
X023Y-019
X023Y-02
X023Y-024
X023Y-025
X023Y-026
X024Y-018
X024Y-019
X024Y-02
X029Y-018
X029Y-019
X029Y-0205
X029Y-0215
X03Y-018
X03Y-019
X03Y-0205
X03Y-0215
X03275Y-018
X03275Y-0195
X03275Y-021
X03375Y-018
X03375Y-0195
X03375Y-021
X03475Y-018
X03475Y-0195
X03475Y-021
X03575Y-018
X03575Y-0195
X03575Y-021
X03675Y-018
X03675Y-0195
X03675Y-021
X03775Y-018
X03775Y-0195
X03775Y-021
X03875Y-018
X03875Y-0195
X03875Y-021
X03975Y-018
X03975Y-0195
X03975Y-021
X04075Y-0275
X04175Y-0275
T4
X023Y-0295
X023Y-0305
X042Y-024
X042Y-025
T5
X023Y-016
X023Y-03275
X0415Y-016
X0415Y-03275
T0
M30
