G04 #@! TF.FileFunction,Other,User*
%FSLAX46Y46*%
G04 Gerber Fmt 4.6, Leading zero omitted, Abs format (unit mm)*
G04 Created by KiCad (PCBNEW 4.0.3-stable) date 10/08/16 12:11:26*
%MOMM*%
%LPD*%
G01*
G04 APERTURE LIST*
%ADD10C,0.100000*%
%ADD11C,0.300000*%
G04 APERTURE END LIST*
D10*
D11*
X77300001Y-95286429D02*
X77371430Y-95215000D01*
X77514287Y-95143571D01*
X77871430Y-95143571D01*
X78014287Y-95215000D01*
X78085716Y-95286429D01*
X78157144Y-95429286D01*
X78157144Y-95572143D01*
X78085716Y-95786429D01*
X77228573Y-96643571D01*
X78157144Y-96643571D01*
X78800001Y-96500714D02*
X78871429Y-96572143D01*
X78800001Y-96643571D01*
X78728572Y-96572143D01*
X78800001Y-96500714D01*
X78800001Y-96643571D01*
X79442858Y-95286429D02*
X79514287Y-95215000D01*
X79657144Y-95143571D01*
X80014287Y-95143571D01*
X80157144Y-95215000D01*
X80228573Y-95286429D01*
X80300001Y-95429286D01*
X80300001Y-95572143D01*
X80228573Y-95786429D01*
X79371430Y-96643571D01*
X80300001Y-96643571D01*
X81657144Y-95143571D02*
X80942858Y-95143571D01*
X80871429Y-95857857D01*
X80942858Y-95786429D01*
X81085715Y-95715000D01*
X81442858Y-95715000D01*
X81585715Y-95786429D01*
X81657144Y-95857857D01*
X81728572Y-96000714D01*
X81728572Y-96357857D01*
X81657144Y-96500714D01*
X81585715Y-96572143D01*
X81442858Y-96643571D01*
X81085715Y-96643571D01*
X80942858Y-96572143D01*
X80871429Y-96500714D01*
X82657143Y-95143571D02*
X82800000Y-95143571D01*
X82942857Y-95215000D01*
X83014286Y-95286429D01*
X83085715Y-95429286D01*
X83157143Y-95715000D01*
X83157143Y-96072143D01*
X83085715Y-96357857D01*
X83014286Y-96500714D01*
X82942857Y-96572143D01*
X82800000Y-96643571D01*
X82657143Y-96643571D01*
X82514286Y-96572143D01*
X82442857Y-96500714D01*
X82371429Y-96357857D01*
X82300000Y-96072143D01*
X82300000Y-95715000D01*
X82371429Y-95429286D01*
X82442857Y-95286429D01*
X82514286Y-95215000D01*
X82657143Y-95143571D01*
X84085714Y-95143571D02*
X84228571Y-95143571D01*
X84371428Y-95215000D01*
X84442857Y-95286429D01*
X84514286Y-95429286D01*
X84585714Y-95715000D01*
X84585714Y-96072143D01*
X84514286Y-96357857D01*
X84442857Y-96500714D01*
X84371428Y-96572143D01*
X84228571Y-96643571D01*
X84085714Y-96643571D01*
X83942857Y-96572143D01*
X83871428Y-96500714D01*
X83800000Y-96357857D01*
X83728571Y-96072143D01*
X83728571Y-95715000D01*
X83800000Y-95429286D01*
X83871428Y-95286429D01*
X83942857Y-95215000D01*
X84085714Y-95143571D01*
X86371428Y-96643571D02*
X86371428Y-95643571D01*
X86371428Y-95143571D02*
X86299999Y-95215000D01*
X86371428Y-95286429D01*
X86442856Y-95215000D01*
X86371428Y-95143571D01*
X86371428Y-95286429D01*
X87085714Y-95643571D02*
X87085714Y-96643571D01*
X87085714Y-95786429D02*
X87157142Y-95715000D01*
X87300000Y-95643571D01*
X87514285Y-95643571D01*
X87657142Y-95715000D01*
X87728571Y-95857857D01*
X87728571Y-96643571D01*
X53975000Y-94615000D02*
X111125000Y-94615000D01*
X53975000Y-90805000D02*
X53975000Y-97315000D01*
X111125000Y-90805000D02*
X111125000Y-97315000D01*
X111125000Y-94615000D02*
X109998496Y-95201421D01*
X111125000Y-94615000D02*
X109998496Y-94028579D01*
X53975000Y-94615000D02*
X55101504Y-95201421D01*
X53975000Y-94615000D02*
X55101504Y-94028579D01*
X122678571Y-66305356D02*
X122678571Y-67162499D01*
X122678571Y-66733927D02*
X121178571Y-66733927D01*
X121392857Y-66876784D01*
X121535714Y-67019642D01*
X121607143Y-67162499D01*
X122535714Y-65662499D02*
X122607143Y-65591071D01*
X122678571Y-65662499D01*
X122607143Y-65733928D01*
X122535714Y-65662499D01*
X122678571Y-65662499D01*
X122678571Y-64876785D02*
X122678571Y-64591070D01*
X122607143Y-64448213D01*
X122535714Y-64376785D01*
X122321429Y-64233927D01*
X122035714Y-64162499D01*
X121464286Y-64162499D01*
X121321429Y-64233927D01*
X121250000Y-64305356D01*
X121178571Y-64448213D01*
X121178571Y-64733927D01*
X121250000Y-64876785D01*
X121321429Y-64948213D01*
X121464286Y-65019642D01*
X121821429Y-65019642D01*
X121964286Y-64948213D01*
X122035714Y-64876785D01*
X122107143Y-64733927D01*
X122107143Y-64448213D01*
X122035714Y-64305356D01*
X121964286Y-64233927D01*
X121821429Y-64162499D01*
X121178571Y-63662499D02*
X121178571Y-62662499D01*
X122678571Y-63305356D01*
X121178571Y-61376785D02*
X121178571Y-62091071D01*
X121892857Y-62162500D01*
X121821429Y-62091071D01*
X121750000Y-61948214D01*
X121750000Y-61591071D01*
X121821429Y-61448214D01*
X121892857Y-61376785D01*
X122035714Y-61305357D01*
X122392857Y-61305357D01*
X122535714Y-61376785D01*
X122607143Y-61448214D01*
X122678571Y-61591071D01*
X122678571Y-61948214D01*
X122607143Y-62091071D01*
X122535714Y-62162500D01*
X121178571Y-60376786D02*
X121178571Y-60233929D01*
X121250000Y-60091072D01*
X121321429Y-60019643D01*
X121464286Y-59948214D01*
X121750000Y-59876786D01*
X122107143Y-59876786D01*
X122392857Y-59948214D01*
X122535714Y-60019643D01*
X122607143Y-60091072D01*
X122678571Y-60233929D01*
X122678571Y-60376786D01*
X122607143Y-60519643D01*
X122535714Y-60591072D01*
X122392857Y-60662500D01*
X122107143Y-60733929D01*
X121750000Y-60733929D01*
X121464286Y-60662500D01*
X121321429Y-60591072D01*
X121250000Y-60519643D01*
X121178571Y-60376786D01*
X122678571Y-58091072D02*
X121678571Y-58091072D01*
X121178571Y-58091072D02*
X121250000Y-58162501D01*
X121321429Y-58091072D01*
X121250000Y-58019644D01*
X121178571Y-58091072D01*
X121321429Y-58091072D01*
X121678571Y-57376786D02*
X122678571Y-57376786D01*
X121821429Y-57376786D02*
X121750000Y-57305358D01*
X121678571Y-57162500D01*
X121678571Y-56948215D01*
X121750000Y-56805358D01*
X121892857Y-56733929D01*
X122678571Y-56733929D01*
X120650000Y-86995000D02*
X120650000Y-36830000D01*
X114300000Y-86995000D02*
X123350000Y-86995000D01*
X114300000Y-36830000D02*
X123350000Y-36830000D01*
X120650000Y-36830000D02*
X121236421Y-37956504D01*
X120650000Y-36830000D02*
X120063579Y-37956504D01*
X120650000Y-86995000D02*
X121236421Y-85868496D01*
X120650000Y-86995000D02*
X120063579Y-85868496D01*
M02*
